<?xml version="1.0" encoding="utf-8"?>
<!-- Generator: Adobe Illustrator 18.1.1, SVG Export Plug-In . SVG Version: 6.00 Build 0)  -->
<!DOCTYPE svg PUBLIC "-//W3C//DTD SVG 1.1//EN" "http://www.w3.org/Graphics/SVG/1.1/DTD/svg11.dtd">
<svg version="1.1" id="Layer_1" xmlns="http://www.w3.org/2000/svg" xmlns:xlink="http://www.w3.org/1999/xlink" x="0px" y="0px"
	 viewBox="0 0 64 64" enable-background="new 0 0 64 64" xml:space="preserve">
<g id="tool_-_camera_1_">
	<g>
		<path fill-rule="evenodd" clip-rule="evenodd" fill="#FFFFFF" d="M24.2,10.6V2.8H0.8v58.4h62.3V10.6H24.2z M4.7,6.7h15.6v3.9H4.7
			V6.7z M59.3,57.3H4.7V14.5h54.5V57.3z M55.4,18.4H43.7v3.9h11.7V18.4z M28.1,53.4c8.6,0,15.6-7,15.6-15.6c0-8.6-7-15.6-15.6-15.6
			c-8.6,0-15.6,7-15.6,15.6C12.5,46.4,19.5,53.4,28.1,53.4z M28.1,26.2c6.5,0,11.7,5.2,11.7,11.7c0,6.5-5.2,11.7-11.7,11.7
			c-6.5,0-11.7-5.2-11.7-11.7C16.4,31.4,21.6,26.2,28.1,26.2z"/>
	</g>
</g>
</svg>
