<?xml version="1.0" encoding="utf-8"?>
<!-- Generator: Adobe Illustrator 18.1.1, SVG Export Plug-In . SVG Version: 6.00 Build 0)  -->
<!DOCTYPE svg PUBLIC "-//W3C//DTD SVG 1.1//EN" "http://www.w3.org/Graphics/SVG/1.1/DTD/svg11.dtd">
<svg version="1.1" id="Layer_1" xmlns="http://www.w3.org/2000/svg" xmlns:xlink="http://www.w3.org/1999/xlink" x="0px" y="0px"
	 viewBox="0 0 1000 64" enable-background="new 0 0 1000 64" xml:space="preserve">
<g id="web_-_browse_internet_network">
	<g>
		<path fill-rule="evenodd" clip-rule="evenodd" fill="#FFFFFF" d="M64.9,30C63.9,13.3,50,0,33,0C16,0,2.1,13.3,1.1,30H1v4h0.1
			C2.1,50.7,16,64,33,64c17,0,30.9-13.3,31.9-30H65L64.9,30L64.9,30z M54.4,14h-3.6c-2.1,0.6-4.7,1.1-7.6,1.4c-1-4.4-2.4-8-4-10.7
			C45.3,6.1,50.6,9.4,54.4,14z M25,34h16c-0.1,3.7-0.4,7.2-0.8,10.3C37.9,44.1,35.5,44,33,44c-2.5,0-4.9,0.1-7.2,0.3
			C25.4,41.2,25.1,37.7,25,34z M25,30c0.1-3.7,0.4-7.2,0.8-10.3c2.3,0.2,4.7,0.3,7.2,0.3c2.5,0,4.9-0.1,7.2-0.3
			c0.4,3.2,0.7,6.6,0.8,10.3H25z M33,4c2.7,0,5.1,4.6,6.5,11.8C37.4,15.9,35.3,16,33,16c-2.3,0-4.4-0.1-6.5-0.2
			C27.9,8.6,30.3,4,33,4z M26.7,4.7c-1.6,2.7-3,6.3-4,10.7c-2.9-0.3-5.5-0.8-7.6-1.4h-3.6C15.4,9.4,20.7,6.1,26.7,4.7z M10.2,15.8
			c3,1.5,7,2.7,11.8,3.4c-0.5,3.3-0.9,7-1,10.8H5.1C5.5,24.7,7.3,19.9,10.2,15.8z M21,34c0.1,3.8,0.4,7.4,1,10.8
			c-4.8,0.7-8.9,1.9-11.9,3.3c-2.8-4-4.7-8.9-5-14.1H21z M11.6,50h3.3c2.2-0.6,4.9-1.1,7.8-1.4c1,4.4,2.4,8.1,4,10.7
			C20.7,57.9,15.4,54.6,11.6,50z M33,60c-2.7,0-5.1-4.7-6.5-11.8c2.1-0.1,4.3-0.2,6.5-0.2c2.3,0,4.4,0.1,6.5,0.2
			C38.1,55.3,35.7,60,33,60z M39.3,59.3c1.6-2.7,3-6.4,4-10.7c3,0.3,5.7,0.8,7.8,1.4h3.3C50.6,54.6,45.3,57.9,39.3,59.3z M55.9,48.1
			c-3-1.4-7.1-2.6-11.9-3.3c0.5-3.3,0.9-7,1-10.8h15.9C60.5,39.2,58.7,44,55.9,48.1z M45,30c-0.1-3.8-0.4-7.5-1-10.8
			c4.8-0.7,8.8-1.9,11.8-3.4c2.9,4.1,4.7,8.9,5.1,14.2H45z"/>
	</g>
</g>
<g id="location_-_map_route">
	<g>
		<path fill-rule="evenodd" clip-rule="evenodd" fill="#FFFFFF" d="M114,22c-1.1,0-2,0.9-2,2v22c0,1.1,0.9,2,2,2s2-0.9,2-2V24
			C116,22.9,115.1,22,114,22z M128,2l-14,12L96,6l-16,8v48l16-8l18,4l14-8l16,8V12L128,2z M140,52l-12-6l-14,8l-18-4l-12,6V16l12-6
			l18,8l14-12l12,8V52z M128,40c0,1.1,0.9,2,2,2s2-0.9,2-2V14c0-1.1-0.9-2-2-2s-2,0.9-2,2V40z M98,16c-1.1,0-2,0.9-2,2v26
			c0,1.1,0.9,2,2,2s2-0.9,2-2V18C100,16.9,99.1,16,98,16z"/>
	</g>
</g>
<g id="kitchen_-_fork_knife">
	<g>
		<path fill="#FFFFFF" d="M183,16h-4V0h-4v16h-4V0h-4v24c0,4.4,3.6,8,8,8v32h4V32c4.4,0,8-3.6,8-8V0h-4V16z M183,24c0,2.2-1.8,4-4,4
			h-4c-2.2,0-4-1.8-4-4v-4h12V24z M208.2,15.5C205.7,8.2,200,1.2,199,0l-4,0v64h4V36l12,0C211,36,211.5,24.8,208.2,15.5z M199,32
			V6.6c2.1,3.2,4.5,7.3,6,11.5c1.8,5.2,2.3,10.4,2.3,13.9H199z"/>
	</g>
</g>
<g id="communication_-_bubble_help_question_support">
	<g>
		<path fill-rule="evenodd" clip-rule="evenodd" fill="#FFFFFF" d="M262,39.2c-1.3,0-2.4,1.1-2.4,2.4c0,1.3,1.1,2.4,2.4,2.4
			c1.3,0,2.4-1.1,2.4-2.4C264.4,40.3,263.3,39.2,262,39.2z M262.5,14c-4.1,0-7.4,1.7-9.5,4.4l2.2,2.4c1.6-2.2,3.7-3.6,7-3.6
			c3.4,0,5.1,1.9,5.1,4.1c0,4.6-7.8,5.1-7.8,10.6c0,1.4,0.5,2.6,1.7,3.6l2.7-1.2c-0.7-0.5-1.1-1.4-1.1-2.1c0-4.3,8.4-4.8,8.4-11.4
			C271,17,267.8,14,262.5,14z M263,0c-17.7,0-32,12.5-32,28c0,8.8,4.7,16.7,12,21.8V64l16.4-8.2c1.2,0.1,2.4,0.2,3.6,0.2
			c17.7,0,32-12.5,32-28S280.7,0,263,0z M263,52c-1.8,0-3.6-0.2-5.3-0.4L259,52l-12,6V48l1.3,0.4c-8-4.2-13.3-11.8-13.3-20.4
			c0-13.3,12.5-24,28-24c15.5,0,28,10.7,28,24S278.5,52,263,52z"/>
	</g>
</g>
<g id="building_-_house_live_1_">
	<g>
		<path fill-rule="evenodd" clip-rule="evenodd" fill="#FFFFFF" d="M318,44h12V32h-12V44z M322,36h4v4h-4V36z M369.4,24.5L339.5,0.6
			c-0.4-0.4-1-0.6-1.5-0.6c-0.5,0-1.1,0.2-1.5,0.6l-29.9,23.9c-0.8,0.8-0.8,2.1,0,2.9c0.8,0.8,2.1,0.8,2.9,0l0.6-0.4V60
			c0,2.2,1.8,4,4,4h48c2.2,0,4-1.8,4-4V26.9l0.6,0.4c0.8,0.8,2.1,0.8,2.9,0C370.2,26.6,370.2,25.3,369.4,24.5z M350,60h-12V36h12V60
			z M362,24v34c0,1.1-0.9,2-2,2h-6V32h-20v28h-18c-1.1,0-2-0.9-2-2V24h-0.3L338,4.5L362.3,24H362z"/>
	</g>
</g>
<g id="time_-_calendar_date_2_">
	<g>
		<path fill-rule="evenodd" clip-rule="evenodd" fill="#FFFFFF" d="M435,44h-12v12h12V44z M431,52h-4v-4h4V52z M435,28h-12v12h12V28
			z M431,36h-4v-4h4V36z M403,44h-12v12h12V44z M399,52h-4v-4h4V52z M441,4h-14V0h-4v4h-20V0h-4v4h-12c-2.2,0-4,1.8-4,4v52
			c0,2.2,1.8,4,4,4h52c2.2,0,4-1.8,4-4V8C443,5.8,443.2,4,441,4z M439,58c0,1.1-0.9,2-2,2h-48c-1.1,0-2-0.9-2-2V20h52V58z M439,16
			h-52v-6c0-1.1,0.9-2,2-2h10v4h4V8h20v4h4V8h10c1.1,0,2,0.9,2,2V16z M403,28h-12v12h12V28z M399,36h-4v-4h4V36z M419,28h-12v12h12
			V28z M415,36h-4v-4h4V36z M419,44h-12v12h12V44z M415,52h-4v-4h4V52z"/>
	</g>
</g>
<g id="weather_-_sunrise_sun">
	<g>
		<path fill-rule="evenodd" clip-rule="evenodd" fill="#FFFFFF" d="M467,36c0-11.1,9-20,20-20c11.1,0,20,9,20,20h4
			c0-13.3-10.7-24-24-24c-13.3,0-24,10.7-24,24H467z M467.4,15.6l-5.7-5.7l-2.8,2.8l5.7,5.7L467.4,15.6z M489,0h-4v8h4V0z M515,12.8
			l-2.8-2.8l-5.7,5.7l2.8,2.8L515,12.8z M459,52h56v-4h-56V52z M455,40v4h64v-4H455z M465,60h44v-4h-44V60z"/>
	</g>
</g>
<g id="interface_-_plus_add_3_">
	<g>
		<path fill-rule="evenodd" clip-rule="evenodd" fill="#FFFFFF" d="M576,30H565V19c0-1.1-0.9-2-2-2c-1.1,0-2,0.9-2,2V30H550
			c-1.1,0-2,0.9-2,2c0,1.1,0.9,2,2,2H561V45c0,1.1,0.9,2,2,2c1.1,0,2-0.9,2-2V33.9H576c1.1,0,2-0.9,2-2C578,30.9,577.1,30,576,30z
			 M563,0c-17.7,0-32,14.3-32,32c0,17.7,14.3,32,32,32c17.7,0,32-14.3,32-32C595,14.3,580.7,0,563,0z M563,60c-15.5,0-28-12.5-28-28
			s12.5-28,28-28c15.5,0,28,12.5,28,28S578.5,60,563,60z"/>
	</g>
</g>
</svg>
