<?xml version="1.0" encoding="utf-8"?>
<!-- Generator: Adobe Illustrator 18.1.1, SVG Export Plug-In . SVG Version: 6.00 Build 0)  -->
<!DOCTYPE svg PUBLIC "-//W3C//DTD SVG 1.1//EN" "http://www.w3.org/Graphics/SVG/1.1/DTD/svg11.dtd">
<svg version="1.1" id="Layer_1" xmlns="http://www.w3.org/2000/svg" xmlns:xlink="http://www.w3.org/1999/xlink" x="0px" y="0px"
	 viewBox="0 0 100 100" enable-background="new 0 0 100 100" xml:space="preserve">
<g id="time_-_clock_hour_3_">
	<g>
		<path fill-rule="evenodd" clip-rule="evenodd" fill="#B79C57" d="M50,86.6h6.1v-6.1H50V86.6z M21.9,73.7l4.3,4.3l4.3-4.3l-4.3-4.3
			L21.9,73.7z M30.6,26.3l-4.3-4.3l-4.3,4.3l4.3,4.3L30.6,26.3z M50,50H19.5v6.1h36.6V13.4H50V50z M50,1.2C23,1.2,1.2,23,1.2,50
			C1.2,77,23,98.8,50,98.8C77,98.8,98.8,77,98.8,50C98.8,23,77,1.2,50,1.2z M50,92.7C26.4,92.7,7.3,73.6,7.3,50
			C7.3,26.4,26.4,7.3,50,7.3c23.6,0,42.7,19.1,42.7,42.7C92.7,73.6,73.6,92.7,50,92.7z M80.5,43.9V50h6.1v-6.1H80.5z M69.8,19.5
			l-4.6,4.6l4.6,4.6l4.6-4.6L69.8,19.5z M71.3,69.8l4.6,4.6l4.6-4.6l-4.6-4.6L71.3,69.8z"/>
	</g>
</g>
</svg>
