<?xml version="1.0" encoding="utf-8"?>
<!-- Generator: Adobe Illustrator 18.1.1, SVG Export Plug-In . SVG Version: 6.00 Build 0)  -->
<!DOCTYPE svg PUBLIC "-//W3C//DTD SVG 1.1//EN" "http://www.w3.org/Graphics/SVG/1.1/DTD/svg11.dtd">
<svg version="1.1" id="Layer_1" xmlns="http://www.w3.org/2000/svg" xmlns:xlink="http://www.w3.org/1999/xlink" x="0px" y="0px"
	 viewBox="0 0 100 100" enable-background="new 0 0 100 100" xml:space="preserve">
<g id="Door_2_">
	<g>
		<path fill-rule="evenodd" clip-rule="evenodd" fill="#FFFFFF" d="M78.6,4.5H20.3c0,0,0,2.6,0,5.8v69.9l0,5.8h17.5v5.8
			c0,0.1,0,0.2,0,0.3c0,0,0,0,0,0.1c0,0.2,0.1,0.3,0.1,0.5c0,0,0,0.1,0,0.1c0,0.1,0.1,0.2,0.2,0.4c0,0,0,0.1,0.1,0.1
			c0,0,0,0,0.1,0.1c0,0.1,0.1,0.1,0.2,0.2c0.1,0.1,0.1,0.2,0.2,0.3c0,0,0.1,0.1,0.1,0.1c0.1,0.1,0.2,0.2,0.4,0.3c0,0,0,0,0.1,0
			c0.1,0.1,0.3,0.2,0.4,0.2c0,0,0.1,0,0.1,0c0.1,0.1,0.3,0.1,0.4,0.1c0.1,0,0.2,0,0.2,0c0.1,0,0.2,0,0.3,0c0.1,0,0.1,0,0.1,0
			c0.1,0,0.2,0,0.3,0c0,0,0,0,0.1,0c0.6-0.1,1.1-0.3,1.5-0.6l33.9-19.7h2.2V10.4C78.6,7.1,78.6,4.5,78.6,4.5z M39.4,25.3
			c-0.9,0.5-1.6,1.4-1.6,2.6v52.4h-8.7c-1.6,0-2.9-1.3-2.9-2.9V13.3c0-1.6,1.3-2.9,2.9-2.9H65L39.4,25.3z M72.8,69.9l-29.1,17V29.5
			l29-16.9c0.1,0.2,0.1,0.5,0.1,0.7V69.9z M49.5,57h5.8v-5.8h-5.8V57z"/>
	</g>
</g>
</svg>
