<?xml version="1.0" encoding="utf-8"?>
<!-- Generator: Adobe Illustrator 18.1.1, SVG Export Plug-In . SVG Version: 6.00 Build 0)  -->
<!DOCTYPE svg PUBLIC "-//W3C//DTD SVG 1.1//EN" "http://www.w3.org/Graphics/SVG/1.1/DTD/svg11.dtd">
<svg version="1.1" id="Layer_1" xmlns="http://www.w3.org/2000/svg" xmlns:xlink="http://www.w3.org/1999/xlink" x="0px" y="0px"
	 viewBox="0 0 216 64" enable-background="new 0 0 216 64" xml:space="preserve">
<g id="transportation_-_vehicle_car_1_">
	<g>
		<path fill-rule="evenodd" clip-rule="evenodd" fill="#FFFFFF" d="M208.8,26.6V23c0-1-0.8-1.8-1.8-1.8h-3.6c-0.1,0-0.2,0-0.4,0
			l-1.4-7.2c0-6-4.8-10.8-10.8-10.8h-21.6c-6,0-10.8,4.8-10.8,10.8l-1.4,7.2c-0.1,0-0.2,0-0.4,0H153c-1,0-1.8,0.8-1.8,1.8v3.6
			c0,1,0.8,1.8,1.8,1.8h2.5l-0.1,0.7c-2.5,1.1-4.2,3.6-4.2,6.5v18h3.6v3.6c0,2,1.6,3.6,3.6,3.6h3.6c2,0,3.6-1.6,3.6-3.6v-3.6h27v3.6
			c0,2,1.6,3.6,3.6,3.6h3.6c2,0,3.6-1.6,3.6-3.6v-3.6h5.4v-18c0-2.9-1.7-5.4-4.2-6.5l-0.1-0.7h2.5C208,28.4,208.8,27.6,208.8,26.6z
			 M162,14c0-4,3.2-7.2,7.2-7.2h21.6c4,0,7.2,3.2,7.2,7.2l2.9,14.4h-41.8L162,14z M162,55.4c0,1-0.8,1.8-1.8,1.8s-1.8-0.8-1.8-1.8
			v-1.8h3.6V55.4z M199.8,55.4c0,1-0.8,1.8-1.8,1.8c-1,0-1.8-0.8-1.8-1.8v-1.8h3.6V55.4z M205.2,35.6v10.8c0,2-1.6,3.6-3.6,3.6
			h-43.2c-2,0-3.6-1.6-3.6-3.6V35.6c0-2,1.6-3.6,3.6-3.6h43.2C203.6,32,205.2,33.6,205.2,35.6z M196.2,35.6c-3,0-5.4,2.4-5.4,5.4
			c0,3,2.4,5.4,5.4,5.4c3,0,5.4-2.4,5.4-5.4C201.6,38,199.2,35.6,196.2,35.6z M196.2,42.8c-1,0-1.8-0.8-1.8-1.8s0.8-1.8,1.8-1.8
			c1,0,1.8,0.8,1.8,1.8S197.2,42.8,196.2,42.8z M163.8,35.6c-3,0-5.4,2.4-5.4,5.4c0,3,2.4,5.4,5.4,5.4c3,0,5.4-2.4,5.4-5.4
			C169.2,38,166.8,35.6,163.8,35.6z M163.8,42.8c-1,0-1.8-0.8-1.8-1.8s0.8-1.8,1.8-1.8s1.8,0.8,1.8,1.8S164.8,42.8,163.8,42.8z"/>
	</g>
</g>
<g id="weather_-_sun_brightness_1_">
	<g>
		<path fill-rule="evenodd" clip-rule="evenodd" fill="#FFFFFF" d="M86,30h-8v4h8V30z M93.9,15l-5.7-5.7l-2.8,2.8l5.7,5.7L93.9,15z
			 M85.4,51.8l2.8,2.8l5.7-5.7L91,46.1L85.4,51.8z M110,2h-4v8h4V2z M130,30v4h8v-4H130z M122.1,49l5.7,5.7l2.8-2.8l-5.7-5.7
			L122.1,49z M106,62h4v-8h-4V62z M108,14c-9.9,0-18,8.1-18,18c0,9.9,8.1,18,18,18c9.9,0,18-8.1,18-18C126,22.1,117.9,14,108,14z
			 M108,46c-7.7,0-14-6.3-14-14c0-7.7,6.3-14,14-14c7.7,0,14,6.3,14,14C122,39.7,115.7,46,108,46z M130.6,12.2l-2.8-2.8l-5.7,5.7
			l2.8,2.8L130.6,12.2z"/>
	</g>
</g>
<rect x="7.1" y="42.8" fill-rule="evenodd" clip-rule="evenodd" fill="none" stroke="#FFFFFF" stroke-width="3" stroke-miterlimit="10" width="57.9" height="10.3"/>
<polyline fill-rule="evenodd" clip-rule="evenodd" fill="none" stroke="#FFFFFF" stroke-width="3" stroke-miterlimit="10" points="
	17.3,43.1 17.3,32.8 65,32.8 65,43.1 "/>
<polyline fill-rule="evenodd" clip-rule="evenodd" fill="none" stroke="#FFFFFF" stroke-width="3" stroke-miterlimit="10" points="
	29.2,33.1 29.2,22.8 65,22.8 65,33.1 "/>
<polyline fill-rule="evenodd" clip-rule="evenodd" fill="none" stroke="#FFFFFF" stroke-width="3" stroke-miterlimit="10" points="
	44,23.1 44,12.8 65,12.8 65,23.1 "/>
</svg>
