<?xml version="1.0" encoding="utf-8"?>
<!-- Generator: Adobe Illustrator 18.1.1, SVG Export Plug-In . SVG Version: 6.00 Build 0)  -->
<!DOCTYPE svg PUBLIC "-//W3C//DTD SVG 1.1//EN" "http://www.w3.org/Graphics/SVG/1.1/DTD/svg11.dtd">
<svg version="1.1" id="Layer_1" xmlns="http://www.w3.org/2000/svg" xmlns:xlink="http://www.w3.org/1999/xlink" x="0px" y="0px"
	 viewBox="0 0 504 64" enable-background="new 0 0 504 64" xml:space="preserve">
<g id="communication_-_phone_call_1_">
	<g>
		<path fill="#FFFFFF" d="M57.3,2.8c-2.4-1.7-5-1.1-6.1,0.5c-0.6,0.9-7.4,11-8.1,12.2c-0.3,0.5-0.5,1.2-0.5,1.9
			c0,0.9,0.3,1.9,0.8,2.9s2.2,3.9,3,5.3c-0.9,1.3-3.2,4.2-7.9,8.9s-7.7,7-9,7.9c-1.4-0.8-4.4-2.5-5.4-3c-1.8-1-3.7-1.1-4.9-0.3
			C18,39.8,8,46.5,7,47.2c-0.9,0.7-1.4,1.8-1.4,3.1c0,1,0.3,2,0.9,3c0.1,0.1,6.4,8.9,10,8.8C27,61.8,39.1,51.9,47.4,43.6
			s18.3-20.4,18.7-30.7v-0.1C66.1,9.2,57.3,2.9,57.3,2.8z M44.8,40.9c-11,11-20.9,17.2-28,17.5c-1.3-0.5-4.8-3.9-7.1-7.2
			c-0.2-0.2-0.3-0.5-0.3-0.8c0-0.1,0-0.1,0-0.2c1.5-1.1,10.2-6.7,11.8-7.8c0.2,0,0.6,0.1,1.2,0.4c0.7,0.3,2.6,1.4,5.2,2.9l2.1,1.2
			l2-1.4c1.5-1,4.6-3.5,9.5-8.3c4.8-4.8,7.3-8,8.3-9.4l1.4-2l-1.2-2.1c-1.2-2-2.5-4.4-2.9-5.2c-0.3-0.6-0.4-1.1-0.4-1.2l0,0
			c0.9-1.4,6.8-10.2,7.8-11.8c0.2,0,0.5,0,0.9,0.3c3.3,2.4,6.8,5.8,7.3,7.1C62,20,55.8,29.9,44.8,40.9z"/>
	</g>
</g>
<g id="web_-_share_network_2_">
	<g>
		<path fill="#FFFFFF" d="M127,39c-3.5,0-6.6,1.8-8.4,4.6l-21.7-9c0.1-0.5,0.1-1,0.1-1.6c0-0.3,0-0.6,0-0.9l21.7-9.6
			c1.8,2.7,4.9,4.5,8.4,4.5c5.5,0,10-4.5,10-10s-4.5-10-10-10s-10,4.5-10,10c0,0.6,0.1,1.2,0.2,1.7l-21.4,9.5
			c-1.7-3.1-5-5.2-8.8-5.2c-5.5,0-10,4.5-10,10s4.5,10,10,10c3.5,0,6.6-1.8,8.4-4.6l21.7,9c-0.1,0.5-0.1,1-0.1,1.6
			c0,5.5,4.5,10,10,10c5.5,0,10-4.5,10-10C137,43.5,132.5,39,127,39z M127,11c3.3,0,6,2.7,6,6s-2.7,6-6,6s-6-2.7-6-6
			S123.7,11,127,11z M87,39c-3.3,0-6-2.7-6-6s2.7-6,6-6s6,2.7,6,6S90.3,39,87,39z M127,55c-3.3,0-6-2.7-6-6s2.7-6,6-6s6,2.7,6,6
			S130.3,55,127,55z"/>
	</g>
</g>
<g id="web_-_browse_internet_network">
	<g>
		<path fill="#FFFFFF" d="M210.1,30.1C209.1,14.3,196,1.8,180,1.8s-29.1,12.5-30.1,28.3h-0.1v3.8h0.1c1,15.8,14.1,28.3,30.1,28.3
			s29.1-12.5,30.1-28.3h0.1L210.1,30.1L210.1,30.1z M200.2,15h-3.4c-2,0.6-4.4,1-7.2,1.3c-0.9-4.1-2.2-7.6-3.8-10.1
			C191.6,7.6,196.6,10.7,200.2,15z M172.5,33.9h15c-0.1,3.5-0.3,6.8-0.8,9.7c-2.2-0.2-4.4-0.3-6.8-0.3c-2.3,0-4.6,0.1-6.8,0.3
			C172.8,40.6,172.5,37.4,172.5,33.9z M172.5,30.1c0.1-3.5,0.3-6.8,0.8-9.7c2.2,0.2,4.4,0.3,6.8,0.3c2.3,0,4.6-0.1,6.8-0.3
			c0.4,3,0.7,6.3,0.8,9.7C187.7,30.1,172.5,30.1,172.5,30.1z M180,5.6c2.5,0,4.8,4.4,6.1,11.1c-2,0.1-4,0.2-6.1,0.2
			s-4.2-0.1-6.1-0.2C175.2,10,177.5,5.6,180,5.6z M174.1,6.3c-1.5,2.5-2.8,6-3.8,10.1c-2.7-0.3-5.2-0.8-7.2-1.3h-3.4
			C163.4,10.7,168.4,7.6,174.1,6.3z M158.5,16.7c2.8,1.4,6.6,2.5,11.1,3.2c-0.5,3.2-0.8,6.6-0.9,10.2h-15
			C154,25.1,155.8,20.5,158.5,16.7z M168.7,33.9c0.1,3.6,0.4,7,0.9,10.2c-4.5,0.7-8.4,1.7-11.2,3.1c-2.7-3.8-4.4-8.4-4.7-13.3H168.7
			z M159.8,49h3.1c2.1-0.6,4.6-1,7.4-1.4c0.9,4.1,2.2,7.6,3.8,10.1C168.4,56.4,163.4,53.3,159.8,49z M180,58.4
			c-2.5,0-4.8-4.4-6.1-11.1c2-0.1,4-0.2,6.1-0.2s4.2,0.1,6.1,0.2C184.8,54,182.5,58.4,180,58.4z M185.9,57.7c1.5-2.5,2.8-6,3.8-10.1
			c2.8,0.3,5.3,0.8,7.4,1.4h3.1C196.6,53.3,191.6,56.4,185.9,57.7z M201.6,47.2c-2.8-1.4-6.7-2.4-11.2-3.1c0.5-3.1,0.8-6.6,0.9-10.2
			h15C206,38.8,204.3,43.4,201.6,47.2z M191.3,30.1c-0.1-3.6-0.4-7-0.9-10.2c4.5-0.7,8.3-1.8,11.1-3.2c2.7,3.8,4.5,8.4,4.8,13.4
			H191.3z"/>
	</g>
</g>
<g id="interface_-_search">
	<g>
		<path fill-rule="evenodd" clip-rule="evenodd" fill="#FFFFFF" d="M282.6,59.8l-17.2-17.2c3.8-4.4,6.1-10.2,6.1-16.5
			c0-13.9-11.3-25.2-25.2-25.2c-13.9,0-25.2,11.3-25.2,25.2c0,13.9,11.3,25.2,25.2,25.2c6.3,0,12.1-2.3,16.5-6.1L280,62.4
			c0.7,0.7,1.9,0.7,2.6,0C283.3,61.7,283.3,60.5,282.6,59.8z M246.2,47.5c-11.8,0-21.4-9.6-21.4-21.4c0-11.8,9.6-21.4,21.4-21.4
			s21.4,9.6,21.4,21.4C267.6,37.9,258,47.5,246.2,47.5z"/>
	</g>
</g>
</svg>
