<?xml version="1.0" encoding="utf-8"?>
<!-- Generator: Adobe Illustrator 18.1.1, SVG Export Plug-In . SVG Version: 6.00 Build 0)  -->
<!DOCTYPE svg PUBLIC "-//W3C//DTD SVG 1.1//EN" "http://www.w3.org/Graphics/SVG/1.1/DTD/svg11.dtd">
<svg version="1.1" id="Layer_1" xmlns="http://www.w3.org/2000/svg" xmlns:xlink="http://www.w3.org/1999/xlink" x="0px" y="0px"
	 viewBox="0 0 1440 64" enable-background="new 0 0 1440 64" xml:space="preserve">
<g id="tool_-_tv_television">
	<g>
		<path fill="#3C4042" d="M39.6,22.3H17.3c-2.1,0-3.7,1.7-3.7,3.7v22.3c0,2.1,1.7,3.7,3.7,3.7h22.3c2.1,0,3.7-1.7,3.7-3.7V26
			C43.3,24,41.6,22.3,39.6,22.3z M39.6,46.4c0,1-0.8,1.9-1.9,1.9H19.2c-1,0-1.9-0.8-1.9-1.9V27.9c0-1,0.8-1.9,1.9-1.9h18.6
			c1,0,1.9,0.8,1.9,1.9v18.5H39.6z M54.4,40.9h-3.7c-2.1,0-3.7,1.7-3.7,3.7v3.7c0,2.1,1.7,3.7,3.7,3.7h3.7c2.1,0,3.7-1.7,3.7-3.7
			v-3.7C58.2,42.5,56.5,40.9,54.4,40.9z M54.4,48.3h-3.7v-3.7h3.7V48.3z M58.2,14.9H40.5L48.3,7c0.8-0.8,0.8-2,0-2.7
			c-0.8-0.8-2-0.8-2.8,0l-9.7,9.6l-9.7-9.7c-0.8-0.8-2-0.8-2.7,0c-0.8,0.8-0.8,2,0,2.8l7.8,7.9H13.6c-4.1,0-7.4,3.3-7.4,7.4V52
			c0,4.1,3.3,7.4,7.4,7.4h44.6c4.1,0,7.4-3.3,7.4-7.4V22.3C65.6,18.2,62.3,14.9,58.2,14.9z M61.9,52c0,2.1-1.7,3.7-3.7,3.7H13.6
			c-2.1,0-3.7-1.7-3.7-3.7V22.3c0-2,1.7-3.7,3.7-3.7h44.6c2.1,0,3.7,1.7,3.7,3.7C61.9,22.3,61.9,52,61.9,52z M56.3,22.3h-7.4
			c-1,0-1.9,0.8-1.9,1.9c0,1,0.8,1.9,1.9,1.9h7.4c1,0,1.9-0.8,1.9-1.9C58.2,23.1,57.3,22.3,56.3,22.3z M56.3,29.7h-7.4
			c-1,0-1.9,0.8-1.9,1.9c0,1,0.8,1.9,1.9,1.9h7.4c1,0,1.9-0.8,1.9-1.9C58.2,30.6,57.3,29.7,56.3,29.7z"/>
	</g>
</g>
<g id="goods_-_shoes">
	<g>
		<path fill="#3C4042" d="M136.5,40.1h-1.1c0.7-1.2,1.1-2.6,1.1-4c0-4.4-3.6-8-8-8L104.4,18c-10.1,12.1-24.1,0-24.1,0v22.1
			c-2.2,0-4,1.8-4,4v4c0,2.2,1.8,4,4,4h56.3c2.2,0,4-1.8,4-4v-4C140.6,41.9,138.8,40.1,136.5,40.1z M84.2,24c10.1,8,20.1-2,20.1-2
			l7.3,3.3l-7,3.9c-0.6,0.9-0.3,2.1,0.8,2.6c1.1,0.5,2.4,0.2,3.1-0.7l7.1-4l4.4,2l-7.3,4.1c-0.6,0.9-0.3,2.1,0.8,2.6
			c1.1,0.5,2.4,0.2,3.1-0.7L124,31l2.4,1.1v0.6c0.6-0.3,1.3-0.6,2-0.6c2.2,0,4,1.8,4,4s-1.8,4-4,4c-0.7,0-1.4-0.2-2-0.6v0.6H84.2V24
			z M134.5,48.2H82.2c-1.1,0-2-0.9-2-2s0.9-2,2-2h52.3c1.1,0,2,0.9,2,2S135.6,48.2,134.5,48.2z"/>
	</g>
</g>
<g id="kitchen_-_fork_knife_1_">
	<g>
		<path fill="#3C4042" d="M318,17.6c0,3.1-0.5,5.7-3.4,6.5V5.8h-3.4v18.4c-2.9-0.7-3.4-3.6-3.4-6.7V5.8h-3.4v11.7c0,5,2,9.1,6.7,9.9
			v32h3.4v-32c4.8-0.8,6.7-4.9,6.7-9.9V5.8H318V17.6z M339.1,18.8c-2.1-6.1-6.8-11.9-7.7-13H328v53.7h3.4V36h10.1v-0.9l0,0
			C341.4,35.1,341.8,26.6,339.1,18.8z M331.4,32.7V11.4c1.7,2.7,3.8,6.1,5,9.7c1.5,4.4,1.9,8.7,2,11.6
			C338.4,32.7,331.4,32.7,331.4,32.7z"/>
	</g>
</g>
<g id="kitchen_-_tissue_paper">
	<g>
		<path fill="#3C4042" d="M273.3,24.3c0-4.6-2.3-8.4-5-8.4c-2.8,0-5,3.8-5,8.4s2.3,8.4,5,8.4C271,32.7,273.3,28.9,273.3,24.3z
			 M266.6,24.3c0-2.8,0.8-5,1.7-5c0.9,0,1.7,2.3,1.7,5c0,2.8-0.8,5-1.7,5C267.3,29.3,266.6,27.1,266.6,24.3z M266.6,5.8h-26.8
			c-7.4,0-13.4,8.3-13.4,18.4v35.2h30.2V22.6h0.1c0.6-7.5,4.8-13.4,10-13.4c5.6,0,10.1,6.8,10.1,15.1s-4.5,15.1-10.1,15.1H260v3.4
			h6.7c7.4,0,13.4-8.3,13.4-18.4S274,5.8,266.6,5.8z M253.1,24.3v31.9h-23.5V24.3c0-8.3,4.5-15.1,10.1-15.1h19.1
			C255.4,12.5,253.1,18,253.1,24.3z"/>
	</g>
</g>
<g id="kitchen_-_grill">
	<g>
		<path fill="#3C4042" d="M204,25.1c0-1.5,0-6.9,0-6.9h-48.3c0,0,0,5.3,0,6.9c0,9.6,5.6,17.9,13.7,21.7l-6.8,11l3.1,1.7l7.1-11.4
			c2.2,0.7,4.6,1.1,7.1,1.1s4.8-0.4,7.1-1.1l7.1,11.4l3.1-1.7l-6.8-11C198.4,42.9,204,34.6,204,25.1z M179.9,45.7
			c-11.4,0-20.7-9.3-20.7-20.7c0-0.3,0-3.4,0-3.4h41.4V25C200.6,36.5,191.3,45.7,179.9,45.7z M193.7,7.8h-3.4v6.9h3.4V7.8z
			 M183.4,4.4H180v10.3h3.4V4.4z M173,7.8h-3.4v6.9h3.4V7.8z"/>
	</g>
</g>
<g id="kitchen_-_fridge">
	<g>
		<path fill="#3C4042" d="M410,5.8h-30.2c-1.9,0-3.4,1.5-3.4,3.4v47c0,1.9,1.5,3.4,3.4,3.4H410c1.9,0,3.4-1.5,3.4-3.4v-47
			C413.3,7.3,411.8,5.8,410,5.8z M410,54.5c0,0.9-0.8,1.7-1.7,1.7h-26.8c-0.9,0-1.7-0.8-1.7-1.7V32.7H410V54.5z M410,29.3h-30.2
			V10.9c0-0.9,0.8-1.7,1.7-1.7h26.8c0.9,0,1.7,0.8,1.7,1.7V29.3z M383.1,26h3.4v-6.7h-3.4V26z M386.5,36h-3.4v6.7h3.4V36z"/>
	</g>
</g>
<g id="Bath_2_">
	<g>
		<path fill="#3C4042" d="M439.2,25.5h55.7c0.7,0,1.3-0.6,1.3-1.3l0,0v-5.3c0-4.4-3.6-8-8-8s-8,3.6-8,8h2.7c0-2.9,2.4-5.3,5.3-5.3
			s5.3,2.4,5.3,5.3v4h-54.4c-0.7,0-1.3,0.6-1.3,1.3C437.8,24.9,438.4,25.5,439.2,25.5z M437.8,30.8L437.8,30.8c0,0.4,0,0.9,0,1.3
			c0,8.9,6.7,16.3,15,18.9l-1.9,1.9l1.9,1.9l3.1-3.1c0.6,0.1,1.2,0.2,1.8,0.2h18.6c0.6,0,1.2-0.1,1.8-0.2l3.1,3.1l1.9-1.9l-1.9-1.9
			c8.3-2.6,15-10,15-18.9c0-0.4,0-0.9-0.1-1.3h0.1v-2.7h-58.4V30.8z M440.6,30.8h52.9c0,0.4,0.1,0.9,0.1,1.3
			c0,9.1-8.2,16.5-17.2,17.2c-0.5,0-8.9,0.1-9.4,0.1s-8.9,0-9.4-0.1c-9-0.7-17.1-8.1-17.1-17.2C440.5,31.7,440.5,31.2,440.6,30.8z"
			/>
	</g>
</g>
<g id="chair_2_">
	<g>
		<path fill="#3C4042" d="M1419.4,29.6c-0.2,0-0.4,0-0.6,0.1c-0.1-0.1-0.2-0.1-0.3-0.1h-25V8.5c0-1-0.7-1.9-1.5-1.9
			s-1.5,0.8-1.5,1.9v48.3c0,1,0.7,1.9,1.5,1.9s1.5-0.8,1.5-1.9v-18h24.5v18.9c0,0.6,0.7,1,1.5,1s1.5-0.5,1.5-1v-27
			C1420.9,30.1,1420.3,29.6,1419.4,29.6z M1393.4,35.7v-3.1h24.5v3.1H1393.4z"/>
	</g>
</g>
<g>
	<g>
		<path fill="#3C4042" d="M539.6,46.1c-0.9,0-1.7,0.8-1.7,1.7v10.1c0,0.9,0.8,1.7,1.7,1.7s1.7-0.8,1.7-1.7V47.8
			C541.3,46.8,540.5,46.1,539.6,46.1z M532.9,46.1c-0.9,0-1.7,0.8-1.7,1.7v6.7c0,0.9,0.8,1.7,1.7,1.7s1.7-0.8,1.7-1.7v-6.7
			C534.6,46.8,533.8,46.1,532.9,46.1z M543,17.6h-1.7V6.2c0-0.2-0.7-0.4-1.7-0.4c-0.9,0-1.7,0.2-1.7,0.4v11.4h-1.7
			c-7.4,0-11.7,6-11.7,13.4v11.7h30.2V31C554.7,23.6,550.4,17.6,543,17.6z M551.3,39.4h-23.5V31c0-5.6,2.8-10.1,8.4-10.1h6.7
			c5.6,0,8.4,4.5,8.4,10.1L551.3,39.4L551.3,39.4z M546.3,46.1c-0.9,0-1.7,0.8-1.7,1.7v6.7c0,0.9,0.8,1.7,1.7,1.7s1.7-0.8,1.7-1.7
			v-6.7C548,46.8,547.2,46.1,546.3,46.1z"/>
	</g>
</g>
<g>
	<g id="food_-_bowl_soup_3_">
		<g>
			<path fill="#3C4042" d="M637.4,31.7c0-5.6-12-10.1-26.8-10.1s-26.8,4.5-26.8,10.1c0,0.2,0,0.4,0,0.5c0,0.4,0,0.8,0,1.1
				c0,14.8,12,26.8,26.8,26.8s26.8-12,26.8-26.8c0-0.4,0-0.8,0-1.1C637.4,32.1,637.4,31.9,637.4,31.7z M610.6,56.9
				c-11.8,0-21.6-8.7-23.2-20.1c4.6,3,13.3,5,23.2,5s18.6-2,23.2-5C632.2,48.1,622.4,56.9,610.6,56.9z M610.6,38.4
				c-13,0-23.5-3-23.5-6.7s10.5-6.7,23.5-6.7s23.5,3,23.5,6.7S623.6,38.4,610.6,38.4z"/>
		</g>
	</g>
	<path fill="#3C4042" d="M608.6,15.2c0-5.6,4.5-10.1,10.1-10.1s10.1,4.5,10.1,10.1v10.1h-3.4V15.2c0-3.7-3-6.7-6.7-6.7
		s-6.7,3-6.7,6.7H608.6z"/>
	<path fill="#3C4042" d="M586.3,36.5l-1.4-3.1c1-0.5,25.5-11,49.8,0l-1.4,3.1C610.4,26.1,586.6,36.4,586.3,36.5z"/>
</g>
<g>
	<g>
		<path fill="#3C4042" d="M715.9,56.8h-63.7c-1,0-1.8-0.8-1.8-1.8V42.2c0-0.1,0-0.3,0.1-0.4l5.5-22.2l0-7.9c0-0.5,0.2-0.9,0.5-1.2
			c0.3-0.3,0.8-0.5,1.2-0.5h52.6c1,0,1.8,0.8,1.8,1.8v8.1l5.6,22.2c0,0.1,0.1,0.3,0.1,0.4V55C717.6,56,716.8,56.8,715.9,56.8z
			 M653.9,53.3h60.2V42.6l-5.6-22.2c0-0.1-0.1-0.3-0.1-0.4v-6.5h-49.1l0,6.3c0,0.1,0,0.3-0.1,0.4l-5.5,22.2V53.3z"/>
	</g>
</g>
<g>
	<g>
		<rect x="652.3" y="42" fill="#3C4042" width="63.6" height="3.5"/>
	</g>
</g>
<g>
	<g>
		<rect x="701.7" y="19" fill="#3C4042" width="8.5" height="3.5"/>
	</g>
</g>
<g>
	<g>
		<rect x="677.6" y="19" fill="#3C4042" width="13" height="3.5"/>
	</g>
</g>
<g>
	<g>
		<rect x="657.7" y="19" fill="#3C4042" width="9" height="3.5"/>
	</g>
</g>
<g>
	<g>
		<g>
			<path fill="#3C4042" d="M677.7,26.3h-11.2c-1,0-1.8-0.8-1.8-1.8v-7.5c0-1,0.8-1.8,1.8-1.8h11.2c1,0,1.8,0.8,1.8,1.8v7.5
				C679.5,25.6,678.7,26.3,677.7,26.3z M668.2,22.8h7.8v-4h-7.8V22.8z"/>
		</g>
	</g>
	<g>
		<g>
			<path fill="#3C4042" d="M701.5,26.3h-11.2c-1,0-1.8-0.8-1.8-1.8v-7.5c0-1,0.8-1.8,1.8-1.8h11.2c1,0,1.8,0.8,1.8,1.8v7.5
				C703.3,25.6,702.5,26.3,701.5,26.3z M692,22.8h7.8v-4H692V22.8z"/>
		</g>
	</g>
</g>
<g>
	<g>
		<g>
			<rect x="653.3" y="55.2" fill="#3C4042" width="3.5" height="3.7"/>
		</g>
	</g>
	<g>
		<g>
			<rect x="711.3" y="55.2" fill="#3C4042" width="3.5" height="3.7"/>
		</g>
	</g>
</g>
<g>
	<path fill="#3C4042" d="M681.4,36.4l-0.2,3.4c-0.8,0.3-1.4,0.4-2.1,0.4c-1.4,0-2.6-0.5-3.6-1.5c-1.1-1.1-1.6-2.7-1.6-4.8
		c0-1.9,0.5-3.5,1.5-4.7c1-1.2,2.4-1.7,4.1-1.7c0.6,0,1.1,0.1,1.7,0.3v3.5c-0.5-0.5-1-0.8-1.6-0.8c-0.7,0-1.3,0.3-1.6,0.9
		c-0.4,0.6-0.6,1.4-0.6,2.5c0,0.5,0,1,0.1,1.4s0.2,0.7,0.4,1c0.2,0.3,0.4,0.5,0.7,0.6s0.6,0.2,0.9,0.2
		C680.2,37.2,680.8,36.9,681.4,36.4z"/>
	<path fill="#3C4042" d="M692.3,40.2h-3.7l-2.3-5.9l0.1,5.9H683V27.5h3.4l-0.1,5.5l2-5.5h3.6l-2.7,6.1L692.3,40.2z"/>
</g>
<g>
	<g>
		<path fill="#3C4042" d="M832.4,26.6h-8c-1,0-1.8-0.8-1.8-1.8v-7.5c0-1,0.8-1.8,1.8-1.8h8c1,0,1.8,0.8,1.8,1.8v7.5
			C834.2,25.9,833.4,26.6,832.4,26.6z M826.2,23.1h4.5v-4h-4.5V23.1z"/>
	</g>
	<g>
		<path fill="#3C4042" d="M825.1,39.7v-3.6c0.6,0.8,1.3,1.3,2,1.3c0.3,0,0.5-0.1,0.7-0.2c0.2-0.1,0.3-0.3,0.3-0.5
			c0-0.3-0.2-0.6-0.6-0.9l-0.5-0.4c-0.3-0.2-0.6-0.5-0.9-0.7c-0.2-0.2-0.4-0.5-0.6-0.8c-0.1-0.3-0.3-0.5-0.3-0.8
			c-0.1-0.3-0.1-0.6-0.1-0.9c0-0.5,0.1-1.1,0.4-1.6c0.1-0.3,0.3-0.5,0.4-0.7c0.2-0.2,0.4-0.4,0.6-0.6c0.6-0.5,1.3-0.7,2.1-0.7
			c0.7,0,1.5,0.2,2.2,0.6v3.5c-0.3-0.4-0.5-0.7-0.9-0.9s-0.6-0.3-1-0.3c-0.2,0-0.4,0.1-0.6,0.2c-0.2,0.1-0.2,0.3-0.2,0.5
			c0,0.3,0.2,0.6,0.6,0.9l0.5,0.4c0.7,0.5,1.1,0.9,1.4,1.4c0.3,0.5,0.4,1,0.4,1.7c0,1.1-0.3,2-1,2.7c-0.7,0.7-1.6,1.1-2.6,1.1
			C826.7,40.2,825.9,40,825.1,39.7z"/>
	</g>
	<g>
		<rect x="810.1" y="41.9" fill="#3C4042" width="36.6" height="3.5"/>
	</g>
	<g>
		<polygon fill="#3C4042" points="848.5,56.5 808.4,56.5 808.4,41.9 811.8,19.3 825.4,19.3 825.4,22.8 814.8,22.8 811.9,42.3 
			811.9,53 845,53 845,42.5 842,22.8 832.6,22.8 832.6,19.3 845.1,19.3 848.5,42.3 		"/>
	</g>
	<g>
		<g>
			<rect x="810.6" y="54.9" fill="#3C4042" width="3.5" height="3.7"/>
		</g>
		<g>
			<rect x="842.8" y="54.9" fill="#3C4042" width="3.5" height="3.7"/>
		</g>
	</g>
	<g>
		<path fill="#3C4042" d="M852.8,32.5h-7.5V29h5.8V13.2c0-1.8-1.1-3.3-2.4-3.3h-40.5c-1.3,0-2.4,1.5-2.4,3.3V29h6.1v3.5h-7.9
			c-1,0-1.8-0.8-1.8-1.8V13.2c0-3.7,2.6-6.8,5.9-6.8h40.5c3.2,0,5.9,3,5.9,6.8v17.6C854.6,31.8,853.8,32.5,852.8,32.5z"/>
	</g>
</g>
<g>
	<g>
		<path fill="#3C4042" d="M893.7,23.3h-11.2c-1,0-1.8-0.8-1.8-1.8v-7.5c0-1,0.8-1.8,1.8-1.8h11.2c1,0,1.8,0.8,1.8,1.8v7.5
			C895.5,22.5,894.7,23.3,893.7,23.3z M884.2,19.8h7.8v-4h-7.8V19.8z"/>
	</g>
	<g>
		<path fill="#3C4042" d="M917.5,23.3h-11.2c-1,0-1.8-0.8-1.8-1.8v-7.5c0-1,0.8-1.8,1.8-1.8h11.2c1,0,1.8,0.8,1.8,1.8v7.5
			C919.3,22.5,918.5,23.3,917.5,23.3z M908,19.8h7.8v-4H908V19.8z"/>
	</g>
</g>
<g>
	<g>
		<path fill="#3C4042" d="M929.3,56.5h-58.5c-1,0-1.8-0.8-1.8-1.8V40.9c0-0.1,0-0.2,0-0.4l5-24l0-8.5c0-0.5,0.2-0.9,0.5-1.2
			c0.3-0.3,0.8-0.5,1.2-0.5h48.3c1,0,1.8,0.8,1.8,1.8v8.7l5.1,24c0,0.1,0,0.2,0,0.4v13.6C931,55.7,930.2,56.5,929.3,56.5z M872.5,53
			h55V41.3l-5.1-24c0-0.1,0-0.2,0-0.4V9.8h-44.8l0,6.9c0,0.1,0,0.2,0,0.4l-5,24V53z"/>
	</g>
	<g>
		<rect x="870.8" y="40.8" fill="#3C4042" width="58.4" height="3.5"/>
	</g>
	<g>
		<rect x="917.8" y="16.1" fill="#3C4042" width="6.3" height="3.5"/>
	</g>
	<g>
		<rect x="893.6" y="16.1" fill="#3C4042" width="12.8" height="3.5"/>
	</g>
	<g>
		<rect x="875.8" y="16.1" fill="#3C4042" width="6.5" height="3.5"/>
	</g>
	<g>
		<g>
			<rect x="871.6" y="54.9" fill="#3C4042" width="3.5" height="4"/>
		</g>
		<g>
			<rect x="924.9" y="54.9" fill="#3C4042" width="3.5" height="4"/>
		</g>
	</g>
</g>
<g>
	<path fill="#3C4042" d="M887.9,38h-3.3v-9.3h-1.8v-2.9h7v2.9h-1.9V38z"/>
</g>
<g>
	<path fill="#3C4042" d="M914.8,38h-3.3v-9.3h-1.8v-2.9h7v2.9h-1.9V38z"/>
</g>
<path fill="#3C4042" d="M900.7,11.6h-1.5c-0.5,0-1-0.4-1-1V10c0-0.6,0.5-1,1-1h1.5c0.5,0,1,0.4,1,1v0.6
	C901.7,11.1,901.2,11.6,900.7,11.6z"/>
<path fill="#3C4042" d="M900.7,15.6h-1.5c-0.5,0-1-0.5-1-1V14c0-0.6,0.5-1,1-1h1.5c0.5,0,1,0.4,1,1v0.6
	C901.7,15.1,901.2,15.6,900.7,15.6z"/>
<path fill="#3C4042" d="M900.7,23.2h-1.5c-0.5,0-1-0.5-1-1v-0.6c0-0.6,0.5-1,1-1h1.5c0.5,0,1,0.4,1,1v0.6
	C901.7,22.7,901.2,23.2,900.7,23.2z"/>
<path fill="#3C4042" d="M900.7,28.9h-1.5c-0.5,0-1-0.4-1-1v-0.6c0-0.5,0.5-1,1-1h1.5c0.5,0,1,0.5,1,1v0.6
	C901.7,28.4,901.2,28.9,900.7,28.9z"/>
<path fill="#3C4042" d="M900.7,34.5h-1.5c-0.5,0-1-0.5-1-1v-0.6c0-0.6,0.5-1,1-1h1.5c0.5,0,1,0.4,1,1v0.6
	C901.7,34.1,901.2,34.5,900.7,34.5z"/>
<path fill="#3C4042" d="M900.7,40.2h-1.5c-0.5,0-1-0.4-1-1v-0.6c0-0.5,0.5-1,1-1h1.5c0.5,0,1,0.5,1,1v0.6
	C901.7,39.8,901.2,40.2,900.7,40.2z"/>
<path fill="#3C4042" d="M900.7,47.9h-1.5c-0.5,0-1-0.4-1-1v-0.6c0-0.5,0.5-1,1-1h1.5c0.5,0,1,0.5,1,1v0.6
	C901.7,47.4,901.2,47.9,900.7,47.9z"/>
<path fill="#3C4042" d="M900.7,51.9h-1.5c-0.5,0-1-0.5-1-1v-0.6c0-0.6,0.5-1,1-1h1.5c0.5,0,1,0.4,1,1v0.6
	C901.7,51.4,901.2,51.9,900.7,51.9z"/>
<g>
	<path fill="#3C4042" d="M1122.7,22.3h-11.2c-1,0-1.8-0.8-1.8-1.8V13c0-1,0.8-1.8,1.8-1.8h11.2c1,0,1.8,0.8,1.8,1.8v7.5
		C1124.5,21.5,1123.7,22.3,1122.7,22.3z M1113.2,18.8h7.8v-4h-7.8V18.8z"/>
</g>
<g>
	<g>
		<path fill="#3C4042" d="M1135.6,56h-37c-1,0-1.8-0.8-1.8-1.8v-14c0-0.1,0-0.2,0-0.2l3.2-24.5l0-8.7c0-0.5,0.2-0.9,0.5-1.2
			s0.8-0.5,1.2-0.5h30.5c1,0,1.8,0.8,1.8,1.8v8.9l3.2,24.5c0,0.1,0,0.2,0,0.2v13.8C1137.3,55.2,1136.5,56,1135.6,56z M1100.4,52.5
			h33.5V40.5l-3.2-24.5c0-0.1,0-0.2,0-0.2V8.5h-27l0,7.1c0,0.1,0,0.2,0,0.2l-3.2,24.5V52.5z"/>
	</g>
	<g>
		<rect x="1098.7" y="40.1" fill="#3C4042" width="36.9" height="3.5"/>
	</g>
	<g>
		<rect x="1123.2" y="15" fill="#3C4042" width="9.1" height="3.5"/>
	</g>
	<g>
		<rect x="1101.8" y="15" fill="#3C4042" width="9.9" height="3.5"/>
	</g>
	<g>
		<g>
			<rect x="1098.5" y="54.4" fill="#3C4042" width="3.5" height="4.1"/>
		</g>
		<g>
			<rect x="1132.2" y="54.4" fill="#3C4042" width="3.5" height="4.1"/>
		</g>
	</g>
</g>
<g>
	<path fill="#3C4042" d="M1118.7,37.4h-3.3v-9.3h-1.8v-2.9h7v2.9h-1.9V37.4z"/>
</g>
<g>
	<g>
		<path fill="#3C4042" d="M968.4,22.9h-11.2c-1,0-1.8-0.8-1.8-1.8v-7.5c0-1,0.8-1.8,1.8-1.8h11.2c1,0,1.8,0.8,1.8,1.8v7.5
			C970.2,22.1,969.4,22.9,968.4,22.9z M958.9,19.4h7.8v-4h-7.8V19.4z"/>
	</g>
	<g>
		<path fill="#3C4042" d="M989.2,22.9H978c-1,0-1.8-0.8-1.8-1.8v-7.5c0-1,0.8-1.8,1.8-1.8h11.2c1,0,1.8,0.8,1.8,1.8v7.5
			C991,22.1,990.2,22.9,989.2,22.9z M979.7,19.4h7.8v-4h-7.8V19.4z"/>
	</g>
</g>
<g>
	<path fill="#3C4042" d="M1002.3,56.3H944c-1,0-1.7-0.8-1.7-1.7V40.7c0-0.1,0-0.2,0-0.4l5-24.2l0-8.6c0-0.5,0.2-0.9,0.5-1.2
		c0.3-0.3,0.8-0.5,1.2-0.5h48.1c1,0,1.7,0.8,1.7,1.7v8.8l5.1,24.2c0,0.1,0,0.2,0,0.4v13.7C1004.1,55.5,1003.3,56.3,1002.3,56.3z
		 M945.8,52.8h54.8V41.1l-5.1-24.2c0-0.1,0-0.2,0-0.4V9.2h-44.6l0,7c0,0.1,0,0.2,0,0.4l-5,24.3V52.8z"/>
</g>
<g>
	<rect x="944.2" y="40.6" fill="#3C4042" width="58.2" height="3.5"/>
</g>
<g>
	<rect x="989.3" y="15.6" fill="#3C4042" width="7.9" height="3.5"/>
</g>
<g>
	<rect x="968.3" y="15.6" fill="#3C4042" width="9.6" height="3.5"/>
</g>
<g>
	<rect x="949.1" y="15.6" fill="#3C4042" width="8.3" height="3.5"/>
</g>
<g>
	<g>
		<rect x="944.9" y="54.7" fill="#3C4042" width="3.5" height="4.1"/>
	</g>
	<g>
		<rect x="998" y="54.7" fill="#3C4042" width="3.5" height="4.1"/>
	</g>
</g>
<g>
	<path fill="#3C4042" d="M977.3,37.3H974l-2-5.3l0.1,5.3h-3.1V25.9h3.1l-0.1,4.9l1.8-4.9h3.2l-2.5,5.5L977.3,37.3z"/>
</g>
<g>
	<g>
		<path fill="#3C4042" d="M1040.5,21.4h-11.2c-1,0-1.8-0.8-1.8-1.8v-7.5c0-1,0.8-1.8,1.8-1.8h11.2c1,0,1.8,0.8,1.8,1.8v7.5
			C1042.2,20.6,1041.5,21.4,1040.5,21.4z M1031,17.9h7.8v-4h-7.8V17.9z"/>
	</g>
	<g>
		<path fill="#3C4042" d="M1059.3,21.4H1048c-1,0-1.8-0.8-1.8-1.8v-7.5c0-1,0.8-1.8,1.8-1.8h11.2c1,0,1.8,0.8,1.8,1.8v7.5
			C1061,20.6,1060.2,21.4,1059.3,21.4z M1049.8,17.9h7.8v-4h-7.8V17.9z"/>
	</g>
</g>
<g>
	<path fill="#3C4042" d="M1070.6,56.3h-52.7c-1,0-1.8-0.8-1.8-1.8V40.1c0-0.1,0-0.2,0-0.3l4.5-25.1l0-8.9c0-0.5,0.2-0.9,0.5-1.2
		s0.8-0.5,1.2-0.5h43.5c1,0,1.8,0.8,1.8,1.8v9.2l4.6,25.1c0,0.1,0,0.2,0,0.3v14.2C1072.4,55.5,1071.6,56.3,1070.6,56.3z
		 M1019.6,52.8h49.2V40.5l-4.6-25.1c0-0.1,0-0.2,0-0.3V7.5h-40l0,7.3c0,0.1,0,0.2,0,0.3l-4.5,25.1V52.8z"/>
</g>
<g>
	<rect x="1018" y="40.1" fill="#3C4042" width="52.6" height="3.5"/>
</g>
<g>
	<rect x="1059.6" y="14.2" fill="#3C4042" width="6.4" height="3.5"/>
</g>
<g>
	<rect x="1040.3" y="14.2" fill="#3C4042" width="7.6" height="3.5"/>
</g>
<g>
	<rect x="1022.4" y="14.2" fill="#3C4042" width="7.4" height="3.5"/>
</g>
<g>
	<g>
		<rect x="1018.5" y="54.7" fill="#3C4042" width="3.5" height="4.2"/>
	</g>
	<g>
		<rect x="1066.5" y="54.7" fill="#3C4042" width="3.5" height="4.2"/>
	</g>
</g>
<g>
	<path fill="#3C4042" d="M1047.4,35.8l-2.4,1.3l-1-1.7c-0.3,0.1-0.7,0.1-0.9,0.1c-1.2,0-2.2-0.5-3-1.4c-0.9-1-1.3-2.4-1.3-4.2
		c0-1.7,0.4-3.1,1.2-4.1c0.8-1,1.8-1.5,3.1-1.5c1.3,0,2.3,0.5,3.1,1.6c0.8,1,1.2,2.4,1.2,4c0,1.9-0.4,3.3-1.3,4.4L1047.4,35.8z
		 M1044.2,30c0-0.5,0-0.9-0.1-1.3c-0.1-0.4-0.1-0.7-0.2-0.9s-0.2-0.5-0.4-0.6c-0.1-0.1-0.3-0.2-0.5-0.2c-0.3,0-0.6,0.3-0.8,0.8
		c-0.2,0.6-0.3,1.3-0.3,2.1c0,0.5,0,0.9,0.1,1.2c0.1,0.4,0.1,0.7,0.2,0.9c0.1,0.2,0.2,0.4,0.4,0.6s0.3,0.2,0.5,0.2
		c0.2,0,0.3-0.1,0.5-0.2s0.3-0.3,0.4-0.6c0.1-0.2,0.2-0.5,0.2-0.9C1044.1,30.9,1044.2,30.5,1044.2,30z"/>
</g>
<g>
	<path fill="#3C4042" d="M1319.5,13h-3.5V7.3c0-1,0.8-1.8,1.8-1.8h11.2c1,0,1.8,0.8,1.8,1.8v5.5h-3.5V9h-7.8V13z"/>
</g>
<g>
	<path fill="#3C4042" d="M1337.5,13.2h-3.5V7.3c0-1,0.8-1.8,1.8-1.8h11.2c1,0,1.8,0.8,1.8,1.8v5.9h-3.5V9h-7.8V13.2z"/>
</g>
<g>
	<path fill="#3C4042" d="M1319.5,47h-3.5v-5.7c0-1,0.8-1.8,1.8-1.8h11.2c1,0,1.8,0.8,1.8,1.8v5.5h-3.5V43h-7.8V47z"/>
</g>
<g>
	<path fill="#3C4042" d="M1337.5,47.2h-3.5v-5.9c0-1,0.8-1.8,1.8-1.8h11.2c1,0,1.8,0.8,1.8,1.8v5.9h-3.5V43h-7.8V47.2z"/>
</g>
<g>
	<path fill="#3C4042" d="M1342.2,35.5V24.1h3.6c1.3,0,2.3,0.3,3,0.9c0.7,0.6,1,1.4,1,2.3c0,1.4-0.7,2.2-2.1,2.3
		c0.8,0.1,1.4,0.4,1.8,0.8c0.4,0.4,0.6,1,0.6,1.8c0,1-0.3,1.8-0.9,2.4c-0.6,0.6-1.5,0.9-2.5,0.9H1342.2z M1345.3,28.4h0.2
		c0.4,0,0.7-0.1,0.9-0.3c0.2-0.2,0.3-0.4,0.3-0.7c0-0.7-0.4-1-1.1-1c0,0-0.1,0-0.1,0c-0.1,0-0.1,0-0.2,0V28.4z M1345.3,33
		c0.1,0,0.1,0,0.2,0c0,0,0.1,0,0.1,0c0.4,0,0.7-0.1,0.9-0.3c0.2-0.2,0.3-0.5,0.3-0.8c0-0.3-0.1-0.6-0.3-0.8
		c-0.2-0.2-0.5-0.3-0.9-0.3h-0.2V33z"/>
</g>
<g>
	<path fill="#3C4042" d="M1308.2,36.8h-3.5V14.1c0-1.4,1.1-2.6,2.6-2.6h49.6c1.4,0,2.6,1.1,2.6,2.6v5.9c0,1.4-1.1,2.6-2.6,2.6h-40.3
		v-3.5h39.3v-4.1h-47.8V36.8z"/>
</g>
<g>
	<path fill="#3C4042" d="M1356.9,56.6h-49.6c-1.4,0-2.6-1.1-2.6-2.6v-5.9c0-1.4,1.1-2.6,2.6-2.6h49.6c1.4,0,2.6,1.1,2.6,2.6v5.9
		C1359.5,55.5,1358.4,56.6,1356.9,56.6z M1308.2,53.1h47.8v-4.1h-47.8V53.1z"/>
</g>
<g>
	<rect x="1350.8" y="54.7" fill="#3C4042" width="3.5" height="4.2"/>
</g>
<g>
	<rect x="1350.8" y="20.9" fill="#3C4042" width="3.5" height="26.5"/>
</g>
<g>
	<rect x="1309.8" y="55.2" fill="#3C4042" width="3.5" height="3.7"/>
</g>
<g>
	<rect x="1309.8" y="31.4" fill="#3C4042" width="3.5" height="16"/>
</g>
<g>
	<rect x="1315" y="13.1" fill="#3C4042" width="3.5" height="23.6"/>
</g>
<g>
	<rect x="1306.5" y="17.2" fill="#3C4042" width="9.8" height="3.5"/>
</g>
<g>
	<rect x="1306.5" y="29.2" fill="#3C4042" width="9.8" height="3.5"/>
</g>
<g>
	<rect x="1306.5" y="23.2" fill="#3C4042" width="9.8" height="3.5"/>
</g>
<g>
	<path fill="#3C4042" d="M1247.5,13.2h-3.5V7.4c0-1,0.8-1.8,1.8-1.8h11.2c1,0,1.8,0.8,1.8,1.8V13h-3.5V9.2h-7.8V13.2z"/>
</g>
<g>
	<path fill="#3C4042" d="M1247.5,47.2h-3.5v-5.7c0-1,0.8-1.8,1.8-1.8h11.2c1,0,1.8,0.8,1.8,1.8V47h-3.5v-3.8h-7.8V47.2z"/>
</g>
<g>
	<path fill="#3C4042" d="M1270.5,47.4h-3.5v-5.9c0-1,0.8-1.8,1.8-1.8h11.2c1,0,1.8,0.8,1.8,1.8v5.9h-3.5v-4.2h-7.8V47.4z"/>
</g>
<g>
	<path fill="#3C4042" d="M1251.2,35.6V24.2h3.6c1.3,0,2.3,0.3,3,0.9c0.7,0.6,1,1.4,1,2.3c0,1.4-0.7,2.2-2.1,2.3
		c0.8,0.1,1.4,0.4,1.8,0.8c0.4,0.4,0.6,1,0.6,1.8c0,1-0.3,1.8-0.9,2.4c-0.6,0.6-1.5,0.9-2.5,0.9H1251.2z M1254.3,28.5h0.2
		c0.4,0,0.7-0.1,0.9-0.3c0.2-0.2,0.3-0.4,0.3-0.7c0-0.7-0.4-1-1.1-1c0,0-0.1,0-0.1,0c-0.1,0-0.1,0-0.2,0V28.5z M1254.3,33.2
		c0.1,0,0.1,0,0.2,0c0,0,0.1,0,0.1,0c0.4,0,0.7-0.1,0.9-0.3c0.2-0.2,0.3-0.5,0.3-0.8c0-0.3-0.1-0.6-0.3-0.8
		c-0.2-0.2-0.5-0.3-0.9-0.3h-0.2V33.2z"/>
</g>
<g>
	<path fill="#3C4042" d="M1236.2,36.9h-3.5V14.2c0-1.4,1.1-2.6,2.6-2.6h33.6c1.4,0,2.6,1.1,2.6,2.6v5.9c0,1.4-1.1,2.6-2.6,2.6h-24.3
		v-3.5h23.3v-4.1h-31.8V36.9z"/>
</g>
<g>
	<path fill="#3C4042" d="M1284.9,56.8h-49.6c-1.4,0-2.6-1.1-2.6-2.6v-5.9c0-1.4,1.1-2.6,2.6-2.6h49.6c1.4,0,2.6,1.1,2.6,2.6v5.9
		C1287.5,55.6,1286.4,56.8,1284.9,56.8z M1236.2,53.2h47.8v-4.1h-47.8V53.2z"/>
</g>
<g>
	<rect x="1278.8" y="54.8" fill="#3C4042" width="3.5" height="4.2"/>
</g>
<g>
	<rect x="1260.8" y="21" fill="#3C4042" width="3.5" height="26.5"/>
</g>
<g>
	<rect x="1237.8" y="55.3" fill="#3C4042" width="3.5" height="3.7"/>
</g>
<g>
	<rect x="1237.8" y="31.5" fill="#3C4042" width="3.5" height="16"/>
</g>
<g>
	<rect x="1243" y="13.2" fill="#3C4042" width="3.5" height="23.6"/>
</g>
<g>
	<rect x="1234.5" y="17.3" fill="#3C4042" width="9.8" height="3.5"/>
</g>
<g>
	<rect x="1234.5" y="29.3" fill="#3C4042" width="9.8" height="3.5"/>
</g>
<g>
	<rect x="1234.5" y="23.3" fill="#3C4042" width="9.8" height="3.5"/>
</g>
<g>
	<path fill="#3C4042" d="M1182.5,13.2h-3.5V7.4c0-1,0.8-1.8,1.8-1.8h11.2c1,0,1.8,0.8,1.8,1.8V13h-3.5V9.2h-7.8V13.2z"/>
</g>
<g>
	<path fill="#3C4042" d="M1182.5,47.2h-3.5v-5.7c0-1,0.8-1.8,1.8-1.8h11.2c1,0,1.8,0.8,1.8,1.8V47h-3.5v-3.8h-7.8V47.2z"/>
</g>
<g>
	<path fill="#3C4042" d="M1186.2,35.6V24.2h3.6c1.3,0,2.3,0.3,3,0.9c0.7,0.6,1,1.4,1,2.3c0,1.4-0.7,2.2-2.1,2.3
		c0.8,0.1,1.4,0.4,1.8,0.8c0.4,0.4,0.6,1,0.6,1.8c0,1-0.3,1.8-0.9,2.4c-0.6,0.6-1.5,0.9-2.5,0.9H1186.2z M1189.3,28.5h0.2
		c0.4,0,0.7-0.1,0.9-0.3c0.2-0.2,0.3-0.4,0.3-0.7c0-0.7-0.4-1-1.1-1c0,0-0.1,0-0.1,0c-0.1,0-0.1,0-0.2,0V28.5z M1189.3,33.2
		c0.1,0,0.1,0,0.2,0c0,0,0.1,0,0.1,0c0.4,0,0.7-0.1,0.9-0.3c0.2-0.2,0.3-0.5,0.3-0.8c0-0.3-0.1-0.6-0.3-0.8
		c-0.2-0.2-0.5-0.3-0.9-0.3h-0.2V33.2z"/>
</g>
<g>
	<path fill="#3C4042" d="M1171.2,36.9h-3.5V14.2c0-1.4,1.1-2.6,2.6-2.6h33.6c1.4,0,2.6,1.1,2.6,2.6v5.9c0,1.4-1.1,2.6-2.6,2.6h-24.3
		v-3.5h23.3v-4.1h-31.8V36.9z"/>
</g>
<g>
	<path fill="#3C4042" d="M1203.9,56.8h-33.6c-1.4,0-2.6-1.1-2.6-2.6v-5.9c0-1.4,1.1-2.6,2.6-2.6h33.6c1.4,0,2.6,1.1,2.6,2.6v5.9
		C1206.5,55.6,1205.4,56.8,1203.9,56.8z M1171.2,53.2h31.8v-4.1h-31.8V53.2z"/>
</g>
<g>
	<rect x="1197.8" y="54.8" fill="#3C4042" width="3.5" height="4.2"/>
</g>
<g>
	<rect x="1195.8" y="21" fill="#3C4042" width="3.5" height="26.5"/>
</g>
<g>
	<rect x="1172.8" y="55.3" fill="#3C4042" width="3.5" height="3.7"/>
</g>
<g>
	<rect x="1172.8" y="31.5" fill="#3C4042" width="3.5" height="16"/>
</g>
<g>
	<rect x="1178" y="13.2" fill="#3C4042" width="3.5" height="23.6"/>
</g>
<g>
	<rect x="1169.5" y="17.3" fill="#3C4042" width="9.8" height="3.5"/>
</g>
<g>
	<rect x="1169.5" y="29.3" fill="#3C4042" width="9.8" height="3.5"/>
</g>
<g>
	<rect x="1169.5" y="23.3" fill="#3C4042" width="9.8" height="3.5"/>
</g>
<g>
	<rect x="732.8" y="42.1" fill="#3C4042" width="45.5" height="3.5"/>
</g>
<g>
	<polygon fill="#3C4042" points="780.2,56.9 731,56.9 731.1,42 735.3,19.1 743.2,19.1 743.2,22.6 738.2,22.6 734.5,42.5 734.5,53.4 
		776.7,53.4 776.7,42.7 772.9,22.6 768.6,22.6 768.6,19.1 775.9,19.1 780.2,42.5 	"/>
</g>
<g>
	<rect x="751" y="19.1" fill="#3C4042" width="9.2" height="3.5"/>
</g>
<g>
	<g>
		<path fill="#3C4042" d="M751.1,26.4h-8c-1,0-1.8-0.8-1.8-1.8v-7.5c0-1,0.8-1.8,1.8-1.8h8c1,0,1.8,0.8,1.8,1.8v7.5
			C752.8,25.6,752.1,26.4,751.1,26.4z M744.9,22.9h4.5v-4h-4.5V22.9z"/>
	</g>
	<g>
		<path fill="#3C4042" d="M768.1,26.4h-8c-1,0-1.8-0.8-1.8-1.8v-7.5c0-1,0.8-1.8,1.8-1.8h8c1,0,1.8,0.8,1.8,1.8v7.5
			C769.8,25.6,769.1,26.4,768.1,26.4z M761.9,22.9h4.5v-4h-4.5V22.9z"/>
	</g>
</g>
<g>
	<g>
		<rect x="733.9" y="55.3" fill="#3C4042" width="3.5" height="3.7"/>
	</g>
	<g>
		<rect x="773.9" y="55.3" fill="#3C4042" width="3.5" height="3.7"/>
	</g>
</g>
<g>
	<path fill="#3C4042" d="M752.6,38.9v-3.6c0.6,0.8,1.3,1.3,2,1.3c0.3,0,0.5-0.1,0.7-0.2c0.2-0.1,0.3-0.3,0.3-0.5
		c0-0.3-0.2-0.6-0.6-0.9l-0.5-0.4c-0.3-0.2-0.6-0.5-0.9-0.7c-0.2-0.2-0.4-0.5-0.6-0.8c-0.1-0.3-0.3-0.5-0.3-0.8
		c-0.1-0.3-0.1-0.6-0.1-0.9c0-0.5,0.1-1.1,0.4-1.6c0.1-0.3,0.3-0.5,0.4-0.7c0.2-0.2,0.4-0.4,0.6-0.6c0.6-0.5,1.3-0.7,2.1-0.7
		c0.7,0,1.5,0.2,2.2,0.6v3.5c-0.3-0.4-0.5-0.7-0.9-0.9c-0.3-0.2-0.6-0.3-1-0.3c-0.2,0-0.4,0.1-0.6,0.2c-0.2,0.1-0.2,0.3-0.2,0.5
		c0,0.3,0.2,0.6,0.6,0.9l0.5,0.4c0.7,0.5,1.1,0.9,1.4,1.4c0.3,0.5,0.4,1,0.4,1.7c0,1.1-0.3,2-1,2.7c-0.7,0.7-1.6,1.1-2.6,1.1
		C754.2,39.4,753.5,39.3,752.6,38.9z"/>
</g>
<g>
	<path fill="#3C4042" d="M783.9,32.5h-7.4V29h5.6V12.9c0-1.9-1.5-3.4-3.4-3.4h-46.4c-1.9,0-3.4,1.5-3.4,3.4V29h6v3.5h-7.8
		c-1,0-1.8-0.8-1.8-1.8V12.9c0-3.8,3.1-6.9,6.9-6.9h46.4c3.8,0,6.9,3.1,6.9,6.9v17.9C785.7,31.7,784.9,32.5,783.9,32.5z"/>
</g>
</svg>
