<?xml version="1.0" encoding="utf-8"?>
<!-- Generator: Adobe Illustrator 18.1.1, SVG Export Plug-In . SVG Version: 6.00 Build 0)  -->
<!DOCTYPE svg PUBLIC "-//W3C//DTD SVG 1.1//EN" "http://www.w3.org/Graphics/SVG/1.1/DTD/svg11.dtd">
<svg version="1.1" id="Layer_1" xmlns="http://www.w3.org/2000/svg" xmlns:xlink="http://www.w3.org/1999/xlink" x="0px" y="0px"
	 viewBox="0 0 576 64" enable-background="new 0 0 576 64" xml:space="preserve">
<g id="location_-_map_route">
	<g>
		<path fill-rule="evenodd" clip-rule="evenodd" fill="#FFFFFF" d="M38,22c-1.1,0-2,0.9-2,2v22c0,1.1,0.9,2,2,2s2-0.9,2-2V24
			C40,22.9,39.1,22,38,22z M52,2L38,14L20,6L4,14v48l16-8l18,4l14-8l16,8V12L52,2z M64,52l-12-6l-14,8l-18-4L8,56V16l12-6l18,8L52,6
			l12,8V52z M52,40c0,1.1,0.9,2,2,2s2-0.9,2-2V14c0-1.1-0.9-2-2-2s-2,0.9-2,2V40z M22,16c-1.1,0-2,0.9-2,2v26c0,1.1,0.9,2,2,2
			s2-0.9,2-2V18C24,16.9,23.1,16,22,16z"/>
	</g>
</g>
<g id="communication_-_bubble_help_question_support">
	<g>
		<path fill-rule="evenodd" clip-rule="evenodd" fill="#FFFFFF" d="M108,0C90.3,0,76,12.5,76,28c0,8.8,4.7,16.7,12,21.8V64l16.4-8.2
			c1.2,0.1,2.4,0.2,3.6,0.2c17.7,0,32-12.5,32-28S125.7,0,108,0z M108,52c-1.8,0-3.6-0.2-5.3-0.4L104,52l-12,6V48l1.3,0.4
			C85.3,44.2,80,36.6,80,28c0-13.3,12.5-24,28-24c15.5,0,28,10.7,28,24S123.5,52,108,52z M107,39.2c-1.3,0-2.4,1.1-2.4,2.4
			c0,1.3,1.1,2.4,2.4,2.4c1.3,0,2.4-1.1,2.4-2.4C109.4,40.3,108.3,39.2,107,39.2z M107.5,14c-4.1,0-7.4,1.7-9.5,4.4l2.2,2.4
			c1.6-2.2,3.7-3.6,7-3.6c3.4,0,5.1,1.9,5.1,4.1c0,4.6-7.8,5.1-7.8,10.6c0,1.4,0.5,2.6,1.7,3.6l2.7-1.2c-0.7-0.5-1.1-1.4-1.1-2.1
			c0-4.3,8.4-4.8,8.4-11.4C116,17,112.8,14,107.5,14z"/>
	</g>
</g>
<g id="kitchen_-_fork_knife">
	<g>
		<path fill="#FFFFFF" d="M173,16h-4V0h-4v16h-4V0h-4v24c0,4.4,3.6,8,8,8v32h4V32c4.4,0,8-3.6,8-8V0h-4V16z M173,24c0,2.2-1.8,4-4,4
			h-4c-2.2,0-4-1.8-4-4v-4h12V24z M198.2,15.5C195.7,8.2,190,1.2,189,0l-4,0v64h4V36l12,0C201,36,201.5,24.8,198.2,15.5z M189,32
			V6.6c2.1,3.2,4.5,7.3,6,11.5c1.8,5.2,2.3,10.4,2.3,13.9H189z"/>
	</g>
</g>
<g id="communication_-_phone_call_1_">
	<g>
		<path fill="#FFFFFF" d="M274.6,1.1c-2.5-1.8-5.3-1.1-6.4,0.5c-0.7,1-7.8,11.7-8.6,13c-0.3,0.6-0.5,1.3-0.5,2c0,1,0.3,2.1,0.8,3.1
			c0.5,1,2.3,4.1,3.2,5.7c-0.9,1.3-3.4,4.5-8.4,9.5c-4.9,4.9-8.1,7.4-9.5,8.3c-1.5-0.9-4.7-2.6-5.7-3.2c-1.9-1-3.9-1.1-5.2-0.3
			c-1.2,0.8-11.9,7.9-12.9,8.6c-1,0.7-1.5,1.9-1.5,3.3c0,1.1,0.3,2.2,1,3.1c0.1,0.1,6.8,9.5,10.6,9.4c10.9-0.3,23.7-10.9,32.5-19.7
			c8.8-8.8,19.4-21.6,19.8-32.5v-0.1C284,7.8,274.7,1.1,274.6,1.1z M261.4,41.4C249.7,53,239.2,59.6,231.7,60
			c-1.4-0.5-5-4.2-7.6-7.6c-0.2-0.3-0.3-0.6-0.3-0.9c0-0.1,0-0.1,0-0.2c1.6-1.1,10.8-7.1,12.5-8.2c0.2,0,0.6,0.1,1.3,0.4
			c0.7,0.4,2.7,1.5,5.6,3.1l2.2,1.3l2.1-1.5c1.5-1.1,4.9-3.7,10-8.8c5.1-5.1,7.7-8.5,8.8-10l1.5-2.1l-1.3-2.2
			c-1.2-2.1-2.7-4.7-3.1-5.5c-0.4-0.7-0.4-1.1-0.4-1.3c0,0,0,0,0-0.1c1-1.5,7.2-10.8,8.3-12.5c0.2,0,0.5,0,0.9,0.3
			c3.5,2.5,7.2,6.1,7.7,7.5C279.6,19.3,273,29.8,261.4,41.4z"/>
	</g>
</g>
<g id="communication_-_bubble_chat_group_conversation_2_">
	<g>
		<path fill-rule="evenodd" clip-rule="evenodd" fill="#FFFFFF" d="M309,56v-8h-4c-3.1,0-5.8-1.8-7.1-4.3c-0.5-0.4-0.9-1-0.9-1.7
			V15.1c-2.4,2.2-4,5.4-4,8.9v16c0,6.6,5.4,12,12,12v12l15-12h9v-4h-9.3L309,56z M345,0h-32c-6.6,0-12,5.4-12,12v16
			c0,6.6,5.4,12,12,12h17l15,12l0-12h0c6.6,0,12-5.4,12-12V12C357,5.4,351.6,0,345,0z M353,28c0,4.4-3.6,8-8,8h-4v8l-10.7-8H313
			c-4.4,0-8-3.6-8-8V12c0-4.4,3.6-8,8-8h32c4.4,0,8,3.6,8,8V28z"/>
	</g>
</g>
<g id="communication_-_email_envelope_1_">
	<g>
		<path fill-rule="evenodd" clip-rule="evenodd" fill="#FFFFFF" d="M427.4,6.5c-0.5-0.5-1.1-0.6-1.7-0.6h-59.5
			c-0.6-0.1-1.2,0.1-1.7,0.6C364.2,6.9,364,7.5,364,8c0,0,0,0,0,0v48c0,1.1,0.9,2,2,2h60c1.1,0,2-0.9,2-2V8c0,0,0,0,0,0
			C428,7.5,427.8,6.9,427.4,6.5z M420.3,10L396,29.5L371.7,10H420.3z M422,54h-52c-1.1,0-2-0.9-2-2V12.1l26.4,21.1
			c0.1,0.1,0.1,0.1,0.2,0.2c0.4,0.4,0.9,0.6,1.4,0.6c0.5,0,1-0.2,1.4-0.6c0.1-0.1,0.1-0.1,0.2-0.2L424,12.1V52
			C424,53.1,423.1,54,422,54z"/>
	</g>
</g>
<g id="interface_-_like_heart_love">
	<g>
		<path fill-rule="evenodd" clip-rule="evenodd" fill="#FFFFFF" d="M482,1c-6,0-14,10-14,10s-8-10-14-10c-12.1,0-18,5.9-18,18.2
			c0,11.5,32,43.9,32,43.9s32-32.4,32-43.9C500,6.9,494.1,1,482,1z M468,57c0,0-28-27.6-28-37.3C440,9.4,443.4,5,454,5
			c3.2,0,14,10,14,10s10.8-10,14-10c10.6,0,14,4.4,14,14.7C496,29.4,468,57,468,57z"/>
	</g>
</g>
<g id="document_-_book_article">
	<g>
		<path fill-rule="evenodd" clip-rule="evenodd" fill="#FFFFFF" d="M518,30v4c0,0,2-2,6-2s8,2,8,2v-4c0,0-4.3-2-8.4-2
			C519.8,28,518,30,518,30z M518,18v4c0,0,2-2,6-2s8,2,8,2v-4c0,0-4.3-2-8.4-2C519.8,16,518,18,518,18z M548,30v4c0,0,4-2,8-2
			s6,2,6,2v-4c0,0-2.3-2-6.4-2C551.8,28,548,30,548,30z M554.1,2C546.8,2,540,6,540,6s-6.8-4-14.1-4C517.3,2,510,6,510,6v56
			c0,0,7.6-4,16.2-4c7.2,0,13.8,4,13.8,4s6.6-4,13.8-4c8.7,0,16.2,4,16.2,4V6C570,6,562.7,2,554.1,2z M566,56c0,0-4.9-2-11.8-2
			c-4.8,0-9.6,0.9-12.2,1.5V10h-2h-2v45.5c-2.6-0.6-7.4-1.5-12.2-1.5c-6.9,0-11.8,2-11.8,2V10c0,0,5-4,12-4s14,4,14,4s7-4,14-4
			s12,4,12,4V56z M548,42v4c0,0,4-2,8-2s6,2,6,2v-4c0,0-2.3-2-6.4-2C551.8,40,548,42,548,42z M548,22c0,0,4-2,8-2s6,2,6,2v-4
			c0,0-2.3-2-6.4-2c-3.9,0-7.6,2-7.6,2V22z M518,42v4c0,0,2-2,6-2s8,2,8,2v-4c0,0-4.3-2-8.4-2C519.8,40,518,42,518,42z"/>
	</g>
</g>
</svg>
