<?xml version="1.0" encoding="utf-8"?>
<!-- Generator: Adobe Illustrator 18.1.1, SVG Export Plug-In . SVG Version: 6.00 Build 0)  -->
<!DOCTYPE svg PUBLIC "-//W3C//DTD SVG 1.1//EN" "http://www.w3.org/Graphics/SVG/1.1/DTD/svg11.dtd">
<svg version="1.1" id="Layer_1" xmlns="http://www.w3.org/2000/svg" xmlns:xlink="http://www.w3.org/1999/xlink" x="0px" y="0px"
	 viewBox="0 0 950 64" enable-background="new 0 0 950 64" xml:space="preserve">
<g id="interior_-_bed">
	<g>
		<path fill-rule="evenodd" clip-rule="evenodd" fill="#3C4042" d="M60,42.6l-6.3-28.4V7.1c0-2-1.6-3.6-3.6-3.6H14.7
			c-2,0-3.6,1.6-3.6,3.6v7.1L4.8,42.6H4v14.2h3.6v3.6h3.6v-3.6h42.6v3.6h3.6v-3.6h3.6V42.6H60z M14.7,8.9c0-1,0.8-1.8,1.8-1.8h32
			c1,0,1.8,0.8,1.8,1.8v3.5c0,1-0.8,1.8-1.8,1.8h-5.3v-1.8c0-1-0.8-1.8-1.8-1.8H23.5c-1,0-1.8,0.8-1.8,1.8v1.8h-5.3
			c-1,0-1.8-0.8-1.8-1.8V8.9z M39.5,14.2v3.5H25.3v-3.5H39.5z M14.7,17.8h7.1v1.8c0,1,0.8,1.8,1.8,1.8h17.8c1,0,1.8-0.8,1.8-1.8
			v-1.8h7.1l3,10.7H11.6L14.7,17.8z M57.3,53.3H7.6v-7.1h49.7V53.3z M7.6,42.6l3.6-12.4V32h42.6v-1.8l3.6,12.4H7.6z"/>
	</g>
</g>
<g>
	<g id="interior_-_bed_2_">
		<g>
			<path fill-rule="evenodd" clip-rule="evenodd" fill="#3C4042" d="M131.4,42.6l-6.3-28.4V7.1c0-2-1.6-3.6-3.6-3.6H86
				c-2,0-3.6,1.6-3.6,3.6v7.1l-6.3,28.4h-0.8v14.2h3.6v3.6h3.6v-3.6h42.6v3.6h3.6v-3.6h3.6V42.6H131.4z M86,8.9c0-1,0.8-1.8,1.8-1.8
				h32c1,0,1.8,0.8,1.8,1.8v3.5c0,1-0.8,1.8-1.8,1.8h-5.3v-1.8c0-1-0.8-1.8-1.8-1.8H94.9c-1,0-1.8,0.8-1.8,1.8v1.8h-5.3
				c-1,0-1.8-0.8-1.8-1.8V8.9z M110.9,14.2v3.5H96.7v-3.5H110.9z M86,17.8h7.1v1.8c0,1,0.8,1.8,1.8,1.8h17.8c1,0,1.8-0.8,1.8-1.8
				v-1.8h7.1l3,10.7H83L86,17.8z M128.6,53.3H78.9v-7.1h49.7V53.3z M78.9,42.6l3.6-12.4V32h42.6v-1.8l3.6,12.4H78.9z"/>
		</g>
	</g>
	<g id="interior_-_bed_4_">
		<g>
			<path fill-rule="evenodd" clip-rule="evenodd" fill="#3C4042" d="M191.4,42.6l-6.3-28.4V7.1c0-2-1.6-3.6-3.6-3.6H146
				c-2,0-3.6,1.6-3.6,3.6v7.1l-6.3,28.4h-0.8v14.2h3.6v3.6h3.6v-3.6h42.6v3.6h3.6v-3.6h3.6V42.6H191.4z M146,8.9
				c0-1,0.8-1.8,1.8-1.8h32c1,0,1.8,0.8,1.8,1.8v3.5c0,1-0.8,1.8-1.8,1.8h-5.3v-1.8c0-1-0.8-1.8-1.8-1.8h-17.8c-1,0-1.8,0.8-1.8,1.8
				v1.8h-5.3c-1,0-1.8-0.8-1.8-1.8V8.9z M170.9,14.2v3.5h-14.2v-3.5H170.9z M146,17.8h7.1v1.8c0,1,0.8,1.8,1.8,1.8h17.8
				c1,0,1.8-0.8,1.8-1.8v-1.8h7.1l3,10.7H143L146,17.8z M188.6,53.3h-49.7v-7.1h49.7V53.3z M138.9,42.6l3.6-12.4V32h42.6v-1.8
				l3.6,12.4H138.9z"/>
		</g>
	</g>
</g>
<g>
	<g id="interior_-_bed_6_">
		<g>
			<path fill-rule="evenodd" clip-rule="evenodd" fill="#3C4042" d="M261.7,42.6l-6.3-28.4V7.1c0-2-1.6-3.6-3.6-3.6h-35.5
				c-2,0-3.6,1.6-3.6,3.6v7.1l-6.3,28.4h-0.8v14.2h3.6v3.6h3.6v-3.6h42.6v3.6h3.6v-3.6h3.6V42.6H261.7z M216.4,8.9
				c0-1,0.8-1.8,1.8-1.8h32c1,0,1.8,0.8,1.8,1.8v3.5c0,1-0.8,1.8-1.8,1.8h-5.3v-1.8c0-1-0.8-1.8-1.8-1.8h-17.8c-1,0-1.8,0.8-1.8,1.8
				v1.8h-5.3c-1,0-1.8-0.8-1.8-1.8V8.9z M241.2,14.2v3.5H227v-3.5H241.2z M216.4,17.8h7.1v1.8c0,1,0.8,1.8,1.8,1.8H243
				c1,0,1.8-0.8,1.8-1.8v-1.8h7.1l3,10.7h-41.6L216.4,17.8z M259,53.3h-49.7v-7.1H259V53.3z M209.3,42.6l3.6-12.4V32h42.6v-1.8
				l3.6,12.4H209.3z"/>
		</g>
	</g>
	<g id="interior_-_bed_8_">
		<g>
			<path fill-rule="evenodd" clip-rule="evenodd" fill="#3C4042" d="M321.7,42.6l-6.3-28.4V7.1c0-2-1.6-3.6-3.6-3.6h-35.5
				c-2,0-3.6,1.6-3.6,3.6v7.1l-6.3,28.4h-0.8v14.2h3.6v3.6h3.6v-3.6h42.6v3.6h3.6v-3.6h3.6V42.6H321.7z M276.4,8.9
				c0-1,0.8-1.8,1.8-1.8h32c1,0,1.8,0.8,1.8,1.8v3.5c0,1-0.8,1.8-1.8,1.8h-5.3v-1.8c0-1-0.8-1.8-1.8-1.8h-17.8c-1,0-1.8,0.8-1.8,1.8
				v1.8h-5.3c-1,0-1.8-0.8-1.8-1.8V8.9z M301.2,14.2v3.5H287v-3.5H301.2z M276.4,17.8h7.1v1.8c0,1,0.8,1.8,1.8,1.8H303
				c1,0,1.8-0.8,1.8-1.8v-1.8h7.1l3,10.7h-41.6L276.4,17.8z M319,53.3h-49.7v-7.1H319V53.3z M269.3,42.6l3.6-12.4V32h42.6v-1.8
				l3.6,12.4H269.3z"/>
		</g>
	</g>
	<g id="interior_-_bed_10_">
		<g>
			<path fill-rule="evenodd" clip-rule="evenodd" fill="#3C4042" d="M381.7,42.6l-6.3-28.4V7.1c0-2-1.6-3.6-3.6-3.6h-35.5
				c-2,0-3.6,1.6-3.6,3.6v7.1l-6.3,28.4h-0.8v14.2h3.6v3.6h3.6v-3.6h42.6v3.6h3.6v-3.6h3.6V42.6H381.7z M336.4,8.9
				c0-1,0.8-1.8,1.8-1.8h32c1,0,1.8,0.8,1.8,1.8v3.5c0,1-0.8,1.8-1.8,1.8h-5.3v-1.8c0-1-0.8-1.8-1.8-1.8h-17.8c-1,0-1.8,0.8-1.8,1.8
				v1.8h-5.3c-1,0-1.8-0.8-1.8-1.8V8.9z M361.2,14.2v3.5H347v-3.5H361.2z M336.4,17.8h7.1v1.8c0,1,0.8,1.8,1.8,1.8H363
				c1,0,1.8-0.8,1.8-1.8v-1.8h7.1l3,10.7h-41.6L336.4,17.8z M379,53.3h-49.7v-7.1H379V53.3z M329.3,42.6l3.6-12.4V32h42.6v-1.8
				l3.6,12.4H329.3z"/>
		</g>
	</g>
</g>
<g>
	<g id="interior_-_bed_12_">
		<g>
			<path fill-rule="evenodd" clip-rule="evenodd" fill="#3C4042" d="M454.4,42.6l-6.3-28.4V7.1c0-2-1.6-3.6-3.6-3.6H409
				c-2,0-3.6,1.6-3.6,3.6v7.1l-6.3,28.4h-0.8v14.2h3.6v3.6h3.6v-3.6h42.6v3.6h3.6v-3.6h3.6V42.6H454.4z M409,8.9
				c0-1,0.8-1.8,1.8-1.8h32c1,0,1.8,0.8,1.8,1.8v3.5c0,1-0.8,1.8-1.8,1.8h-5.3v-1.8c0-1-0.8-1.8-1.8-1.8h-17.8c-1,0-1.8,0.8-1.8,1.8
				v1.8h-5.3c-1,0-1.8-0.8-1.8-1.8V8.9z M433.9,14.2v3.5h-14.2v-3.5H433.9z M409,17.8h7.1v1.8c0,1,0.8,1.8,1.8,1.8h17.8
				c1,0,1.8-0.8,1.8-1.8v-1.8h7.1l3,10.7H406L409,17.8z M451.6,53.3h-49.7v-7.1h49.7V53.3z M401.9,42.6l3.6-12.4V32h42.6v-1.8
				l3.6,12.4H401.9z"/>
		</g>
	</g>
	<g id="interior_-_bed_14_">
		<g>
			<path fill-rule="evenodd" clip-rule="evenodd" fill="#3C4042" d="M514.4,42.6l-6.3-28.4V7.1c0-2-1.6-3.6-3.6-3.6H469
				c-2,0-3.6,1.6-3.6,3.6v7.1l-6.3,28.4h-0.8v14.2h3.6v3.6h3.6v-3.6h42.6v3.6h3.6v-3.6h3.6V42.6H514.4z M469,8.9
				c0-1,0.8-1.8,1.8-1.8h32c1,0,1.8,0.8,1.8,1.8v3.5c0,1-0.8,1.8-1.8,1.8h-5.3v-1.8c0-1-0.8-1.8-1.8-1.8h-17.8c-1,0-1.8,0.8-1.8,1.8
				v1.8h-5.3c-1,0-1.8-0.8-1.8-1.8V8.9z M493.9,14.2v3.5h-14.2v-3.5H493.9z M469,17.8h7.1v1.8c0,1,0.8,1.8,1.8,1.8h17.8
				c1,0,1.8-0.8,1.8-1.8v-1.8h7.1l3,10.7H466L469,17.8z M511.6,53.3h-49.7v-7.1h49.7V53.3z M461.9,42.6l3.6-12.4V32h42.6v-1.8
				l3.6,12.4H461.9z"/>
		</g>
	</g>
	<g id="interior_-_bed_16_">
		<g>
			<path fill-rule="evenodd" clip-rule="evenodd" fill="#3C4042" d="M574.4,42.6l-6.3-28.4V7.1c0-2-1.6-3.6-3.6-3.6H529
				c-2,0-3.6,1.6-3.6,3.6v7.1l-6.3,28.4h-0.8v14.2h3.6v3.6h3.6v-3.6h42.6v3.6h3.6v-3.6h3.6V42.6H574.4z M529,8.9
				c0-1,0.8-1.8,1.8-1.8h32c1,0,1.8,0.8,1.8,1.8v3.5c0,1-0.8,1.8-1.8,1.8h-5.3v-1.8c0-1-0.8-1.8-1.8-1.8h-17.8c-1,0-1.8,0.8-1.8,1.8
				v1.8h-5.3c-1,0-1.8-0.8-1.8-1.8V8.9z M553.9,14.2v3.5h-14.2v-3.5H553.9z M529,17.8h7.1v1.8c0,1,0.8,1.8,1.8,1.8h17.8
				c1,0,1.8-0.8,1.8-1.8v-1.8h7.1l3,10.7H526L529,17.8z M571.6,53.3h-49.7v-7.1h49.7V53.3z M521.9,42.6l3.6-12.4V32h42.6v-1.8
				l3.6,12.4H521.9z"/>
		</g>
	</g>
	<g id="interior_-_bed_18_">
		<g>
			<path fill-rule="evenodd" clip-rule="evenodd" fill="#3C4042" d="M634.4,42.6l-6.3-28.4V7.1c0-2-1.6-3.6-3.6-3.6H589
				c-2,0-3.6,1.6-3.6,3.6v7.1l-6.3,28.4h-0.8v14.2h3.6v3.6h3.6v-3.6h42.6v3.6h3.6v-3.6h3.6V42.6H634.4z M589,8.9
				c0-1,0.8-1.8,1.8-1.8h32c1,0,1.8,0.8,1.8,1.8v3.5c0,1-0.8,1.8-1.8,1.8h-5.3v-1.8c0-1-0.8-1.8-1.8-1.8h-17.8c-1,0-1.8,0.8-1.8,1.8
				v1.8h-5.3c-1,0-1.8-0.8-1.8-1.8V8.9z M613.9,14.2v3.5h-14.2v-3.5H613.9z M589,17.8h7.1v1.8c0,1,0.8,1.8,1.8,1.8h17.8
				c1,0,1.8-0.8,1.8-1.8v-1.8h7.1l3,10.7H586L589,17.8z M631.6,53.3h-49.7v-7.1h49.7V53.3z M581.9,42.6l3.6-12.4V32h42.6v-1.8
				l3.6,12.4H581.9z"/>
		</g>
	</g>
</g>
<g>
	<g id="interior_-_bed_20_">
		<g>
			<path fill-rule="evenodd" clip-rule="evenodd" fill="#3C4042" d="M705.4,42.6l-6.3-28.4V7.1c0-2-1.6-3.6-3.6-3.6H660
				c-2,0-3.6,1.6-3.6,3.6v7.1l-6.3,28.4h-0.8v14.2h3.6v3.6h3.6v-3.6h42.6v3.6h3.6v-3.6h3.6V42.6H705.4z M660,8.9
				c0-1,0.8-1.8,1.8-1.8h32c1,0,1.8,0.8,1.8,1.8v3.5c0,1-0.8,1.8-1.8,1.8h-5.3v-1.8c0-1-0.8-1.8-1.8-1.8h-17.8c-1,0-1.8,0.8-1.8,1.8
				v1.8h-5.3c-1,0-1.8-0.8-1.8-1.8V8.9z M684.9,14.2v3.5h-14.2v-3.5H684.9z M660,17.8h7.1v1.8c0,1,0.8,1.8,1.8,1.8h17.8
				c1,0,1.8-0.8,1.8-1.8v-1.8h7.1l3,10.7H657L660,17.8z M702.6,53.3h-49.7v-7.1h49.7V53.3z M652.9,42.6l3.6-12.4V32h42.6v-1.8
				l3.6,12.4H652.9z"/>
		</g>
	</g>
	<g id="interior_-_bed_22_">
		<g>
			<path fill-rule="evenodd" clip-rule="evenodd" fill="#3C4042" d="M765.4,42.6l-6.3-28.4V7.1c0-2-1.6-3.6-3.6-3.6H720
				c-2,0-3.6,1.6-3.6,3.6v7.1l-6.3,28.4h-0.8v14.2h3.6v3.6h3.6v-3.6h42.6v3.6h3.6v-3.6h3.6V42.6H765.4z M720,8.9
				c0-1,0.8-1.8,1.8-1.8h32c1,0,1.8,0.8,1.8,1.8v3.5c0,1-0.8,1.8-1.8,1.8h-5.3v-1.8c0-1-0.8-1.8-1.8-1.8h-17.8c-1,0-1.8,0.8-1.8,1.8
				v1.8h-5.3c-1,0-1.8-0.8-1.8-1.8V8.9z M744.9,14.2v3.5h-14.2v-3.5H744.9z M720,17.8h7.1v1.8c0,1,0.8,1.8,1.8,1.8h17.8
				c1,0,1.8-0.8,1.8-1.8v-1.8h7.1l3,10.7H717L720,17.8z M762.6,53.3h-49.7v-7.1h49.7V53.3z M712.9,42.6l3.6-12.4V32h42.6v-1.8
				l3.6,12.4H712.9z"/>
		</g>
	</g>
	<g id="interior_-_bed_24_">
		<g>
			<path fill-rule="evenodd" clip-rule="evenodd" fill="#3C4042" d="M825.4,42.6l-6.3-28.4V7.1c0-2-1.6-3.6-3.6-3.6H780
				c-2,0-3.6,1.6-3.6,3.6v7.1l-6.3,28.4h-0.8v14.2h3.6v3.6h3.6v-3.6h42.6v3.6h3.6v-3.6h3.6V42.6H825.4z M780,8.9
				c0-1,0.8-1.8,1.8-1.8h32c1,0,1.8,0.8,1.8,1.8v3.5c0,1-0.8,1.8-1.8,1.8h-5.3v-1.8c0-1-0.8-1.8-1.8-1.8h-17.8c-1,0-1.8,0.8-1.8,1.8
				v1.8h-5.3c-1,0-1.8-0.8-1.8-1.8V8.9z M804.9,14.2v3.5h-14.2v-3.5H804.9z M780,17.8h7.1v1.8c0,1,0.8,1.8,1.8,1.8h17.8
				c1,0,1.8-0.8,1.8-1.8v-1.8h7.1l3,10.7H777L780,17.8z M822.6,53.3h-49.7v-7.1h49.7V53.3z M772.9,42.6l3.6-12.4V32h42.6v-1.8
				l3.6,12.4H772.9z"/>
		</g>
	</g>
	<g id="interior_-_bed_26_">
		<g>
			<path fill-rule="evenodd" clip-rule="evenodd" fill="#3C4042" d="M885.4,42.6l-6.3-28.4V7.1c0-2-1.6-3.6-3.6-3.6H840
				c-2,0-3.6,1.6-3.6,3.6v7.1l-6.3,28.4h-0.8v14.2h3.6v3.6h3.6v-3.6h42.6v3.6h3.6v-3.6h3.6V42.6H885.4z M840,8.9
				c0-1,0.8-1.8,1.8-1.8h32c1,0,1.8,0.8,1.8,1.8v3.5c0,1-0.8,1.8-1.8,1.8h-5.3v-1.8c0-1-0.8-1.8-1.8-1.8h-17.8c-1,0-1.8,0.8-1.8,1.8
				v1.8h-5.3c-1,0-1.8-0.8-1.8-1.8V8.9z M864.9,14.2v3.5h-14.2v-3.5H864.9z M840,17.8h7.1v1.8c0,1,0.8,1.8,1.8,1.8h17.8
				c1,0,1.8-0.8,1.8-1.8v-1.8h7.1l3,10.7H837L840,17.8z M882.6,53.3h-49.7v-7.1h49.7V53.3z M832.9,42.6l3.6-12.4V32h42.6v-1.8
				l3.6,12.4H832.9z"/>
		</g>
	</g>
	<g id="interior_-_bed_28_">
		<g>
			<path fill-rule="evenodd" clip-rule="evenodd" fill="#3C4042" d="M945.4,42.6l-6.3-28.4V7.1c0-2-1.6-3.6-3.6-3.6H900
				c-2,0-3.6,1.6-3.6,3.6v7.1l-6.3,28.4h-0.8v14.2h3.6v3.6h3.6v-3.6h42.6v3.6h3.6v-3.6h3.6V42.6H945.4z M900,8.9
				c0-1,0.8-1.8,1.8-1.8h32c1,0,1.8,0.8,1.8,1.8v3.5c0,1-0.8,1.8-1.8,1.8h-5.3v-1.8c0-1-0.8-1.8-1.8-1.8h-17.8c-1,0-1.8,0.8-1.8,1.8
				v1.8h-5.3c-1,0-1.8-0.8-1.8-1.8V8.9z M924.9,14.2v3.5h-14.2v-3.5H924.9z M900,17.8h7.1v1.8c0,1,0.8,1.8,1.8,1.8h17.8
				c1,0,1.8-0.8,1.8-1.8v-1.8h7.1l3,10.7H897L900,17.8z M942.6,53.3h-49.7v-7.1h49.7V53.3z M892.9,42.6l3.6-12.4V32h42.6v-1.8
				l3.6,12.4H892.9z"/>
		</g>
	</g>
</g>
</svg>
