<?xml version="1.0" encoding="utf-8"?>
<!-- Generator: Adobe Illustrator 18.1.1, SVG Export Plug-In . SVG Version: 6.00 Build 0)  -->
<!DOCTYPE svg PUBLIC "-//W3C//DTD SVG 1.1//EN" "http://www.w3.org/Graphics/SVG/1.1/DTD/svg11.dtd">
<svg version="1.1" id="Layer_1" xmlns="http://www.w3.org/2000/svg" xmlns:xlink="http://www.w3.org/1999/xlink" x="0px" y="0px"
	 viewBox="0 0 1000 700" enable-background="new 0 0 1000 700" xml:space="preserve">
<g id="web_-_share_network_2_">
	<g>
		<path fill="#FFFFFF" d="M170,59c-3.5,0-6.6,1.8-8.4,4.6l-21.7-9c0.1-0.5,0.1-1,0.1-1.6c0-0.3,0-0.6,0-0.9l21.7-9.6
			c1.8,2.7,4.9,4.5,8.4,4.5c5.5,0,10-4.5,10-10s-4.5-10-10-10s-10,4.5-10,10c0,0.6,0.1,1.2,0.2,1.7l-21.4,9.5
			c-1.7-3.1-5-5.2-8.8-5.2c-5.5,0-10,4.5-10,10s4.5,10,10,10c3.5,0,6.6-1.8,8.4-4.6l21.7,9c-0.1,0.5-0.1,1-0.1,1.6
			c0,5.5,4.5,10,10,10s10-4.5,10-10C180,63.5,175.5,59,170,59z M170,31c3.3,0,6,2.7,6,6s-2.7,6-6,6s-6-2.7-6-6S166.7,31,170,31z
			 M130,59c-3.3,0-6-2.7-6-6s2.7-6,6-6s6,2.7,6,6S133.3,59,130,59z M170,75c-3.3,0-6-2.7-6-6c0-3.3,2.7-6,6-6s6,2.7,6,6
			C176,72.3,173.3,75,170,75z"/>
	</g>
</g>
<g id="Bath_2_">
	<g>
		<path fill="#3C4042" d="M11.2,139.3h79.2c1,0,1.8-0.9,1.8-1.8l0,0V130c0-6.3-5.1-11.4-11.4-11.4s-11.4,5.1-11.4,11.4h3.8
			c0-4.1,3.4-7.5,7.5-7.5s7.5,3.4,7.5,7.5v5.7H11.1c-1,0-1.8,0.9-1.8,1.8C9.2,138.5,10.1,139.3,11.2,139.3z M9.2,146.9L9.2,146.9
			c0,0.6,0,1.3,0,1.8c0,12.7,9.5,23.2,21.3,26.9l-2.7,2.7l2.7,2.7l4.4-4.4c0.9,0.1,1.7,0.3,2.6,0.3H64c0.9,0,1.7-0.1,2.6-0.3
			l4.4,4.4l2.7-2.7l-2.7-2.7c11.8-3.7,21.3-14.2,21.3-26.9c0-0.6,0-1.3-0.1-1.8h0.1V143h-83V146.9z M13.2,146.9h75.2
			c0,0.6,0.1,1.3,0.1,1.8c0,12.9-11.7,23.5-24.5,24.5c-0.7,0-12.7,0.1-13.4,0.1s-12.7,0-13.4-0.1c-12.8-1-24.3-11.5-24.3-24.5
			C13.1,148.2,13.1,147.5,13.2,146.9z"/>
	</g>
</g>
<g>
	<g>
		<path fill="#3C4042" d="M149.1,168.1c-1.2,0-2.3,1.1-2.3,2.3V184c0,1.2,1.1,2.3,2.3,2.3c1.2,0,2.3-1.1,2.3-2.3v-13.7
			C151.4,169,150.3,168.1,149.1,168.1z M140,168.1c-1.2,0-2.3,1.1-2.3,2.3v9.1c0,1.2,1.1,2.3,2.3,2.3c1.2,0,2.3-1.1,2.3-2.3v-9.1
			C142.3,169,141.2,168.1,140,168.1z M153.7,129.5h-2.3V114c0-0.3-0.9-0.5-2.3-0.5c-1.2,0-2.3,0.3-2.3,0.5v15.4h-2.3
			c-10,0-15.8,8.1-15.8,18.1v15.8h40.9v-15.8C169.5,137.6,163.7,129.5,153.7,129.5z M164.9,159h-31.8v-11.4
			c0-7.6,3.8-13.7,11.4-13.7h9.1c7.6,0,11.4,6.1,11.4,13.7L164.9,159L164.9,159z M158.1,168.1c-1.2,0-2.3,1.1-2.3,2.3v9.1
			c0,1.2,1.1,2.3,2.3,2.3s2.3-1.1,2.3-2.3v-9.1C160.4,169,159.3,168.1,158.1,168.1z"/>
	</g>
</g>
<g>
	<g id="food_-_bowl_soup_3_">
		<g>
			<path fill="#3C4042" d="M276.1,150.2c0-5.7-12.3-10.3-27.4-10.3s-27.4,4.6-27.4,10.3c0,0.2,0,0.4,0,0.5c0,0.4,0,0.8,0,1.1
				c0,15.1,12.3,27.4,27.4,27.4s27.4-12.3,27.4-27.4c0-0.4,0-0.8,0-1.1C276.1,150.6,276.1,150.4,276.1,150.2z M248.7,175.9
				c-12.1,0-22.1-8.9-23.7-20.5c4.7,3.1,13.6,5.1,23.7,5.1s19-2,23.7-5.1C270.8,166.9,260.8,175.9,248.7,175.9z M248.7,157
				c-13.3,0-24-3.1-24-6.8s10.7-6.8,24-6.8c13.3,0,24,3.1,24,6.8S262,157,248.7,157z"/>
		</g>
	</g>
	<path fill="#3C4042" d="M246.7,133.3c0-5.7,4.6-10.3,10.3-10.3c5.7,0,10.3,4.6,10.3,10.3v10.3h-3.5v-10.3c0-3.8-3.1-6.8-6.8-6.8
		s-6.8,3.1-6.8,6.8H246.7z"/>
	<path fill="#3C4042" d="M223.9,155.1l-1.4-3.2c1-0.5,26.1-11.2,50.9,0l-1.4,3.2C248.5,144.4,224.2,155,223.9,155.1z"/>
</g>
<g>
	<g>
		<path fill="#3C4042" d="M388.2,176.9h-74.7c-1.2,0-2.1-0.9-2.1-2.1v-15c0-0.1,0-0.4,0.1-0.5l6.5-26V124c0-0.6,0.2-1.1,0.6-1.4
			c0.4-0.4,0.9-0.6,1.4-0.6h61.7c1.2,0,2.1,0.9,2.1,2.1v9.5l6.6,26c0,0.1,0.1,0.4,0.1,0.5v14.7C390.2,176,389.3,176.9,388.2,176.9z
			 M315.5,172.8h70.6v-12.6l-6.6-26c0-0.1-0.1-0.4-0.1-0.5v-7.6h-57.6v7.4c0,0.1,0,0.4-0.1,0.5l-6.5,26v12.8H315.5z"/>
	</g>
</g>
<g>
	<g>
		<rect x="313.6" y="159.6" fill="#3C4042" width="74.6" height="4.1"/>
	</g>
</g>
<g>
	<g>
		<rect x="371.5" y="132.6" fill="#3C4042" width="10" height="4.1"/>
	</g>
</g>
<g>
	<g>
		<rect x="343.3" y="132.6" fill="#3C4042" width="15.2" height="4.1"/>
	</g>
</g>
<g>
	<g>
		<rect x="319.9" y="132.6" fill="#3C4042" width="10.6" height="4.1"/>
	</g>
</g>
<g>
	<g>
		<g>
			<path fill="#3C4042" d="M343.4,141.2h-13.1c-1.2,0-2.1-0.9-2.1-2.1v-8.8c0-1.2,0.9-2.1,2.1-2.1h13.1c1.2,0,2.1,0.9,2.1,2.1v8.8
				C345.5,140.3,344.6,141.2,343.4,141.2z M332.3,137.1h9.1v-4.7h-9.1V137.1z"/>
		</g>
	</g>
	<g>
		<g>
			<path fill="#3C4042" d="M371.3,141.2h-13.1c-1.2,0-2.1-0.9-2.1-2.1v-8.8c0-1.2,0.9-2.1,2.1-2.1h13.1c1.2,0,2.1,0.9,2.1,2.1v8.8
				C373.4,140.3,372.5,141.2,371.3,141.2z M360.2,137.1h9.1v-4.7h-9.1V137.1z"/>
		</g>
	</g>
</g>
<g>
	<g>
		<g>
			<rect x="314.8" y="175.1" fill="#3C4042" width="4.1" height="4.3"/>
		</g>
	</g>
	<g>
		<g>
			<rect x="382.8" y="175.1" fill="#3C4042" width="4.1" height="4.3"/>
		</g>
	</g>
</g>
<g>
	<path fill="#3C4042" d="M347.7,153l-0.2,4c-0.9,0.4-1.6,0.5-2.5,0.5c-1.6,0-3-0.6-4.2-1.8c-1.3-1.3-1.9-3.2-1.9-5.6
		c0-2.2,0.6-4.1,1.8-5.5c1.2-1.4,2.8-2,4.8-2c0.7,0,1.3,0.1,2,0.4v4.1c-0.6-0.6-1.2-0.9-1.9-0.9c-0.8,0-1.5,0.4-1.9,1.1
		c-0.5,0.7-0.7,1.6-0.7,2.9c0,0.6,0,1.2,0.1,1.6c0.1,0.5,0.2,0.8,0.5,1.2c0.2,0.4,0.5,0.6,0.8,0.7c0.4,0.1,0.7,0.2,1.1,0.2
		C346.3,154,347,153.6,347.7,153z"/>
	<path fill="#3C4042" d="M360.5,157.5h-4.3l-2.7-6.9l0.1,6.9h-4v-14.9h4l-0.1,6.5l2.3-6.5h4.2l-3.2,7.2L360.5,157.5z"/>
</g>
<g>
	<g>
		<path fill="#3C4042" d="M754.9,142.5h-9.4c-1.2,0-2.1-0.9-2.1-2.1v-8.8c0-1.2,0.9-2.1,2.1-2.1h9.4c1.2,0,2.1,0.9,2.1,2.1v8.8
			C757,141.7,756,142.5,754.9,142.5z M747.6,138.4h5.3v-4.7h-5.3V138.4z"/>
	</g>
	<g>
		<path fill="#3C4042" d="M746.3,157.9v-4.2c0.7,0.9,1.5,1.5,2.3,1.5c0.4,0,0.6-0.1,0.8-0.2c0.2-0.1,0.4-0.4,0.4-0.6
			c0-0.4-0.2-0.7-0.7-1.1l-0.6-0.5c-0.4-0.2-0.7-0.6-1.1-0.8c-0.2-0.2-0.5-0.6-0.7-0.9c-0.1-0.4-0.4-0.6-0.4-0.9
			c-0.1-0.4-0.1-0.7-0.1-1.1c0-0.6,0.1-1.3,0.5-1.9c0.1-0.4,0.4-0.6,0.5-0.8c0.2-0.2,0.5-0.5,0.7-0.7c0.7-0.6,1.5-0.8,2.5-0.8
			c0.8,0,1.8,0.2,2.6,0.7v4.1c-0.4-0.5-0.6-0.8-1.1-1.1c-0.5-0.2-0.7-0.4-1.2-0.4c-0.2,0-0.5,0.1-0.7,0.2c-0.2,0.1-0.2,0.4-0.2,0.6
			c0,0.4,0.2,0.7,0.7,1.1l0.6,0.5c0.8,0.6,1.3,1.1,1.6,1.6c0.4,0.6,0.5,1.2,0.5,2c0,1.3-0.4,2.3-1.2,3.2c-0.8,0.8-1.9,1.3-3,1.3
			C748.2,158.5,747.2,158.2,746.3,157.9z"/>
	</g>
	<g>
		<rect x="728.7" y="160.5" fill="#3C4042" width="42.9" height="4.1"/>
	</g>
	<g>
		<polygon fill="#3C4042" points="773.8,177.6 726.7,177.6 726.7,160.5 730.7,134 746.7,134 746.7,138.1 734.2,138.1 730.8,160.9 
			730.8,173.5 769.6,173.5 769.6,161.2 766.1,138.1 755.1,138.1 755.1,134 769.8,134 773.8,160.9 		"/>
	</g>
	<g>
		<g>
			<rect x="729.3" y="175.7" fill="#3C4042" width="4.1" height="4.3"/>
		</g>
		<g>
			<rect x="767.1" y="175.7" fill="#3C4042" width="4.1" height="4.3"/>
		</g>
	</g>
	<g>
		<path fill="#3C4042" d="M778.8,149.4H770v-4.1h6.8v-18.5c0-2.1-1.3-3.9-2.8-3.9h-47.5c-1.5,0-2.8,1.8-2.8,3.9v18.5h7.2v4.1h-9.3
			c-1.2,0-2.1-0.9-2.1-2.1v-20.5c0-4.3,3-8,6.9-8h47.5c3.8,0,6.9,3.5,6.9,8v20.6C780.9,148.6,780,149.4,778.8,149.4z"/>
	</g>
</g>
<g>
	<g>
		<path fill="#3C4042" d="M842.8,138.7h-13.1c-1.2,0-2.1-0.9-2.1-2.1v-8.8c0-1.2,0.9-2.1,2.1-2.1h13.1c1.2,0,2.1,0.9,2.1,2.1v8.8
			C844.9,137.7,843.9,138.7,842.8,138.7z M831.6,134.5h9.1v-4.7h-9.1V134.5z"/>
	</g>
	<g>
		<path fill="#3C4042" d="M870.7,138.7h-13.1c-1.2,0-2.1-0.9-2.1-2.1v-8.8c0-1.2,0.9-2.1,2.1-2.1h13.1c1.2,0,2.1,0.9,2.1,2.1v8.8
			C872.8,137.7,871.9,138.7,870.7,138.7z M859.5,134.5h9.1v-4.7h-9.1V134.5z"/>
	</g>
</g>
<g>
	<g>
		<path fill="#3C4042" d="M884.5,177.6h-68.6c-1.2,0-2.1-0.9-2.1-2.1v-16.2c0-0.1,0-0.2,0-0.5l5.9-28.2v-10c0-0.6,0.2-1.1,0.6-1.4
			c0.4-0.4,0.9-0.6,1.4-0.6h56.7c1.2,0,2.1,0.9,2.1,2.1V131l6,28.2c0,0.1,0,0.2,0,0.5v16C886.5,176.7,885.6,177.6,884.5,177.6z
			 M817.9,173.5h64.5v-13.7l-6-28.2c0-0.1,0-0.2,0-0.5v-8.3h-52.6v8.1c0,0.1,0,0.2,0,0.5l-5.9,28.2v14H817.9z"/>
	</g>
	<g>
		<rect x="815.9" y="159.2" fill="#3C4042" width="68.5" height="4.1"/>
	</g>
	<g>
		<rect x="871" y="130.2" fill="#3C4042" width="7.4" height="4.1"/>
	</g>
	<g>
		<rect x="842.7" y="130.2" fill="#3C4042" width="15" height="4.1"/>
	</g>
	<g>
		<rect x="821.8" y="130.2" fill="#3C4042" width="7.6" height="4.1"/>
	</g>
	<g>
		<g>
			<rect x="816.8" y="175.7" fill="#3C4042" width="4.1" height="4.7"/>
		</g>
		<g>
			<rect x="879.4" y="175.7" fill="#3C4042" width="4.1" height="4.7"/>
		</g>
	</g>
</g>
<g>
	<path fill="#3C4042" d="M836,155.9h-3.9V145H830v-3.4h8.2v3.4H836V155.9z"/>
</g>
<g>
	<path fill="#3C4042" d="M867.5,155.9h-3.9V145h-2.1v-3.4h8.2v3.4h-2.2V155.9z"/>
</g>
<path fill="#3C4042" d="M851,124.9h-1.8c-0.6,0-1.2-0.5-1.2-1.2V123c0-0.7,0.6-1.2,1.2-1.2h1.8c0.6,0,1.2,0.5,1.2,1.2v0.7
	C852.2,124.3,851.6,124.9,851,124.9z"/>
<path fill="#3C4042" d="M851,129.6h-1.8c-0.6,0-1.2-0.6-1.2-1.2v-0.7c0-0.7,0.6-1.2,1.2-1.2h1.8c0.6,0,1.2,0.5,1.2,1.2v0.7
	C852.2,129,851.6,129.6,851,129.6z"/>
<path fill="#3C4042" d="M851,138.5h-1.8c-0.6,0-1.2-0.6-1.2-1.2v-0.7c0-0.7,0.6-1.2,1.2-1.2h1.8c0.6,0,1.2,0.5,1.2,1.2v0.7
	C852.2,137.9,851.6,138.5,851,138.5z"/>
<path fill="#3C4042" d="M851,145.2h-1.8c-0.6,0-1.2-0.5-1.2-1.2v-0.7c0-0.6,0.6-1.2,1.2-1.2h1.8c0.6,0,1.2,0.6,1.2,1.2v0.7
	C852.2,144.6,851.6,145.2,851,145.2z"/>
<path fill="#3C4042" d="M851,151.8h-1.8c-0.6,0-1.2-0.6-1.2-1.2v-0.7c0-0.7,0.6-1.2,1.2-1.2h1.8c0.6,0,1.2,0.5,1.2,1.2v0.7
	C852.2,151.3,851.6,151.8,851,151.8z"/>
<path fill="#3C4042" d="M851,158.5h-1.8c-0.6,0-1.2-0.5-1.2-1.2v-0.7c0-0.6,0.6-1.2,1.2-1.2h1.8c0.6,0,1.2,0.6,1.2,1.2v0.7
	C852.2,158,851.6,158.5,851,158.5z"/>
<path fill="#3C4042" d="M851,167.5h-1.8c-0.6,0-1.2-0.5-1.2-1.2v-0.7c0-0.6,0.6-1.2,1.2-1.2h1.8c0.6,0,1.2,0.6,1.2,1.2v0.7
	C852.2,166.9,851.6,167.5,851,167.5z"/>
<path fill="#3C4042" d="M851,172.2h-1.8c-0.6,0-1.2-0.6-1.2-1.2v-0.7c0-0.7,0.6-1.2,1.2-1.2h1.8c0.6,0,1.2,0.5,1.2,1.2v0.7
	C852.2,171.6,851.6,172.2,851,172.2z"/>
<g>
	<path fill="#3C4042" d="M957.4,136.5h-13.1c-1.2,0-2.1-0.9-2.1-2.1v-8.8c0-1.2,0.9-2.1,2.1-2.1h13.1c1.2,0,2.1,0.9,2.1,2.1v8.8
		C959.5,135.5,958.6,136.5,957.4,136.5z M946.3,132.4h9.1v-4.7h-9.1V132.4z"/>
</g>
<g>
	<g>
		<path fill="#3C4042" d="M972.5,176h-43.4c-1.2,0-2.1-0.9-2.1-2.1v-16.4c0-0.1,0-0.2,0-0.2l3.8-28.7v-10.2c0-0.6,0.2-1.1,0.6-1.4
			c0.4-0.4,0.9-0.6,1.4-0.6h35.8c1.2,0,2.1,0.9,2.1,2.1v10.4l3.8,28.7c0,0.1,0,0.2,0,0.2V174C974.5,175.1,973.6,176,972.5,176z
			 M931.2,171.9h39.3v-14.1l-3.8-28.7c0-0.1,0-0.2,0-0.2v-8.6h-31.7v8.3c0,0.1,0,0.2,0,0.2l-3.8,28.7v14.3H931.2z"/>
	</g>
	<g>
		<rect x="929.2" y="157.4" fill="#3C4042" width="43.3" height="4.1"/>
	</g>
	<g>
		<rect x="958" y="127.9" fill="#3C4042" width="10.7" height="4.1"/>
	</g>
	<g>
		<rect x="932.9" y="127.9" fill="#3C4042" width="11.6" height="4.1"/>
	</g>
	<g>
		<g>
			<rect x="929" y="174.1" fill="#3C4042" width="4.1" height="4.8"/>
		</g>
		<g>
			<rect x="968.5" y="174.1" fill="#3C4042" width="4.1" height="4.8"/>
		</g>
	</g>
</g>
<g>
	<path fill="#3C4042" d="M952.7,154.2h-3.9v-10.9h-2.1v-3.4h8.2v3.4h-2.2L952.7,154.2L952.7,154.2z"/>
</g>
<g>
	<g>
		<path fill="#3C4042" d="M446.4,140.2h-13.1c-1.2,0-2.1-0.9-2.1-2.1v-8.8c0-1.2,0.9-2.1,2.1-2.1h13.1c1.2,0,2.1,0.9,2.1,2.1v8.8
			C448.5,139.2,447.6,140.2,446.4,140.2z M435.3,136.1h9.1v-4.7h-9.1V136.1z"/>
	</g>
	<g>
		<path fill="#3C4042" d="M470.8,140.2h-13.1c-1.2,0-2.1-0.9-2.1-2.1v-8.8c0-1.2,0.9-2.1,2.1-2.1h13.1c1.2,0,2.1,0.9,2.1,2.1v8.8
			C472.9,139.2,472,140.2,470.8,140.2z M459.7,136.1h9.1v-4.7h-9.1V136.1z"/>
	</g>
</g>
<g>
	<path fill="#3C4042" d="M486.2,179.4h-68.4c-1.2,0-2-0.9-2-2v-16.3c0-0.1,0-0.2,0-0.5l5.9-28.4v-10.1c0-0.6,0.2-1.1,0.6-1.4
		s0.9-0.6,1.4-0.6h56.4c1.2,0,2,0.9,2,2v10.3l6,28.4c0,0.1,0,0.2,0,0.5v16.1C488.3,178.4,487.3,179.4,486.2,179.4z M419.9,175.3
		h64.3v-13.7l-6-28.4c0-0.1,0-0.2,0-0.5v-8.6h-52.3v8.2c0,0.1,0,0.2,0,0.5l-5.9,28.5v14H419.9z"/>
</g>
<g>
	<rect x="418" y="160.9" fill="#3C4042" width="68.3" height="4.1"/>
</g>
<g>
	<rect x="470.9" y="131.6" fill="#3C4042" width="9.3" height="4.1"/>
</g>
<g>
	<rect x="446.3" y="131.6" fill="#3C4042" width="11.3" height="4.1"/>
</g>
<g>
	<rect x="423.8" y="131.6" fill="#3C4042" width="9.7" height="4.1"/>
</g>
<g>
	<g>
		<rect x="418.8" y="177.5" fill="#3C4042" width="4.1" height="4.8"/>
	</g>
	<g>
		<rect x="481.1" y="177.5" fill="#3C4042" width="4.1" height="4.8"/>
	</g>
</g>
<g>
	<path fill="#3C4042" d="M456.8,157.1H453l-2.3-6.2l0.1,6.2h-3.6v-13.4h3.6l-0.1,5.7l2.1-5.7h3.8l-2.9,6.5L456.8,157.1z"/>
</g>
<g>
	<g>
		<path fill="#3C4042" d="M545,139.4h-13.1c-1.2,0-2.1-0.9-2.1-2.1v-8.8c0-1.2,0.9-2.1,2.1-2.1H545c1.2,0,2.1,0.9,2.1,2.1v8.8
			C547,138.5,546.1,139.4,545,139.4z M533.8,135.3h9.1v-4.7h-9.1V135.3z"/>
	</g>
	<g>
		<path fill="#3C4042" d="M567,139.4h-13.3c-1.2,0-2.1-0.9-2.1-2.1v-8.8c0-1.2,0.9-2.1,2.1-2.1h13.1c1.2,0,2.1,0.9,2.1,2.1v8.8
			C569,138.5,568.1,139.4,567,139.4z M555.9,135.3h9.1v-4.7h-9.1V135.3z"/>
	</g>
</g>
<g>
	<path fill="#3C4042" d="M580.3,180.4h-61.8c-1.2,0-2.1-0.9-2.1-2.1v-16.9c0-0.1,0-0.2,0-0.4l5.3-29.4v-10.4c0-0.6,0.2-1.1,0.6-1.4
		c0.4-0.4,0.9-0.6,1.4-0.6h51c1.2,0,2.1,0.9,2.1,2.1V132l5.4,29.4c0,0.1,0,0.2,0,0.4v16.7C582.4,179.4,581.5,180.4,580.3,180.4z
		 M520.5,176.3h57.7v-14.4l-5.4-29.4c0-0.1,0-0.2,0-0.4v-8.9h-46.9v8.6c0,0.1,0,0.2,0,0.4l-5.3,29.4v14.8H520.5z"/>
</g>
<g>
	<rect x="518.6" y="161.4" fill="#3C4042" width="61.7" height="4.1"/>
</g>
<g>
	<rect x="567.4" y="131" fill="#3C4042" width="7.5" height="4.1"/>
</g>
<g>
	<rect x="544.7" y="131" fill="#3C4042" width="8.9" height="4.1"/>
</g>
<g>
	<rect x="523.7" y="131" fill="#3C4042" width="8.7" height="4.1"/>
</g>
<g>
	<g>
		<rect x="519.2" y="178.5" fill="#3C4042" width="4.1" height="4.9"/>
	</g>
	<g>
		<rect x="575.5" y="178.5" fill="#3C4042" width="4.1" height="4.9"/>
	</g>
</g>
<g>
	<path fill="#3C4042" d="M553.1,156.3l-2.8,1.5l-1.2-2c-0.4,0.1-0.8,0.1-1.1,0.1c-1.4,0-2.6-0.6-3.5-1.6c-1.1-1.2-1.5-2.8-1.5-4.9
		c0-2,0.5-3.6,1.4-4.8c0.9-1.2,2.1-1.8,3.6-1.8c1.5,0,2.7,0.6,3.6,1.9c0.9,1.2,1.4,2.8,1.4,4.7c0,2.2-0.5,3.9-1.5,5.2L553.1,156.3z
		 M549.3,149.5c0-0.6,0-1.1-0.1-1.5c-0.1-0.5-0.1-0.8-0.2-1.1c-0.1-0.2-0.2-0.6-0.5-0.7c-0.1-0.1-0.4-0.2-0.6-0.2
		c-0.4,0-0.7,0.4-0.9,0.9c-0.2,0.7-0.4,1.5-0.4,2.5c0,0.6,0,1.1,0.1,1.4c0.1,0.5,0.1,0.8,0.2,1.1c0.1,0.2,0.2,0.5,0.5,0.7
		c0.2,0.2,0.4,0.2,0.6,0.2s0.4-0.1,0.6-0.2c0.2-0.1,0.4-0.4,0.5-0.7c0.1-0.2,0.2-0.6,0.2-1.1C549.2,150.6,549.3,150.1,549.3,149.5z"
		/>
</g>
<g>
	<path fill="#3C4042" d="M235.3,226.6h-4.1v-6.7c0-1.2,0.9-2.1,2.1-2.1h13.1c1.2,0,2.1,0.9,2.1,2.1v6.5h-4.1v-4.5h-9.1V226.6z"/>
</g>
<g>
	<path fill="#3C4042" d="M256.4,226.8h-4.1v-6.9c0-1.2,0.9-2.1,2.1-2.1h13.1c1.2,0,2.1,0.9,2.1,2.1v6.9h-4.1v-4.9h-9.1V226.8z"/>
</g>
<g>
	<path fill="#3C4042" d="M235.3,266.5h-4.1v-6.7c0-1.2,0.9-2.1,2.1-2.1h13.1c1.2,0,2.1,0.9,2.1,2.1v6.5h-4.1v-4.5h-9.1V266.5z"/>
</g>
<g>
	<path fill="#3C4042" d="M256.4,266.7h-4.1v-6.9c0-1.2,0.9-2.1,2.1-2.1h13.1c1.2,0,2.1,0.9,2.1,2.1v6.9h-4.1v-4.9h-9.1V266.7z"/>
</g>
<g>
	<path fill="#3C4042" d="M261.9,253v-13.4h4.2c1.5,0,2.7,0.4,3.5,1.1s1.2,1.6,1.2,2.7c0,1.6-0.8,2.6-2.5,2.7
		c0.9,0.1,1.6,0.5,2.1,0.9c0.5,0.5,0.7,1.2,0.7,2.1c0,1.2-0.4,2.1-1.1,2.8s-1.8,1.1-2.9,1.1H261.9z M265.5,244.6h0.2
		c0.5,0,0.8-0.1,1.1-0.4c0.2-0.2,0.4-0.5,0.4-0.8c0-0.8-0.5-1.2-1.3-1.2h-0.1c-0.1,0-0.1,0-0.2,0L265.5,244.6L265.5,244.6z
		 M265.5,250c0.1,0,0.1,0,0.2,0h0.1c0.5,0,0.8-0.1,1.1-0.4c0.2-0.2,0.4-0.6,0.4-0.9s-0.1-0.7-0.4-0.9c-0.2-0.2-0.6-0.4-1.1-0.4h-0.2
		v2.6H265.5z"/>
</g>
<g>
	<path fill="#3C4042" d="M222,254.5h-4.1v-26.6c0-1.6,1.3-3,3-3h58.2c1.6,0,3,1.3,3,3v6.9c0,1.6-1.3,3-3,3h-47.3v-4.1H278v-4.8
		h-56.1v25.6H222z"/>
</g>
<g>
	<path fill="#3C4042" d="M279.1,277.7h-58.2c-1.6,0-3-1.3-3-3v-6.9c0-1.6,1.3-3,3-3h58.2c1.6,0,3,1.3,3,3v6.9
		C282.2,276.4,280.9,277.7,279.1,277.7z M222,273.6h56.1v-4.8H222V273.6z"/>
</g>
<g>
	<rect x="272" y="275.5" fill="#3C4042" width="4.1" height="4.9"/>
</g>
<g>
	<rect x="272" y="235.8" fill="#3C4042" width="4.1" height="31.1"/>
</g>
<g>
	<rect x="223.9" y="276.1" fill="#3C4042" width="4.1" height="4.3"/>
</g>
<g>
	<rect x="223.9" y="248.2" fill="#3C4042" width="4.1" height="18.8"/>
</g>
<g>
	<rect x="230" y="226.7" fill="#3C4042" width="4.1" height="27.7"/>
</g>
<g>
	<rect x="220" y="231.5" fill="#3C4042" width="11.5" height="4.1"/>
</g>
<g>
	<rect x="220" y="245.6" fill="#3C4042" width="11.5" height="4.1"/>
</g>
<g>
	<rect x="220" y="238.5" fill="#3C4042" width="11.5" height="4.1"/>
</g>
<g>
	<path fill="#3C4042" d="M132.8,228.8h-4.1V222c0-1.2,0.9-2.1,2.1-2.1h13.1c1.2,0,2.1,0.9,2.1,2.1v6.6h-4.1v-4.5h-9.1V228.8z"/>
</g>
<g>
	<path fill="#3C4042" d="M132.8,268.7h-4.1V262c0-1.2,0.9-2.1,2.1-2.1h13.1c1.2,0,2.1,0.9,2.1,2.1v6.5h-4.1V264h-9.1V268.7z"/>
</g>
<g>
	<path fill="#3C4042" d="M159.8,268.9h-4.1V262c0-1.2,0.9-2.1,2.1-2.1h13.1c1.2,0,2.1,0.9,2.1,2.1v6.9h-4.1V264h-9.1V268.9z"/>
</g>
<g>
	<path fill="#3C4042" d="M137.1,255.1v-13.4h4.2c1.5,0,2.7,0.4,3.5,1.1s1.2,1.6,1.2,2.7c0,1.6-0.8,2.6-2.5,2.7
		c0.9,0.1,1.6,0.5,2.1,0.9c0.5,0.5,0.7,1.2,0.7,2.1c0,1.2-0.4,2.1-1.1,2.8s-1.8,1.1-2.9,1.1H137.1z M140.8,246.8h0.2
		c0.5,0,0.8-0.1,1.1-0.4c0.2-0.2,0.4-0.5,0.4-0.8c0-0.8-0.5-1.2-1.3-1.2H141c-0.1,0-0.1,0-0.2,0L140.8,246.8L140.8,246.8z
		 M140.8,252.3c0.1,0,0.1,0,0.2,0h0.1c0.5,0,0.8-0.1,1.1-0.4c0.2-0.2,0.4-0.6,0.4-0.9s-0.1-0.7-0.4-0.9c-0.2-0.2-0.6-0.4-1.1-0.4
		h-0.2v2.6H140.8z"/>
</g>
<g>
	<path fill="#3C4042" d="M119.5,256.6h-4.1V230c0-1.6,1.3-3,3-3h39.4c1.6,0,3,1.3,3,3v6.9c0,1.6-1.3,3-3,3h-28.5v-4.1h27.3V231
		h-37.3v25.6H119.5z"/>
</g>
<g>
	<path fill="#3C4042" d="M176.7,279.9h-58.2c-1.6,0-3-1.3-3-3V270c0-1.6,1.3-3,3-3h58.2c1.6,0,3,1.3,3,3v6.9
		C179.7,278.5,178.4,279.9,176.7,279.9z M119.5,275.7h56.1v-4.8h-56.1V275.7z"/>
</g>
<g>
	<rect x="169.5" y="277.6" fill="#3C4042" width="4.1" height="4.9"/>
</g>
<g>
	<rect x="148.4" y="238" fill="#3C4042" width="4.1" height="31.1"/>
</g>
<g>
	<rect x="121.4" y="278.2" fill="#3C4042" width="4.1" height="4.3"/>
</g>
<g>
	<rect x="121.4" y="250.3" fill="#3C4042" width="4.1" height="18.8"/>
</g>
<g>
	<rect x="127.5" y="228.8" fill="#3C4042" width="4.1" height="27.7"/>
</g>
<g>
	<rect x="117.5" y="233.6" fill="#3C4042" width="11.5" height="4.1"/>
</g>
<g>
	<rect x="117.5" y="247.7" fill="#3C4042" width="11.5" height="4.1"/>
</g>
<g>
	<rect x="117.5" y="240.7" fill="#3C4042" width="11.5" height="4.1"/>
</g>
<g>
	<path fill="#3C4042" d="M44.5,228.8h-4.1V222c0-1.2,0.9-2.1,2.1-2.1h13.1c1.2,0,2.1,0.9,2.1,2.1v6.6h-4.1v-4.5h-9.1V228.8z"/>
</g>
<g>
	<path fill="#3C4042" d="M44.5,268.7h-4.1V262c0-1.2,0.9-2.1,2.1-2.1h13.1c1.2,0,2.1,0.9,2.1,2.1v6.5h-4.1V264h-9.1V268.7z"/>
</g>
<g>
	<path fill="#3C4042" d="M48.9,255.1v-13.4h4.2c1.5,0,2.7,0.4,3.5,1.1c0.8,0.7,1.2,1.6,1.2,2.7c0,1.6-0.8,2.6-2.5,2.7
		c0.9,0.1,1.6,0.5,2.1,0.9c0.5,0.5,0.7,1.2,0.7,2.1c0,1.2-0.4,2.1-1.1,2.8s-1.8,1.1-2.9,1.1H48.9z M52.5,246.8h0.2
		c0.5,0,0.8-0.1,1.1-0.4c0.2-0.2,0.4-0.5,0.4-0.8c0-0.8-0.5-1.2-1.3-1.2h-0.1c-0.1,0-0.1,0-0.2,0L52.5,246.8L52.5,246.8z
		 M52.5,252.3c0.1,0,0.1,0,0.2,0h0.1c0.5,0,0.8-0.1,1.1-0.4c0.2-0.2,0.4-0.6,0.4-0.9s-0.1-0.7-0.4-0.9c-0.2-0.2-0.6-0.4-1.1-0.4
		h-0.2v2.6H52.5z"/>
</g>
<g>
	<path fill="#3C4042" d="M31.3,256.6h-4.1V230c0-1.6,1.3-3,3-3h39.4c1.6,0,3,1.3,3,3v6.9c0,1.6-1.3,3-3,3H41.1v-4.1h27.3V231H31.2
		v25.6H31.3z"/>
</g>
<g>
	<path fill="#3C4042" d="M69.6,279.9H30.2c-1.6,0-3-1.3-3-3V270c0-1.6,1.3-3,3-3h39.4c1.6,0,3,1.3,3,3v6.9
		C72.7,278.5,71.4,279.9,69.6,279.9z M31.3,275.7h37.3v-4.8H31.3V275.7z"/>
</g>
<g>
	<rect x="62.5" y="277.6" fill="#3C4042" width="4.1" height="4.9"/>
</g>
<g>
	<rect x="60.1" y="238" fill="#3C4042" width="4.1" height="31.1"/>
</g>
<g>
	<rect x="33.2" y="278.2" fill="#3C4042" width="4.1" height="4.3"/>
</g>
<g>
	<rect x="33.2" y="250.3" fill="#3C4042" width="4.1" height="18.8"/>
</g>
<g>
	<rect x="39.3" y="228.8" fill="#3C4042" width="4.1" height="27.7"/>
</g>
<g>
	<rect x="29.3" y="233.6" fill="#3C4042" width="11.5" height="4.1"/>
</g>
<g>
	<rect x="29.3" y="247.7" fill="#3C4042" width="11.5" height="4.1"/>
</g>
<g>
	<rect x="29.3" y="240.7" fill="#3C4042" width="11.5" height="4.1"/>
</g>
<g>
	<rect x="621" y="160.7" fill="#3C4042" width="53.4" height="4.1"/>
</g>
<g>
	<polygon fill="#3C4042" points="676.6,178.1 618.9,178.1 619,160.6 624,133.7 633.2,133.7 633.2,137.8 627.4,137.8 623,161.2 
		623,174 672.5,174 672.5,161.4 668.1,137.8 663,137.8 663,133.7 671.6,133.7 676.6,161.2 	"/>
</g>
<g>
	<rect x="642.4" y="133.7" fill="#3C4042" width="10.8" height="4.1"/>
</g>
<g>
	<g>
		<path fill="#3C4042" d="M642.5,142.3h-9.4c-1.2,0-2.1-0.9-2.1-2.1v-8.8c0-1.2,0.9-2.1,2.1-2.1h9.4c1.2,0,2.1,0.9,2.1,2.1v8.8
			C644.5,141.3,643.7,142.3,642.5,142.3z M635.2,138.2h5.3v-4.7h-5.3V138.2z"/>
	</g>
	<g>
		<path fill="#3C4042" d="M662.4,142.3h-9.4c-1.2,0-2.1-0.9-2.1-2.1v-8.8c0-1.2,0.9-2.1,2.1-2.1h9.4c1.2,0,2.1,0.9,2.1,2.1v8.8
			C664.4,141.3,663.6,142.3,662.4,142.3z M655.2,138.2h5.3v-4.7h-5.3V138.2z"/>
	</g>
</g>
<g>
	<g>
		<rect x="622.3" y="176.2" fill="#3C4042" width="4.1" height="4.3"/>
	</g>
	<g>
		<rect x="669.2" y="176.2" fill="#3C4042" width="4.1" height="4.3"/>
	</g>
</g>
<g>
	<path fill="#3C4042" d="M644.3,157v-4.2c0.7,0.9,1.5,1.5,2.3,1.5c0.4,0,0.6-0.1,0.8-0.2c0.2-0.1,0.4-0.4,0.4-0.6
		c0-0.4-0.2-0.7-0.7-1.1l-0.6-0.5c-0.4-0.2-0.7-0.6-1.1-0.8c-0.2-0.2-0.5-0.6-0.7-0.9c-0.1-0.4-0.4-0.6-0.4-0.9
		c-0.1-0.4-0.1-0.7-0.1-1.1c0-0.6,0.1-1.3,0.5-1.9c0.1-0.4,0.4-0.6,0.5-0.8c0.2-0.2,0.5-0.5,0.7-0.7c0.7-0.6,1.5-0.8,2.5-0.8
		c0.8,0,1.8,0.2,2.6,0.7v4.1c-0.4-0.5-0.6-0.8-1.1-1.1c-0.4-0.2-0.7-0.4-1.2-0.4c-0.2,0-0.5,0.1-0.7,0.2c-0.2,0.1-0.2,0.4-0.2,0.6
		c0,0.4,0.2,0.7,0.7,1.1l0.6,0.5c0.8,0.6,1.3,1.1,1.6,1.6c0.4,0.6,0.5,1.2,0.5,2c0,1.3-0.4,2.3-1.2,3.2c-0.8,0.8-1.9,1.3-3,1.3
		C646.1,157.5,645.3,157.4,644.3,157z"/>
</g>
<g>
	<path fill="#3C4042" d="M681,149.4h-8.7v-4.1h6.6v-18.9c0-2.2-1.8-4-4-4h-54.4c-2.2,0-4,1.8-4,4v18.9h7v4.1h-9.1
		c-1.2,0-2.1-0.9-2.1-2.1v-20.9c0-4.5,3.6-8.1,8.1-8.1h54.4c4.5,0,8.1,3.6,8.1,8.1v21C683.1,148.5,682.1,149.4,681,149.4z"/>
</g>
<g id="tool_-_tv_television_1_">
	<g>
		<path fill-rule="evenodd" clip-rule="evenodd" fill="#3C4042" d="M469,61h-4c-2.2,0-4,1.8-4,4v4c0,2.2,1.8,4,4,4h4
			c2.2,0,4-1.8,4-4v-4C473,62.8,471.2,61,469,61z M469,69h-4v-4h4V69z M453,41h-24c-2.2,0-4,1.8-4,4v24c0,2.2,1.8,4,4,4h24
			c2.2,0,4-1.8,4-4V45C457,42.8,455.2,41,453,41z M453,67c0,1.1-0.9,2-2,2h-20c-1.1,0-2-0.9-2-2V47c0-1.1,0.9-2,2-2h20
			c1.1,0,2,0.9,2,2V67z M471,49h-8c-1.1,0-2,0.9-2,2c0,1.1,0.9,2,2,2h8c1.1,0,2-0.9,2-2C473,49.9,472.1,49,471,49z M471,41h-8
			c-1.1,0-2,0.9-2,2c0,1.1,0.9,2,2,2h8c1.1,0,2-0.9,2-2C473,41.9,472.1,41,471,41z M473,33h-19.1l8.5-8.4c0.8-0.8,0.8-2.1,0-3
			c-0.8-0.8-2.1-0.8-3,0L449,32l-10.4-10.4c-0.8-0.8-2.1-0.8-3,0c-0.8,0.8-0.8,2.1,0,3l8.4,8.5H425c-4.4,0-8,3.6-8,8v32
			c0,4.4,3.6,8,8,8h48c4.4,0,8-3.6,8-8V41C481,36.6,477.4,33,473,33z M477,73c0,2.2-1.8,4-4,4h-48c-2.2,0-4-1.8-4-4V41
			c0-2.2,1.8-4,4-4h48c2.2,0,4,1.8,4,4V73z"/>
	</g>
</g>
<g id="communication_-_phone_call_2_">
	<g>
		<path fill="#FFFFFF" d="M69.6,19.1c-2.5-1.8-5.3-1.1-6.4,0.5c-0.7,1-7.8,11.7-8.6,13c-0.3,0.6-0.5,1.3-0.5,2c0,1,0.3,2.1,0.8,3.1
			c0.5,1,2.3,4.1,3.2,5.7c-0.9,1.3-3.4,4.5-8.4,9.5c-4.9,4.9-8.1,7.4-9.5,8.3c-1.5-0.9-4.7-2.6-5.7-3.2c-1.9-1-3.9-1.1-5.2-0.3
			c-1.2,0.8-11.9,7.9-12.9,8.6c-1,0.7-1.5,1.9-1.5,3.3c0,1.1,0.3,2.2,1,3.1c0.1,0.1,6.8,9.5,10.6,9.4c10.9-0.3,23.7-10.9,32.5-19.7
			C68,53.5,78.6,40.7,79,29.8v-0.1C79,25.9,69.7,19.1,69.6,19.1z M56.4,59.4C44.7,71.1,34.2,77.6,26.7,78c-1.4-0.5-5-4.2-7.6-7.6
			c-0.2-0.3-0.3-0.6-0.3-0.9c0-0.1,0-0.1,0-0.2c1.6-1.1,10.8-7.1,12.5-8.2c0.2,0,0.6,0.1,1.3,0.4c0.7,0.4,2.7,1.5,5.6,3.1l2.2,1.3
			l2.1-1.5c1.5-1.1,4.9-3.7,10-8.8c5.1-5.1,7.7-8.5,8.8-10l1.5-2.1l-1.3-2.2c-1.2-2.1-2.7-4.7-3.1-5.5C58,35.1,58,34.7,58,34.6
			c0,0,0,0,0-0.1c1-1.5,7.2-10.8,8.3-12.5c0.2,0,0.5,0,0.9,0.3c3.5,2.5,7.2,6.1,7.7,7.5C74.6,37.3,68,47.8,56.4,59.4z"/>
	</g>
</g>
<g id="web_-_browse_internet_network_1_">
	<g>
		<path fill-rule="evenodd" clip-rule="evenodd" fill="#FFFFFF" d="M279.9,48.7c-1-16.7-14.9-30-31.9-30c-17,0-30.9,13.3-31.9,30
			H216v4h0.1c1,16.7,14.9,30,31.9,30c17,0,30.9-13.3,31.9-30h0.1L279.9,48.7L279.9,48.7z M269.4,32.7h-3.6c-2.1,0.6-4.7,1.1-7.6,1.4
			c-1-4.4-2.4-8-4-10.7C260.3,24.8,265.6,28.1,269.4,32.7z M240,52.7h16c-0.1,3.7-0.4,7.2-0.8,10.3c-2.3-0.2-4.7-0.3-7.2-0.3
			c-2.5,0-4.9,0.1-7.2,0.3C240.4,59.8,240.1,56.3,240,52.7z M240,48.7c0.1-3.7,0.4-7.2,0.8-10.3c2.3,0.2,4.7,0.3,7.2,0.3
			c2.5,0,4.9-0.1,7.2-0.3c0.4,3.2,0.7,6.6,0.8,10.3H240z M248,22.7c2.7,0,5.1,4.6,6.5,11.8c-2.1,0.1-4.3,0.2-6.5,0.2
			c-2.3,0-4.4-0.1-6.5-0.2C242.9,27.3,245.3,22.7,248,22.7z M241.7,23.4c-1.6,2.7-3,6.3-4,10.7c-2.9-0.3-5.5-0.8-7.6-1.4h-3.6
			C230.4,28.1,235.7,24.8,241.7,23.4z M225.2,34.5c3,1.5,7,2.7,11.8,3.4c-0.5,3.3-0.9,7-1,10.8h-15.9
			C220.5,43.4,222.3,38.5,225.2,34.5z M236,52.7c0.1,3.8,0.4,7.4,1,10.8c-4.8,0.7-8.9,1.9-11.9,3.3c-2.8-4-4.7-8.9-5-14.1H236z
			 M226.6,68.7h3.3c2.2-0.6,4.9-1.1,7.8-1.4c1,4.4,2.4,8.1,4,10.7C235.7,76.6,230.4,73.2,226.6,68.7z M248,78.7
			c-2.7,0-5.1-4.7-6.5-11.8c2.1-0.1,4.3-0.2,6.5-0.2c2.3,0,4.4,0.1,6.5,0.2C253.1,74,250.7,78.7,248,78.7z M254.3,77.9
			c1.6-2.7,3-6.4,4-10.7c3,0.3,5.7,0.8,7.8,1.4h3.3C265.6,73.2,260.3,76.6,254.3,77.9z M270.9,66.7c-3-1.4-7.1-2.6-11.9-3.3
			c0.5-3.3,0.9-7,1-10.8h15.9C275.5,57.9,273.7,62.7,270.9,66.7z M260,48.7c-0.1-3.8-0.4-7.5-1-10.8c4.8-0.7,8.8-1.9,11.8-3.4
			c2.9,4.1,4.7,8.9,5.1,14.2H260z"/>
	</g>
</g>
<g id="web_-_browse_internet_network_3_">
	<g>
		<path fill-rule="evenodd" clip-rule="evenodd" fill="#3C4042" d="M748.7,18.4c-17.7,0-32,14.3-32,32c0,17.7,14.3,32,32,32
			c17.7,0,32-14.3,32-32C780.7,32.7,766.4,18.4,748.7,18.4z M748.7,78.4c-15.5,0-28-12.5-28-28c0-15.5,12.5-28,28-28
			c15.5,0,28,12.5,28,28C776.7,65.8,764.2,78.4,748.7,78.4z"/>
	</g>
</g>
<g id="interface_-_search_2_">
	<g>
		<path fill-rule="evenodd" clip-rule="evenodd" fill="#FFFFFF" d="M378.1,78.7L360.3,61c3.9-4.6,6.3-10.5,6.3-17
			c0-14.4-11.6-26-26-26c-14.4,0-26,11.6-26,26c0,14.4,11.6,26,26,26c6.5,0,12.4-2.4,17-6.3l17.8,17.8c0.7,0.7,1.9,0.7,2.7,0
			C378.8,80.7,378.8,79.5,378.1,78.7z M340.7,66c-12.2,0-22-9.8-22-22c0-12.2,9.8-22,22-22s22,9.8,22,22
			C362.7,56.1,352.8,66,340.7,66z"/>
	</g>
</g>
<g id="goods_-_shoes_1_">
	<g>
		<path fill-rule="evenodd" clip-rule="evenodd" fill="#3C4042" d="M579,60h-1.1c0.7-1.2,1.1-2.5,1.1-4c0-4.4-3.6-8-8-8l-24-10
			c-10,12-24,0-24,0v22c-2.2,0-4,1.8-4,4v4c0,2.2,1.8,4,4,4h56c2.2,0,4-1.8,4-4v-4C583,61.8,581.2,60,579,60z M527,44
			c10,8,20-2,20-2l7.2,3.3l-6.9,3.9c-0.6,0.9-0.2,2.1,0.8,2.6c1.1,0.5,2.4,0.2,3-0.7l7.1-4l4.4,2l-7.3,4.1c-0.6,0.9-0.2,2.1,0.8,2.6
			c1.1,0.5,2.4,0.2,3-0.7l7.4-4.2L569,52v0.6c0.6-0.3,1.3-0.6,2-0.6c2.2,0,4,1.8,4,4c0,2.2-1.8,4-4,4c-0.7,0-1.4-0.2-2-0.6V60h-42
			V44z M577,68h-52c-1.1,0-2-0.9-2-2s0.9-2,2-2h52c1.1,0,2,0.9,2,2S578.1,68,577,68z"/>
	</g>
</g>
<g id="kitchen_-_grill_1_">
	<g>
		<path fill="#3C4042" d="M654,20h-4v12h4V20z M666,24h-4v8h4V24z M642,24h-4v8h4V24z M678,44c0-1.8,0-8,0-8h-56c0,0,0,6.2,0,8
			c0,11.1,6.5,20.7,15.9,25.2L630,82l3.6,2l8.2-13.2c2.6,0.8,5.3,1.2,8.2,1.2c2.9,0,5.6-0.4,8.2-1.2l8.2,13.2l3.6-2l-7.9-12.7
			C671.5,64.7,678,55.1,678,44z M650,68c-13.3,0-24-10.7-24-24c0-0.4,0-4,0-4h48v4C674,57.3,663.3,68,650,68z"/>
	</g>
</g>
<g>
	<path fill="#3C4042" d="M736.8,41.9h5l2.8,13.4l2.9-13.4h5.1l-5.4,18.7h-5L739.3,47l-3,13.6h-5.1L726,41.9h5.2l2.9,13.4L736.8,41.9
		z"/>
	<path fill="#3C4042" d="M766.5,48.6c-0.1-0.7-0.3-1.3-0.7-1.9c-0.5-0.8-1.4-1.1-2.6-1.1c-1.6,0-2.8,0.8-3.4,2.4
		c-0.3,0.9-0.5,2-0.5,3.5c0,1.4,0.2,2.5,0.5,3.3c0.6,1.6,1.7,2.3,3.3,2.3c1.1,0,2-0.3,2.4-0.9c0.5-0.6,0.8-1.4,0.9-2.4h5
		c-0.1,1.5-0.7,2.9-1.6,4.2c-1.5,2.1-3.8,3.2-6.8,3.2c-3,0-5.2-0.9-6.6-2.7c-1.4-1.8-2.1-4.1-2.1-6.9c0-3.2,0.8-5.7,2.3-7.5
		c1.6-1.8,3.7-2.7,6.5-2.7c2.3,0,4.3,0.5,5.8,1.6c1.5,1.1,2.4,2.9,2.6,5.6H766.5z"/>
</g>
<g id="kitchen_-_fork_knife_2_">
	<g>
		<path fill="#3C4042" d="M869.2,33.5c-2.5-7.2-8.2-14.2-9.2-15.5l-4,0v64h4V54h12v-1.1l0,0C872,52.9,872.5,42.8,869.2,33.5z
			 M860,50V24.6c2.1,3.2,4.5,7.3,6,11.5c1.8,5.2,2.3,10.4,2.3,13.9H860z M844,32c0,3.7-0.6,6.8-4,7.7V18l-4,0v22c-3.4-0.9-4-4.3-4-8
			V18h-4v14c0,5.9,2.3,10.8,8,11.8V82h4V43.8c5.7-1,8-5.9,8-11.8V18h-4V32z"/>
	</g>
</g>
<g id="kitchen_-_fridge_1_">
	<g>
		<path fill-rule="evenodd" clip-rule="evenodd" fill="#3C4042" d="M936,43h4v-8h-4V43z M968,19h-36c-2.2,0-4,1.8-4,4v56
			c0,2.2,1.8,4,4,4h36c2.2,0,4-1.8,4-4V23C972,20.8,970.2,19,968,19z M968,77c0,1.1-0.9,2-2,2h-32c-1.1,0-2-0.9-2-2V51h36V77z
			 M968,47h-36V25c0-1.1,0.9-2,2-2h32c1.1,0,2,0.9,2,2V47z M940,55h-4v8h4V55z"/>
	</g>
</g>
<g id="transportation_-_vehicle_car_1_">
	<g>
		<path fill-rule="evenodd" clip-rule="evenodd" fill="#3C4042" d="M331,255c-3.3,0-6,2.7-6,6c0,3.3,2.7,6,6,6c3.3,0,6-2.7,6-6
			C337,257.7,334.3,255,331,255z M331,263c-1.1,0-2-0.9-2-2c0-1.1,0.9-2,2-2s2,0.9,2,2C333,262.1,332.1,263,331,263z M367,255
			c-3.3,0-6,2.7-6,6c0,3.3,2.7,6,6,6c3.3,0,6-2.7,6-6C373,257.7,370.3,255,367,255z M367,263c-1.1,0-2-0.9-2-2c0-1.1,0.9-2,2-2
			s2,0.9,2,2C369,262.1,368.1,263,367,263z M381,245v-4c0-1.1-0.9-2-2-2h-4c-0.1,0-0.3,0-0.4,0l-1.6-8c0-6.6-5.4-12-12-12h-24
			c-6.6,0-12,5.4-12,12l-1.6,8c-0.1,0-0.3,0-0.4,0h-4c-1.1,0-2,0.9-2,2v4c0,1.1,0.9,2,2,2h2.8l-0.1,0.7c-2.7,1.3-4.7,4-4.7,7.3v20h4
			v4c0,2.2,1.8,4,4,4h4c2.2,0,4-1.8,4-4v-4h30v4c0,2.2,1.8,4,4,4h4c2.2,0,4-1.8,4-4v-4h6v-20c0-3.2-1.9-6-4.7-7.3l-0.1-0.7h2.8
			C380.1,247,381,246.1,381,245z M329,231c0-4.4,3.6-8,8-8h24c4.4,0,8,3.6,8,8l3.2,16h-46.4L329,231z M329,277c0,1.1-0.9,2-2,2
			s-2-0.9-2-2v-2h4V277z M371,277c0,1.1-0.9,2-2,2s-2-0.9-2-2v-2h4V277z M377,255v12c0,2.2-1.8,4-4,4h-48c-2.2,0-4-1.8-4-4v-12
			c0-2.2,1.8-4,4-4h48C375.2,251,377,252.8,377,255z"/>
	</g>
</g>
<g id="transportation_-_bicycle_1_">
	<g>
		<path fill-rule="evenodd" clip-rule="evenodd" fill="#3C4042" d="M468.2,246l-3.4-12.2c0.7-0.3,1.2-1,1.2-1.8c0-1.1-0.9-2-2-2
			h-1.6c-0.2,0-0.4,0-0.6,0H456c-1.1,0-2,0.9-2,2c0,1.1,0.9,2,2,2h4.5l3.3,12H442v-8h2c1.1,0,2-0.9,2-2c0-1.1-0.9-2-2-2h-8
			c-1.1,0-2,0.9-2,2c0,1.1,0.9,2,2,2h2v8h-6c-7.7,0-14,6.3-14,14c0,7.7,6.3,14,14,14c7.1,0,12.9-5.2,13.8-12h8.3
			c1,6.8,6.8,12,13.8,12c7.7,0,14-6.3,14-14C482,252.3,475.8,246.1,468.2,246z M432,270c-5.5,0-10-4.5-10-10c0-5.5,4.5-10,10-10
			c4.8,0,8.9,3.4,9.8,8H432c-1.1,0-2,0.9-2,2c0,1.1,0.9,2,2,2h9.8C440.9,266.6,436.8,270,432,270z M454.2,258h-8.3
			c-0.4-3.1-1.9-5.9-4.1-8h16.5C456.1,252.1,454.6,254.9,454.2,258z M468,270c-5.5,0-10-4.5-10-10c0-4.5,3-8.3,7-9.5l2.8,10
			c0.3,1.1,1.5,1.8,2.6,1.5c1.1-0.3,1.8-1.4,1.5-2.5l-2.6-9.3c4.9,0.7,8.7,4.8,8.7,9.9C478,265.5,473.5,270,468,270z"/>
	</g>
</g>
<g id="building_-_apartment">
	<g>
		<path fill-rule="evenodd" clip-rule="evenodd" fill="#3C4042" d="M656,230h-16v4h16V230z M628,254h-4v4h4V254z M628,242h-4v4h4
			V242z M664,230v-12h-32v12h-16v52h64v-52H664z M632,278h-12v-44h12V278z M652,278h-8v-8h8V278z M660,278h-4v-12h-16v12h-4v-56h24
			V278z M676,278h-12v-44h12V278z M672,266h-4v4h4V266z M672,254h-4v4h4V254z M656,242h-16v4h16V242z M672,242h-4v4h4V242z M656,254
			h-16v4h16V254z M628,266h-4v4h4V266z"/>
	</g>
</g>
<g id="building_-_office_apartment_1_">
	<g>
		<path fill-rule="evenodd" clip-rule="evenodd" fill="#3C4042" d="M564,226h-12v12h12V226z M560,234h-4v-4h4V234z M572,278v-60h-44
			v60h-8v4h60v-4H572z M556,278h-12v-16h12V278z M568,278h-8v-20h-20v20h-8v-56h36V278z M548,242h-12v12h12V242z M544,250h-4v-4h4
			V250z M548,226h-12v12h12V226z M544,234h-4v-4h4V234z M564,242h-12v12h12V242z M560,250h-4v-4h4V250z"/>
	</g>
</g>
<g id="building_-_house_live_1_">
	<g>
		<path fill-rule="evenodd" clip-rule="evenodd" fill="#3C4042" d="M779.4,241.5l-29.9-23.9c-0.4-0.4-1-0.6-1.5-0.6
			c-0.5,0-1.1,0.2-1.5,0.6l-29.9,23.9c-0.8,0.8-0.8,2.1,0,2.9c0.8,0.8,2.1,0.8,2.9,0l0.6-0.4V277c0,2.2,1.8,4,4,4h48
			c2.2,0,4-1.8,4-4v-33.1l0.6,0.4c0.8,0.8,2.1,0.8,2.9,0C780.2,243.6,780.2,242.3,779.4,241.5z M760,277h-12v-24h12V277z M772,241
			v34c0,1.1-0.9,2-2,2h-6v-28h-20v28h-18c-1.1,0-2-0.9-2-2v-34h-0.3l24.3-19.5l24.3,19.5H772z M728,261h12v-12h-12V261z M732,253h4
			v4h-4V253z"/>
	</g>
</g>
<g id="environment_-_mountain">
	<g>
		<path fill-rule="evenodd" clip-rule="evenodd" fill="#3C4042" d="M845.9,250.3L838,236l-21,38h64l-24-44L845.9,250.3z M823,270
			l15-28l6.2,11.5l-9,16.5H823z M839,270l7-13.1l7,13.1H839z M856.8,270l-9.1-16.4L857,236l18,34H856.8z"/>
	</g>
</g>
<g id="setting_-_plane_airplane">
	<g>
		<path fill="#FFFFFF" d="M82.8,319.6c-0.7-0.7-2.2-1.3-4.1-1.3c-2.3,0-5.1,0.8-7.6,3.4l-12.8,12.7c-7.2-0.4-25.7-1.7-26.2-1.7
			c-0.1,0-0.2,0-0.3,0c-0.6,0-1.7,0.1-3,1.2c-1.5,1.2-4.5,4-4.5,4c-0.7,0.7-1.1,1.6-1,2.4c0.1,0.5,0.3,1.5,1.6,1.9
			c0.7,0.3,12.9,4.9,18.5,6.9l-7.6,7.9c-0.3,0-0.7,0-1.3,0c-2.3,0-5.9-0.1-7.4-0.1c-0.2,0-0.3,0-0.4,0c-0.4,0-1.4-0.2-3.7,1.8
			l-0.2,0.2c-0.7,0.7-0.8,1.5-1,1.9c0,0.5,0.1,1.2,0.8,1.8c0.4,0.3,5.9,3.8,10.4,6.6c1.1,1.8,6,9.7,6.3,10.1c0.4,0.6,1,1,1.7,1.1H41
			c0.7,0,1.5-0.3,2.1-1.1c2-2.3,1.8-3.4,1.8-3.8c0-1.3,0-6.8,0-9l8-7.6c2,5.6,6.5,17.6,6.8,18.4c0.5,1.3,1.4,1.5,1.9,1.6
			c0.1,0,0.2,0,0.2,0c0.7,0,1.6-0.3,2.2-1.1c0,0,2.9-3,4-4.5c1.2-1.5,1.2-2.7,1.2-3.3c0-0.4-1.2-18.8-1.6-26l12.9-12.7
			C85.1,326.7,84.3,321.2,82.8,319.6z M26.9,360.9C26.8,360.8,26.8,360.8,26.9,360.9C26.8,360.8,26.8,360.8,26.9,360.9z M77.9,328.5
			L65,341.4l-1.3,1.3l0.1,1.7c0.2,3.6,0.6,10.2,1,15.8c0.3,5,0.6,9.7,0.6,10.1c0,0.3,0,0.3-0.2,0.6c-0.5,0.7-1.7,1.9-2.5,2.9
			c-1.4-3.8-4.3-11.8-5.9-16.2l-2.1-5.7l-4.3,4.3l-8,7.6l-1.1,1.1v1.6c0,1.3,0,3.5,0,5.4c0,1.3,0,2.3,0,3.1
			c-0.1-0.2-0.2-0.3-0.3-0.5c-1.6-2.5-3.8-6-4.5-7.2l-0.6-0.7l-0.8-0.5c-2.9-1.7-5.9-3.7-8-5h0.1c0.6,0,1.7,0,2.9,0
			c1.5,0,3.3,0,4.6,0c0.5,0,1,0,1.3,0h1.6l1.1-1.1l7.6-7.9l4.3-4.3l-5.7-2.1c-4.2-1.6-12.5-4.7-16.3-6c1-1,2.2-2,2.9-2.5
			c0.2-0.2,0.3-0.2,0.4-0.2h0.1c0.4,0,5.7,0.3,10.9,0.7c5.5,0.3,11.7,0.7,15.2,1l1.8,0.1l1.3-1.3l12.8-12.8c2-2,3.9-2.2,4.9-2.2
			c0.6,0,1.1,0.1,1.3,0.2C80.2,323.1,80.5,325.8,77.9,328.5z"/>
	</g>
</g>
<g id="time_-_clock_hour_1_">
	<g>
		<path fill-rule="evenodd" clip-rule="evenodd" fill="#FFFFFF" d="M930.1,264l3,3l3-3l-3-3L930.1,264z M930.2,247h-4v4h4V247z
			 M968.5,235.4l-2.8-2.8l-2.8,2.8l2.8,2.8L968.5,235.4z M934.1,234l3,3l3-3l-3-3L934.1,234z M962.9,266.6l2.8,2.8l2.8-2.8l-2.8-2.8
			L962.9,266.6z M950.2,219c-17.7,0-32,14.3-32,32c0,17.7,14.3,32,32,32c17.7,0,32-14.3,32-32C982.2,233.3,967.8,219,950.2,219z
			 M950.2,279c-15.5,0-28-12.5-28-28c0-15.5,12.5-28,28-28c15.5,0,28,12.5,28,28C978.2,266.5,965.6,279,950.2,279z M946.2,275h4v-4
			h-4V275z M950.2,251v-24h-4v28h24v-4H950.2z"/>
	</g>
</g>
<g id="location_-_map_route_1_">
	<g>
		<path fill-rule="evenodd" clip-rule="evenodd" fill="#FFFFFF" d="M152,341c-1.1,0-2,0.9-2,2v22c0,1.1,0.9,2,2,2s2-0.9,2-2v-22
			C154,341.9,153.1,341,152,341z M166,359c0,1.1,0.9,2,2,2s2-0.9,2-2v-26c0-1.1-0.9-2-2-2s-2,0.9-2,2V359z M166,321l-14,12l-18-8
			l-16,8v48l16-8l18,4l14-8l16,8v-46L166,321z M178,371l-12-6l-14,8l-18-4l-12,6v-40l12-6l18,8l14-12l12,8V371z M136,335
			c-1.1,0-2,0.9-2,2v26c0,1.1,0.9,2,2,2s2-0.9,2-2v-26C138,335.9,137.1,335,136,335z"/>
	</g>
</g>
<g id="tool_-_calculator">
	<g>
		<path fill-rule="evenodd" clip-rule="evenodd" fill="#FFFFFF" d="M246,355h8c1.1,0,2-0.9,2-2v-8c0-1.1-0.9-2-2-2h-8
			c-1.1,0-2,0.9-2,2v8C244,354.1,244.9,355,246,355z M248,347h4v4h-4V347z M262,371h8c1.1,0,2-0.9,2-2v-8c0-1.1-0.9-2-2-2h-8
			c-1.1,0-2,0.9-2,2v8C260,370.1,260.9,371,262,371z M264,363h4v4h-4V363z M262,355h8c1.1,0,2-0.9,2-2v-8c0-1.1-0.9-2-2-2h-8
			c-1.1,0-2,0.9-2,2v8C260,354.1,260.9,355,262,355z M264,347h4v4h-4V347z M246,371h8c1.1,0,2-0.9,2-2v-8c0-1.1-0.9-2-2-2h-8
			c-1.1,0-2,0.9-2,2v8C244,370.1,244.9,371,246,371z M248,363h4v4h-4V363z M276,319h-52c-2.2,0-4,1.8-4,4v56c0,2.2,1.8,4,4,4h52
			c2.2,0,4-1.8,4-4v-56C280,320.8,278.2,319,276,319z M276,377c0,1.1-0.9,2-2,2h-48c-1.1,0-2-0.9-2-2v-42h52V377z M276,331h-52v-6
			c0-1.1,0.9-2,2-2h48c1.1,0,2,0.9,2,2V331z M230,371h8c1.1,0,2-0.9,2-2v-8c0-1.1-0.9-2-2-2h-8c-1.1,0-2,0.9-2,2v8
			C228,370.1,228.9,371,230,371z M232,363h4v4h-4V363z M230,355h8c1.1,0,2-0.9,2-2v-8c0-1.1-0.9-2-2-2h-8c-1.1,0-2,0.9-2,2v8
			C228,354.1,228.9,355,230,355z M232,347h4v4h-4V347z"/>
	</g>
</g>
<g id="document_-_drawing__writing_board_tick_1_">
	<g>
		<path fill-rule="evenodd" clip-rule="evenodd" fill="#FFFFFF" d="M363.5,346.6L348.7,365l-6.4-6.4c-0.8-0.8-2-0.8-2.7,0
			c-0.8,0.7-0.8,2,0,2.7l7.7,7.7c0.1,0.1,0.2,0.3,0.3,0.4c0.2,0.2,0.5,0.4,0.8,0.5c0.7,0.3,1.5,0.2,2.1-0.4c0.1-0.1,0.2-0.3,0.3-0.4
			l15.6-19.6c0.8-0.8,0.8-2.1,0-2.9C365.6,345.8,364.3,345.8,363.5,346.6z M365,326v-4h-6c0-2.2-1.8-4-4-4h-8c-2.2,0-4,1.8-4,4h-6v4
			h-14v56h56v-56H365z M341,326h6v-2c0-1.1,0.9-2,2-2h4c1.1,0,2,0.9,2,2v2h6v8h-20V326z M375,378h-48v-48h10v8h28v-8h10V378z"/>
	</g>
</g>
<g id="weather_-_sun_brightness_2_">
	<g>
		<path fill-rule="evenodd" clip-rule="evenodd" fill="#FFFFFF" d="M527,348h-8v4h8V348z M551,320h-4v8h4V320z M526.4,369.8l2.8,2.8
			l5.7-5.7l-2.8-2.8L526.4,369.8z M534.9,333l-5.7-5.7l-2.8,2.8l5.7,5.7L534.9,333z M547,380h4v-8h-4V380z M571,348v4h8v-4H571z
			 M563.1,367l5.7,5.7l2.8-2.8l-5.7-5.7L563.1,367z M549,332c-9.9,0-18,8.1-18,18c0,9.9,8.1,18,18,18c9.9,0,18-8.1,18-18
			C567,340.1,558.9,332,549,332z M549,364c-7.7,0-14-6.3-14-14c0-7.7,6.3-14,14-14c7.7,0,14,6.3,14,14C563,357.7,556.7,364,549,364z
			 M571.6,330.2l-2.8-2.8l-5.7,5.7l2.8,2.8L571.6,330.2z"/>
	</g>
</g>
<g id="chair_2_">
	<g>
		<path fill-rule="evenodd" clip-rule="evenodd" fill="#3C4042" d="M668.1,348.2c-0.3,0-0.6,0-0.9,0.1c-0.1-0.1-0.3-0.1-0.5-0.1
			h-33.3v-28.1c0-1.4-0.9-2.5-2-2.5c-1.1,0-2,1.1-2,2.5v64.3c0,1.4,0.9,2.5,2,2.5c1.1,0,2-1.1,2-2.5v-24H666v25.1
			c0,0.8,0.9,1.4,2,1.4c1.1,0,2-0.6,2-1.4v-35.9C670.1,348.8,669.2,348.2,668.1,348.2z M633.5,356.4v-4.1H666v4.1H633.5z"/>
	</g>
</g>
<g id="Stairs_2_">
	<g>
		<path fill-rule="evenodd" clip-rule="evenodd" fill="#FFFFFF" d="M445.1,328.3v9.2h-9.2v9.2h-9.2v9.2h-9.2v13.8H482v-41.5H445.1z
			 M477.4,365.2h-55.3v-4.6h55.3V365.2z M477.4,355.9h-46.1v-4.6h46.1V355.9z M477.4,346.7h-36.9v-4.6h36.9V346.7z M477.4,337.5
			h-27.7v-4.6h27.7V337.5z"/>
	</g>
</g>
<g id="Door_2_">
	<g>
		<path fill-rule="evenodd" clip-rule="evenodd" fill="#3C4042" d="M771.6,322.2h-39.1c0,0,0,1.7,0,3.9v47l0,3.9h11.7v3.9
			c0,0.1,0,0.2,0,0.2c0,0,0,0,0,0c0,0.1,0,0.2,0.1,0.3c0,0,0,0.1,0,0.1c0,0.1,0.1,0.2,0.1,0.2c0,0,0,0.1,0,0.1c0,0,0,0,0,0.1
			c0,0,0.1,0.1,0.1,0.1c0,0.1,0.1,0.1,0.2,0.2c0,0,0,0,0.1,0.1c0.1,0.1,0.2,0.1,0.2,0.2c0,0,0,0,0,0c0.1,0.1,0.2,0.1,0.3,0.2
			c0,0,0,0,0.1,0c0.1,0,0.2,0.1,0.3,0.1c0,0,0.1,0,0.2,0c0.1,0,0.1,0,0.2,0c0,0,0.1,0,0.1,0c0.1,0,0.1,0,0.2,0c0,0,0,0,0,0
			c0.4,0,0.7-0.2,1-0.4l22.8-13.3h1.5v-43C771.6,323.9,771.6,322.2,771.6,322.2z M745.3,336.1c-0.6,0.3-1.1,1-1.1,1.7v35.2h-5.9
			c-1.1,0-2-0.9-2-2v-43c0-1.1,0.9-2,2-2h24.1L745.3,336.1z M767.7,366.1l-19.6,11.4v-38.6l19.5-11.4c0,0.2,0.1,0.3,0.1,0.5V366.1z
			 M752,357.4h3.9v-3.9H752V357.4z"/>
	</g>
</g>
<g id="food_-_fruit_grape_2_">
	<g>
		<path fill-rule="evenodd" clip-rule="evenodd" fill="#3C4042" d="M882,340c0-6.6-5.4-12-12-12c-4.2,0-7.9,2.1-10,5.4
			c-1.8-2.7-4.7-4.6-8-5.2V324h4c1.1,0,2-0.9,2-2c0-1.1-0.9-2-2-2h-12c-1.1,0-2,0.9-2,2c0,1.1,0.9,2,2,2h4v4.2
			c-3.3,0.6-6.2,2.5-8,5.2c-2.1-3.2-5.8-5.4-10-5.4c-6.6,0-12,5.4-12,12c0,6.6,5.4,12,12,12c0.2,0,0.5,0,0.7,0
			c-0.5,1.3-0.7,2.6-0.7,4c0,5.5,3.8,10.2,8.9,11.6c-0.5,1.4-0.9,2.9-0.9,4.4c0,6.6,5.4,12,12,12c6.6,0,12-5.4,12-12
			c0-1.4-0.2-2.8-0.7-4c0.2,0,0.5,0,0.7,0c6.6,0,12-5.4,12-12c0-1.6-0.3-3.1-0.9-4.4C878.2,350.2,882,345.5,882,340z M850,332
			c4.4,0,8,3.6,8,8c0,4.4-3.6,8-8,8c-4.4,0-8-3.6-8-8C842,335.6,845.6,332,850,332z M830,348c-4.4,0-8-3.6-8-8c0-4.4,3.6-8,8-8
			c4.4,0,8,3.6,8,8C838,344.4,834.4,348,830,348z M834,356c0-4.1,3.1-7.5,7.1-7.9c2,2.2,4.7,3.6,7.8,3.9c0.7,1.2,1.1,2.6,1.1,4.1
			c0,4.4-3.6,8-8,8C837.6,364,834,360.4,834,356z M850,380c-4.4,0-8-3.6-8-8c0-1.5,0.4-2.9,1.1-4.1c3.1-0.3,5.8-1.7,7.8-3.9
			c4,0.4,7.1,3.8,7.1,7.9C858,376.4,854.4,380,850,380z M862,364c-4.4,0-8-3.6-8-8c0-4.4,3.6-8,8-8c4.4,0,8,3.6,8,8
			C870,360.4,866.4,364,862,364z M870.9,347.9c-2-2.2-4.7-3.6-7.8-3.9c-0.7-1.2-1.1-2.6-1.1-4.1c0-4.4,3.6-8,8-8c4.4,0,8,3.6,8,8
			C878,344.1,874.9,347.5,870.9,347.9z"/>
	</g>
</g>
<g id="beverage_-_cup_beer_drink_2_">
	<g>
		<path fill-rule="evenodd" clip-rule="evenodd" fill="#3C4042" d="M956,367h4v-32h-4V367z M944,367h4v-32h-4V367z M976,335
			C976,335,976,335,976,335l-4,0v-12c0-2.2-1.8-4-4-4h-44c-2.2,0-4,1.8-4,4v56c0,2.2,1.8,4,4,4h44c2.2,0,4-1.8,4-4v-14h4v0
			c4.4,0,8-3.6,8-8v-14C984,338.6,980.4,335,976,335z M968,377c0,1.1-0.9,2-2,2h-40c-1.1,0-2-0.9-2-2v-52c0-1.1,0.9-2,2-2h40
			c1.1,0,2,0.9,2,2V377z M980,357c0,2.2-1.8,4-4,4h-4v-22h4c2.2,0,4,1.8,4,4V357z M932,367h4v-32h-4V367z"/>
	</g>
</g>
<g id="beverage_-_classic_cocktail_3_">
	<g>
		<path fill-rule="evenodd" clip-rule="evenodd" fill="#3C4042" d="M70,420c-5.2,0-9.7,3.3-11.3,8H34.8l-5.4-8L26,422l4,6H20v0.2
			c-1.2,0.4-2,1.5-2,2.8s0.8,2.4,2,2.8v0.2l24,32v14h-8c-1.1,0-2,0.9-2,2c0,1.1,0.9,2,2,2h20c1.1,0,2-0.9,2-2c0-1.1-0.9-2-2-2h-8
			v-14l17.2-23c1.5,0.6,3.1,1,4.8,1c6.6,0,12-5.4,12-12C82,425.4,76.6,420,70,420z M46,462l-22-30h8.7l13.1,19.5l3.5-2L37.5,432H68
			L46,462z M70,440c-0.8,0-1.5-0.1-2.3-0.3L72,434v-0.2c1.2-0.4,2-1.5,2-2.8s-0.8-2.4-2-2.8V428h-8.9c1.4-2.4,4-4,6.9-4
			c4.4,0,8,3.6,8,8C78,436.4,74.4,440,70,440z"/>
	</g>
</g>
<g id="beverage_-_coffee_cup_3_">
	<g>
		<path fill-rule="evenodd" clip-rule="evenodd" fill="#3C4042" d="M176,440h-9c0.7-4.7,1-8,1-8h-48c0,0,4,44,16,44h16
			c4.6,0,8-6.5,10.5-14.4C177.7,458.5,176,440,176,440z M150,472h-12c-10,0-14-36-14-36h40C164,436,160,472,150,472z M163.6,457.9
			c1.2-4.7,2.2-9.6,2.9-13.9h5.6C172,444,172,456.5,163.6,457.9z"/>
	</g>
</g>
<g id="beverage_-_glass_2_">
	<g>
		<path fill-rule="evenodd" clip-rule="evenodd" fill="#3C4042" d="M269,435c0-8-4-16-4-16h-36c0,0-4,8-4,16
			c0,15.6,8.8,22.5,20,23.9V479h-8c-1.1,0-2,0.9-2,2s0.9,2,2,2h20c1.1,0,2-0.9,2-2s-0.9-2-2-2h-8v-20.1
			C260.2,457.5,269,450.6,269,435z M231.2,423h31.6c0.3,1.8,1.9,3.7,2.2,10c-4,4-10,9.9-18,2c-8-8-18,0-18,0
			C229,427,230.9,424.9,231.2,423z M247,455.2c-9.2,0-16.5-4.7-17.8-16.4c1.5-1.1,10.5-7.1,17.8,0.2c8,8,13.9,2.1,17.9-1.9
			C264.2,450,256.6,455.2,247,455.2z"/>
	</g>
</g>
<g id="location_-_pin_map_2_">
	<g>
		<path fill-rule="evenodd" clip-rule="evenodd" fill="#3C4042" d="M350,432c-5.5,0-10,4.5-10,10c0,5.5,4.5,10,10,10
			c5.5,0,10-4.5,10-10C360,436.5,355.5,432,350,432z M350,448c-3.3,0-6-2.7-6-6c0-3.3,2.7-6,6-6c3.3,0,6,2.7,6,6
			C356,445.3,353.3,448,350,448z M324,480l6-20h-4l-8,24h24l-4-4H324z M350,420c-13.3,0-24,10.7-24,24c0,13.3,24,40,24,40
			s24-26.7,24-40C374,430.7,363.3,420,350,420z M330,444.2c0-11.2,9-20.3,20-20.3s20,9.1,20,20.3S350,478,350,478
			S330,455.4,330,444.2z M374,460h-4l6,20h-14l-4,4h24L374,460z"/>
	</g>
</g>
<g id="interface_-_like_heart_love">
	<g>
		<path fill-rule="evenodd" clip-rule="evenodd" fill="#3C4042" d="M463,421c-6,0-14,10-14,10s-8-10-14-10c-12.1,0-18,5.9-18,18.2
			c0,11.5,32,43.9,32,43.9s32-32.4,32-43.9C481,426.9,475.1,421,463,421z M449,477c0,0-28-27.6-28-37.3c0-10.3,3.4-14.7,14-14.7
			c3.2,0,14,10,14,10s10.8-10,14-10c10.6,0,14,4.4,14,14.7C477,449.4,449,477,449,477z"/>
	</g>
</g>
<g id="interface_-_arrow_right_top">
	<g>
		<path fill-rule="evenodd" clip-rule="evenodd" fill="#3C4042" d="M572.3,426.6c-0.6-0.6-1.4-0.8-2.5-0.6l-37,7.1
			c-2.1,0.4-2.6,2.1-1.1,3.6l9.7,9.7l-14.1,14.1c-3.1,3.1-3.1,8.1,0,11.3c3.1,3.1,8.1,3.1,11.3,0l14.1-14.1l9.6,9.6
			c1.5,1.5,3.1,1,3.6-1.1l7.1-37C573.1,428,572.9,427.2,572.3,426.6z M562.6,462l-10-10l-16.9,16.9c-1.6,1.6-4.1,1.6-5.6,0
			c-1.6-1.6-1.6-4.1,0-5.6l16.9-16.9l-10.1-10.1l31.7-6L562.6,462z"/>
	</g>
</g>
<g id="interface_-_cross_cancel_1_">
	<g>
		<path fill-rule="evenodd" clip-rule="evenodd" fill="#FFFFFF" d="M653.8,450l24.7-24.7c0.8-0.8,0.8-2,0-2.8c-0.8-0.8-2-0.8-2.8,0
			L651,447.2l-24.7-24.7c-0.8-0.8-2-0.8-2.8,0c-0.8,0.8-0.8,2,0,2.8l24.7,24.7l-24.7,24.7c-0.8,0.8-0.8,2,0,2.8c0.8,0.8,2,0.8,2.8,0
			l24.7-24.7l24.7,24.7c0.8,0.8,2,0.8,2.8,0c0.8-0.8,0.8-2,0-2.8L653.8,450z"/>
	</g>
</g>
<g id="share_3_">
	<g>
		<path fill="#3C4042" d="M774.4,474.3c0,1.1-0.9,1.9-1.9,1.9h-49.8c-1.1,0-1.9-0.9-1.9-1.9v-36.4c0-1.1,0.9,0,1.9,0H734l4-3.8
			h-17.2c-2.1,0-3.8,1.7-3.8,3.8v38.3c0,2.1,1.7,3.8,3.8,3.8h53.6c2.1,0,3.8-1.7,3.8-3.8v-22.9l-3.8,3.7V474.3z M785.2,436.4
			l-15.2-14.6c-0.6-0.5-1.4-0.6-2-0.2c-0.7,0.3-1.1,1-1.1,1.7l-0.1,6.9c-11.1,0.4-19.7,2-25.3,8.6c-9.1,10.6-7.1,26.1-7,26.7
			c0.1,0.9,0.8,1.6,1.8,1.6c0,0,0,0,0.1,0c1,0,1.6-0.8,1.7-1.7c0.1-0.7,2-19.8,28.8-19.8l0.1,7.2c0,0.7,0.4,1.4,1.1,1.7
			c0.7,0.3,1.5,0.2,2-0.3l15.2-14.8c0.4-0.4,0.7-0.9,0.7-1.5C785.9,437.3,785.6,436.8,785.2,436.4z M770.6,448.7v-5.1
			c0-0.5-0.2-1-0.6-1.4c-0.4-0.4-0.8-0.6-1.4-0.6c0,0,0,0,0,0c-19.2,0-26.5,8.4-30.7,14.1c0.6-4.6,2.4-10.1,6.3-14.6
			c5.2-6,13.5-7.2,24.4-7.2c1.1,0,1.9-0.9,1.9-1.9v-4.8l10.3,10.6L770.6,448.7z"/>
	</g>
</g>
<g>
	<g>
		<path fill-rule="evenodd" clip-rule="evenodd" fill="#3C4042" d="M856,463.9h-8v8h8V463.9z M880,419.9h-56c-1.1,0-2,0.9-2,2v60
			c0,1.1,0.9,2,2,2h56c1.1,0,2-0.9,2-2v-60C882,420.8,881.1,419.9,880,419.9z M878,479.9h-52v-44h52V479.9z M878,431.9h-52v-8h52
			V431.9z M856,447.9h-8v8h8V447.9z M842,463.9h-8v8h8V463.9z M842,447.9h-8v8h8V447.9z M862,471.9h8v-8h-8V471.9z M861.5,459.2
			l4.4-4.4l4.4,4.4l3-3l-4.4-4.4l4.4-4.4l-3-3l-4.4,4.4l-4.4-4.4l-3,3l4.4,4.4l-4.4,4.4L861.5,459.2z"/>
	</g>
</g>
<g id="communication_-_bubble_help_question_support">
	<g>
		<path fill-rule="evenodd" clip-rule="evenodd" fill="#FFFFFF" d="M948.5,432c-4.1,0-7.4,1.7-9.5,4.4l2.2,2.4
			c1.6-2.2,3.7-3.6,7-3.6c3.4,0,5.1,1.9,5.1,4.1c0,4.6-7.8,5.1-7.8,10.6c0,1.4,0.5,2.6,1.7,3.6l2.7-1.2c-0.7-0.5-1.1-1.4-1.1-2.1
			c0-4.3,8.4-4.8,8.4-11.4C957,435,953.8,432,948.5,432z M948,457.2c-1.3,0-2.4,1.1-2.4,2.4c0,1.3,1.1,2.4,2.4,2.4
			c1.3,0,2.4-1.1,2.4-2.4C950.4,458.3,949.3,457.2,948,457.2z M949,418c-17.7,0-32,12.5-32,28c0,8.8,4.7,16.7,12,21.8V482l16.4-8.2
			c1.2,0.1,2.4,0.2,3.6,0.2c17.7,0,32-12.5,32-28C981,430.5,966.7,418,949,418z M949,470c-1.8,0-3.6-0.2-5.3-0.4l1.3,0.4l-12,6v-10
			l1.3,0.4c-8-4.2-13.3-11.8-13.3-20.4c0-13.3,12.5-24,28-24c15.5,0,28,10.7,28,24S964.5,470,949,470z"/>
	</g>
</g>
<g id="communication_-_bubble_chat_group_conversation_2_">
	<g>
		<path fill-rule="evenodd" clip-rule="evenodd" fill="#FFFFFF" d="M35,576v-8h-4c-3.1,0-5.8-1.8-7.1-4.3c-0.5-0.4-0.9-1-0.9-1.7
			v-26.9c-2.4,2.2-4,5.4-4,8.9v16c0,6.6,5.4,12,12,12v12l15-12h9v-4h-9.3L35,576z M71,520H39c-6.6,0-12,5.4-12,12v16
			c0,6.6,5.4,12,12,12h17l15,12l0-12h0c6.6,0,12-5.4,12-12v-16C83,525.4,77.6,520,71,520z M79,548c0,4.4-3.6,8-8,8h-4v8l-10.7-8H39
			c-4.4,0-8-3.6-8-8v-16c0-4.4,3.6-8,8-8h32c4.4,0,8,3.6,8,8V548z"/>
	</g>
</g>
<g id="communication_-_email_envelope_1_">
	<g>
		<path fill-rule="evenodd" clip-rule="evenodd" fill="#FFFFFF" d="M180.4,526.5c-0.5-0.5-1.1-0.6-1.7-0.6h-59.5
			c-0.6-0.1-1.2,0.1-1.7,0.6c-0.4,0.4-0.6,0.9-0.6,1.4c0,0,0,0,0,0v48c0,1.1,0.9,2,2,2h60c1.1,0,2-0.9,2-2v-48c0,0,0,0,0,0
			C181,527.5,180.8,526.9,180.4,526.5z M173.3,530L149,549.5L124.7,530H173.3z M175,574h-52c-1.1,0-2-0.9-2-2v-39.9l26.4,21.1
			c0.1,0.1,0.1,0.1,0.2,0.2c0.4,0.4,0.9,0.6,1.4,0.6c0.5,0,1-0.2,1.4-0.6c0.1-0.1,0.1-0.1,0.2-0.2l26.4-21.1V572
			C177,573.1,176.1,574,175,574z"/>
	</g>
</g>
<g id="document_-_book_article">
	<g>
		<path fill-rule="evenodd" clip-rule="evenodd" fill="#FFFFFF" d="M228,538v4c0,0,2-2,6-2s8,2,8,2v-4c0,0-4.3-2-8.4-2
			C229.8,536,228,538,228,538z M228,550v4c0,0,2-2,6-2s8,2,8,2v-4c0,0-4.3-2-8.4-2C229.8,548,228,550,228,550z M258,562v4
			c0,0,4-2,8-2s6,2,6,2v-4c0,0-2.3-2-6.4-2C261.8,560,258,562,258,562z M258,550v4c0,0,4-2,8-2s6,2,6,2v-4c0,0-2.3-2-6.4-2
			C261.8,548,258,550,258,550z M264.1,522c-7.3,0-14.1,4-14.1,4s-6.8-4-14.1-4c-8.6,0-15.9,4-15.9,4v56c0,0,7.6-4,16.2-4
			c7.2,0,13.8,4,13.8,4s6.6-4,13.8-4c8.7,0,16.2,4,16.2,4v-56C280,526,272.7,522,264.1,522z M276,576c0,0-4.9-2-11.8-2
			c-4.8,0-9.6,0.9-12.2,1.5V530h-2h-2v45.5c-2.6-0.6-7.4-1.5-12.2-1.5c-6.9,0-11.8,2-11.8,2v-46c0,0,5-4,12-4s14,4,14,4s7-4,14-4
			s12,4,12,4V576z M258,542c0,0,4-2,8-2s6,2,6,2v-4c0,0-2.3-2-6.4-2c-3.9,0-7.6,2-7.6,2V542z M228,562v4c0,0,2-2,6-2s8,2,8,2v-4
			c0,0-4.3-2-8.4-2C229.8,560,228,562,228,562z"/>
	</g>
</g>
<g id="Star_3_">
	<g>
		<polygon fill="#B79C57" points="376.3,543.8 354.7,543.2 346.6,521.7 338.5,543.2 316.9,543.8 333.5,556.9 326.9,580.7 346.5,566 
			366.2,580.7 359.7,556.9 		"/>
	</g>
</g>
<g id="Star_2_">
	<g>
		<polygon fill="#999999" points="479.3,543.8 457.7,543.2 449.6,521.7 441.5,543.2 419.9,543.8 436.5,556.9 429.9,580.7 449.5,566 
			469.2,580.7 462.7,556.9 		"/>
	</g>
</g>
<g id="interface_-_arrow_vertical_1_">
	<g>
		<polygon fill-rule="evenodd" clip-rule="evenodd" fill="#B79C57" points="554,534 562,534 552,518 542,534 550,534 550,566 
			542,566 552,582 562,566 554,566 		"/>
	</g>
</g>
<g id="user_-_male_group">
	<g>
		<path fill-rule="evenodd" clip-rule="evenodd" fill="#3C4042" d="M680.2,559.8c-1.2-1.1-9.3-3.2-13.4-4.2c3.9-3.7,6.2-10,6.2-15.9
			c0-9.2-2.5-16.7-14-16.7c-3.6,0-6.4,0.8-8.4,2.1c2.8,0.2,5.1,0.9,6.8,2c0.5-0.1,1-0.1,1.6-0.1c8.3,0,10,5.7,10,12.8
			c0,5.2-2,10.8-5.5,13.5v2.6l0.6,1.8c4.2,1.1,11.2,2.9,12.9,3.7c2.4,1.1,3.1,6.4,0,7.5l-6.1,0c0.2,1.3,0.3,2.6,0,3.9
			c10-0.3,10.7-1,10.7-1C684.2,568.2,682.9,562.2,680.2,559.8z M650.7,561.6c4-3.9,6.3-10.6,6.3-16.9c0-9.7-2.5-17.6-14-17.6
			c-11.5,0-14,7.9-14,17.6c0,6.3,2.4,13.1,6.4,17c-4.2,1-12.3,3.1-13.5,4.2c-2.7,2.4-4,8.4-1.3,12c0,0,1.5,1.2,22.7,1.2
			c21.1,0,22.5-1.2,22.5-1.2c2.6-3.6,1.3-9.6-1.3-12C663,564.7,654.8,562.6,650.7,561.6z M660.9,575l-18.2,0c0,0-17.7,0-17.7,0
			c-3.6-1.3-1.8-6.4,0.6-7.5c1.8-0.8,8.8-2.9,12.4-3.9l0.5-1.6v-2.7c-3.5-2.9-5.5-9-5.5-14.5c0-7.6,1.7-13.8,10-13.8
			c8.3,0,10,6.2,10,13.8c0,5.5-2,11.6-5.5,14.5v2.7l0.6,1.8c4.2,1.1,11.2,2.9,12.9,3.7C663.3,568.6,664,573.9,660.9,575z"/>
	</g>
</g>
<g id="tool_-_camera_1_">
	<g>
		<path fill-rule="evenodd" clip-rule="evenodd" fill="#3C4042" d="M775,536h-12v4h12V536z M747,572c8.8,0,16-7.2,16-16
			c0-8.8-7.2-16-16-16c-8.8,0-16,7.2-16,16C731,564.8,738.2,572,747,572z M747,544c6.6,0,12,5.4,12,12c0,6.6-5.4,12-12,12
			c-6.6,0-12-5.4-12-12C735,549.4,740.4,544,747,544z M743,528v-8h-24v60h64v-52H743z M723,524h16v4h-16V524z M779,576h-56v-44h56
			V576z"/>
	</g>
</g>
<g id="tool_-_ruler">
	<g>
		<path fill-rule="evenodd" clip-rule="evenodd" fill="#3C4042" d="M834,518v64h28v-64H834z M858,570v8h-20v-56h20v8h-12v4h12v8h-8
			v4h8v8h-12v4h12v8h-8v4H858z"/>
	</g>
</g>
<g id="ecommerce_-_bill_payment_receipt">
	<g>
		<path fill-rule="evenodd" clip-rule="evenodd" fill="#3C4042" d="M950,542h-16v4h16V542z M966,530h-32v4h32V530z M958,546h8v-4h-8
			V546z M958,554h8v-4h-8V554z M922,518v64h4l8-6l8,6l8-6l8,6l8-6l8,6h4v-64H922z M974,578l-8-6l-8,6l-8-6l-8,6l-8-6l-8,6v-56h48
			V578z M950,550h-16v4h16V550z M950,558h-16v4h16V558z M958,562h8v-4h-8V562z"/>
	</g>
</g>
<g id="weather_-_sunrise_sun">
	<g>
		<path fill-rule="evenodd" clip-rule="evenodd" fill="#3C4042" d="M52,618h-4v8h4V618z M78,630.8l-2.8-2.8l-5.7,5.7l2.8,2.8
			L78,630.8z M30,654c0-11.1,9-20,20-20c11.1,0,20,9,20,20h4c0-13.3-10.7-24-24-24c-13.3,0-24,10.7-24,24H30z M22,670h56v-4H22V670z
			 M18,658v4h64v-4H18z M30.4,633.6l-5.7-5.7l-2.8,2.8l5.7,5.7L30.4,633.6z M28,678h44v-4H28V678z"/>
	</g>
</g>
<g id="interior_-_bed">
	<g>
		<path fill-rule="evenodd" clip-rule="evenodd" fill="#3C4042" d="M180.1,662l-7.1-32v-8c0-2.2-1.8-4-4-4h-40c-2.2,0-4,1.8-4,4v8
			l-7.1,32H117v16h4v4h4v-4h48v4h4v-4h4v-16H180.1z M129,624c0-1.1,0.9-2,2-2h36c1.1,0,2,0.9,2,2v4c0,1.1-0.9,2-2,2h-6v-2
			c0-1.1-0.9-2-2-2h-20c-1.1,0-2,0.9-2,2v2h-6c-1.1,0-2-0.9-2-2V624z M157,630v4h-16v-4H157z M129,634h8v2c0,1.1,0.9,2,2,2h20
			c1.1,0,2-0.9,2-2v-2h8l3.4,12h-46.9L129,634z M177,674h-56v-8h56V674z M121,662l4-14v2h48v-2l4,14H121z"/>
	</g>
</g>
<g id="interior_-_bed_2_">
	<g>
		<path fill-rule="evenodd" clip-rule="evenodd" fill="#BAC3C6" d="M282.1,662l-7.1-32v-8c0-2.2-1.8-4-4-4h-40c-2.2,0-4,1.8-4,4v8
			l-7.1,32H219v16h4v4h4v-4h48v4h4v-4h4v-16H282.1z M231,624c0-1.1,0.9-2,2-2h36c1.1,0,2,0.9,2,2v4c0,1.1-0.9,2-2,2h-6v-2
			c0-1.1-0.9-2-2-2h-20c-1.1,0-2,0.9-2,2v2h-6c-1.1,0-2-0.9-2-2V624z M259,630v4h-16v-4H259z M231,634h8v2c0,1.1,0.9,2,2,2h20
			c1.1,0,2-0.9,2-2v-2h8l3.4,12h-46.9L231,634z M279,674h-56v-8h56V674z M223,662l4-14v2h48v-2l4,14H223z"/>
	</g>
</g>
</svg>
