<?xml version="1.0" encoding="utf-8"?>
<!-- Generator: Adobe Illustrator 18.1.1, SVG Export Plug-In . SVG Version: 6.00 Build 0)  -->
<!DOCTYPE svg PUBLIC "-//W3C//DTD SVG 1.1//EN" "http://www.w3.org/Graphics/SVG/1.1/DTD/svg11.dtd">
<svg version="1.1" id="Layer_1" xmlns="http://www.w3.org/2000/svg" xmlns:xlink="http://www.w3.org/1999/xlink" x="0px" y="0px"
	 viewBox="0 0 360 64" enable-background="new 0 0 360 64" xml:space="preserve">
<g id="time_-_clock_hour_2_">
	<g>
		<path fill-rule="evenodd" clip-rule="evenodd" fill="#FFFFFF" d="M17,28.3h-3.7V32H17V28.3z M17,43.9l2.8,2.8l2.8-2.8l-2.8-2.8
			L17,43.9z M52.2,17.7l-2.6-2.6L47,17.7l2.6,2.6L52.2,17.7z M20.7,16.4l2.8,2.8l2.8-2.8l-2.8-2.8L20.7,16.4z M35.4,2.6
			C19.1,2.6,6,15.8,6,32c0,16.2,13.1,29.4,29.4,29.4c16.2,0,29.4-13.1,29.4-29.4C64.7,15.8,51.6,2.6,35.4,2.6z M35.4,57.7
			C21.2,57.7,9.7,46.2,9.7,32c0-14.2,11.5-25.7,25.7-25.7S61.1,17.8,61.1,32C61.1,46.2,49.6,57.7,35.4,57.7z M31.7,54h3.7v-3.7h-3.7
			V54z M47,46.3l2.6,2.6l2.6-2.6l-2.6-2.6L47,46.3z M35.4,32V10h-3.7v25.7h22V32H35.4z"/>
	</g>
</g>
<g id="setting_-_plane_airplane">
	<g>
		<path fill="#FFFFFF" d="M136.2,4c-0.7-0.7-2.1-1.2-3.9-1.2c-2.2,0-4.8,0.8-7.2,3.2L113,18c-6.8-0.4-24.2-1.6-24.7-1.6
			c-0.1,0-0.2,0-0.3,0c-0.6,0-1.6,0.1-2.8,1.1c-1.4,1.1-4.2,3.8-4.2,3.8c-0.7,0.7-1,1.5-0.9,2.3c0.1,0.5,0.3,1.4,1.5,1.8
			c0.7,0.3,12.2,4.6,17.4,6.5l-7.2,7.4c-0.3,0-0.7,0-1.2,0c-2.2,0-5.6-0.1-7-0.1c-0.2,0-0.3,0-0.4,0c-0.4,0-1.3-0.2-3.5,1.7
			l-0.2,0.2c-0.7,0.7-0.8,1.4-0.9,1.8c0,0.5,0.1,1.1,0.8,1.7c0.4,0.3,5.6,3.6,9.8,6.2c1,1.7,5.7,9.1,5.9,9.5c0.4,0.6,0.9,0.9,1.6,1
			h0.1c0.7,0,1.4-0.3,2-1c1.9-2.2,1.7-3.2,1.7-3.6c0-1.2,0-6.4,0-8.5l7.5-7.2c1.9,5.3,6.1,16.6,6.4,17.3c0.5,1.2,1.3,1.4,1.8,1.5
			c0.1,0,0.2,0,0.2,0c0.7,0,1.5-0.3,2.1-1c0,0,2.7-2.8,3.8-4.2c1.1-1.4,1.1-2.5,1.1-3.1c0-0.4-1.1-17.7-1.5-24.5L134.1,15
			C138.4,10.7,137.7,5.5,136.2,4z M83.6,42.9C83.5,42.8,83.5,42.8,83.6,42.9C83.5,42.8,83.5,42.8,83.6,42.9z M131.6,12.4l-12.1,12.1
			l-1.2,1.2l0.1,1.6c0.2,3.4,0.6,9.6,0.9,14.9c0.3,4.7,0.6,9.1,0.6,9.5c0,0.3,0,0.3-0.2,0.6c-0.5,0.7-1.6,1.8-2.4,2.7
			c-1.3-3.6-4.1-11.1-5.6-15.3l-2-5.4l-4.1,4.1l-7.5,7.2l-1,1l0,1.5c0,1.2,0,3.3,0,5.1c0,1.2,0,2.2,0,2.9c-0.1-0.2-0.2-0.3-0.3-0.5
			c-1.5-2.4-3.6-5.7-4.2-6.8L92,48.1l-0.8-0.5c-2.7-1.6-5.6-3.5-7.5-4.7h0.1c0.6,0,1.6,0,2.7,0c1.4,0,3.1,0,4.3,0c0.5,0,0.9,0,1.2,0
			l1.5,0l1-1l7.2-7.4l4.1-4.1l-5.4-2c-4-1.5-11.8-4.4-15.4-5.7c0.9-0.9,2.1-1.9,2.7-2.4c0.2-0.2,0.3-0.2,0.4-0.2l0.1,0
			c0.4,0,5.4,0.3,10.3,0.7c5.2,0.3,11,0.7,14.3,0.9l1.7,0.1l1.2-1.2l12.1-12.1c1.9-1.9,3.7-2.1,4.6-2.1c0.6,0,1,0.1,1.2,0.2
			C133.8,7.3,134.1,9.8,131.6,12.4z"/>
	</g>
</g>
<g id="location_-_map_route">
	<g>
		<path fill-rule="evenodd" clip-rule="evenodd" fill="#FFFFFF" d="M182,22c-1.1,0-2,0.9-2,2v22c0,1.1,0.9,2,2,2s2-0.9,2-2V24
			C184,22.9,183.1,22,182,22z M196,40c0,1.1,0.9,2,2,2s2-0.9,2-2V14c0-1.1-0.9-2-2-2s-2,0.9-2,2V40z M196,2l-14,12l-18-8l-16,8v48
			l16-8l18,4l14-8l16,8V12L196,2z M208,52l-12-6l-14,8l-18-4l-12,6V16l12-6l18,8l14-12l12,8V52z M166,16c-1.1,0-2,0.9-2,2v26
			c0,1.1,0.9,2,2,2s2-0.9,2-2V18C168,16.9,167.1,16,166,16z"/>
	</g>
</g>
<g id="interface_-_calendar_time_date">
	<g>
		<path fill="#FFFFFF" d="M255.6,28.4h-7.2v7.2h7.2V28.4z M268.1,42.8H261v7.2h7.2V42.8z M255.6,42.8h-7.2v7.2h7.2V42.8z
			 M268.1,28.4H261v7.2h7.2V28.4z M277.1,3.3h-50.2c-1,0-1.8,0.8-1.8,1.8v53.8c0,1,0.8,1.8,1.8,1.8h50.2c1,0,1.8-0.8,1.8-1.8V5.1
			C278.9,4.1,278.1,3.3,277.1,3.3z M275.3,57.1h-46.6V17.6h46.6V57.1z M275.3,14.1h-46.6V6.9h46.6V14.1z M243,42.8h-7.2v7.2h7.2
			V42.8z M243,28.4h-7.2v7.2h7.2V28.4z"/>
	</g>
</g>
<g id="document_-_drawing__writing_board_tick">
	<g>
		<path fill-rule="evenodd" clip-rule="evenodd" fill="#FFFFFF" d="M336.9,9.8V6.2h-5.5c0-2-1.7-3.7-3.7-3.7h-7.4
			c-2,0-3.7,1.7-3.7,3.7h-5.5v3.7h-12.9v51.7h51.7V9.8H336.9z M314.8,9.8h5.5V8c0-1,0.8-1.8,1.8-1.8h3.7c1,0,1.8,0.8,1.8,1.8v1.8
			h5.5v7.4h-18.5V9.8z M346.1,57.8h-44.3V13.5h9.2v7.4h25.8v-7.4h9.2V57.8z M335.5,28.8l-13.6,17l-6-6c-0.7-0.7-1.8-0.7-2.5,0
			c-0.7,0.7-0.7,1.8,0,2.5l7.1,7.1c0.1,0.1,0.2,0.2,0.3,0.3c0.2,0.2,0.4,0.3,0.7,0.4c0.6,0.3,1.4,0.2,1.9-0.4
			c0.1-0.1,0.2-0.2,0.3-0.4l14.4-18.1c0.7-0.7,0.7-1.9,0-2.7C337.4,28.1,336.2,28.1,335.5,28.8z"/>
	</g>
</g>
</svg>
