<?xml version="1.0" encoding="utf-8"?>
<!-- Generator: Adobe Illustrator 18.1.1, SVG Export Plug-In . SVG Version: 6.00 Build 0)  -->
<!DOCTYPE svg PUBLIC "-//W3C//DTD SVG 1.1//EN" "http://www.w3.org/Graphics/SVG/1.1/DTD/svg11.dtd">
<svg version="1.1" id="Layer_1" xmlns="http://www.w3.org/2000/svg" xmlns:xlink="http://www.w3.org/1999/xlink" x="0px" y="0px"
	 viewBox="0 0 432 64" enable-background="new 0 0 432 64" xml:space="preserve">
<g id="user_-_male_group">
	<g>
		<path fill-rule="evenodd" clip-rule="evenodd" fill="#3C4042" d="M35.7,42.6c4-3.9,6.3-10.6,6.3-16.9C42,15.9,39.5,8,28,8
			c-11.5,0-14,7.9-14,17.6c0,6.3,2.4,13.1,6.4,17c-4.2,1-12.3,3.1-13.5,4.2c-2.7,2.4-4,8.4-1.3,12c0,0,1.5,1.2,22.7,1.2
			c21.1,0,22.5-1.2,22.5-1.2c2.6-3.6,1.3-9.6-1.3-12C48,45.7,39.8,43.6,35.7,42.6z M45.9,56l-18.2,0c0,0-17.7,0-17.7,0
			c-3.6-1.3-1.8-6.4,0.6-7.5c1.8-0.8,8.8-2.9,12.4-3.9l0.5-1.6v-2.7c-3.5-2.9-5.5-9-5.5-14.5C18,18.2,19.7,12,28,12
			c8.3,0,10,6.2,10,13.8c0,5.5-2,11.6-5.5,14.5V43l0.6,1.8c4.2,1.1,11.2,2.9,12.9,3.7C48.3,49.6,49,54.9,45.9,56z M65.2,40.8
			c-1.2-1.1-9.3-3.2-13.4-4.2c3.9-3.7,6.2-10,6.2-15.9C58,11.5,55.5,4,44,4c-3.6,0-6.4,0.8-8.4,2.1c2.8,0.2,5.1,0.9,6.8,2
			C42.9,8,43.4,8,44,8c8.3,0,10,5.7,10,12.8c0,5.2-2,10.8-5.5,13.5V37l0.6,1.8c4.2,1.1,11.2,2.9,12.9,3.7c2.4,1.1,3.1,6.4,0,7.5
			l-6.1,0c0.2,1.3,0.3,2.6,0,3.9c10-0.3,10.7-1,10.7-1C69.2,49.2,67.9,43.2,65.2,40.8z"/>
	</g>
</g>
<g id="kitchen_-_tissue_paper">
	<g>
		<path fill-rule="evenodd" clip-rule="evenodd" fill="#3C4042" d="M194.3,4.6h-27.4c-7.6,0-13.7,8.4-13.7,18.8v35.9H184V21.7h0.1
			C184.7,14,189,8,194.3,8c5.7,0,10.3,6.9,10.3,15.4c0,8.5-4.6,15.4-10.3,15.4h-6.8v3.4h6.8c7.6,0,13.7-8.4,13.7-18.8
			S201.9,4.6,194.3,4.6z M180.6,23.4V56h-24V23.4c0-8.5,4.6-15.4,10.3-15.4h19.5C182.9,11.4,180.6,17.1,180.6,23.4z M201.2,23.4
			c0-4.7-2.3-8.6-5.1-8.6c-2.8,0-5.1,3.8-5.1,8.6c0,4.7,2.3,8.6,5.1,8.6C198.9,32,201.2,28.2,201.2,23.4z M194.3,23.4
			c0-2.8,0.8-5.1,1.7-5.1c0.9,0,1.7,2.3,1.7,5.1c0,2.8-0.8,5.1-1.7,5.1C195.1,28.6,194.3,26.3,194.3,23.4z"/>
	</g>
</g>
<g id="interior_-_bed">
	<g>
		<path fill-rule="evenodd" clip-rule="evenodd" fill="#3C4042" d="M134.5,42.2L128.4,15V8.2c0-1.9-1.5-3.4-3.4-3.4H91
			c-1.9,0-3.4,1.5-3.4,3.4V15l-6.1,27.2h-0.8v13.6h3.4v3.4h3.4v-3.4h40.9v3.4h3.4v-3.4h3.4V42.2H134.5z M91,9.9
			c0-0.9,0.8-1.7,1.7-1.7h30.6c0.9,0,1.7,0.8,1.7,1.7v3.4c0,0.9-0.8,1.7-1.7,1.7h-5.1v-1.7c0-0.9-0.8-1.7-1.7-1.7h-17
			c-0.9,0-1.7,0.8-1.7,1.7V15h-5.1c-0.9,0-1.7-0.8-1.7-1.7V9.9z M114.8,15v3.4h-13.6V15H114.8z M91,18.4h6.8v1.7
			c0,0.9,0.8,1.7,1.7,1.7h17c0.9,0,1.7-0.8,1.7-1.7v-1.7h6.8l2.9,10.2H88.1L91,18.4z M131.8,52.4H84.2v-6.8h47.7V52.4z M84.2,42.2
			l3.4-11.9V32h40.9v-1.7l3.4,11.9H84.2z"/>
	</g>
</g>
<g id="tool_-_ruler">
	<g>
		<path fill-rule="evenodd" clip-rule="evenodd" fill="#3C4042" d="M241.3,5.3v53.4h23.4V5.3H241.3z M261.3,48.7v6.7h-16.7V8.6h16.7
			v6.7h-10v3.3h10v6.7h-6.7v3.3h6.7v6.7h-10v3.3h10v6.7h-6.7v3.3H261.3z"/>
	</g>
</g>
<g id="transportation_-_vehicle_car_1_">
	<g>
		<path fill-rule="evenodd" clip-rule="evenodd" fill="#3C4042" d="M309.1,35.3c-2.7,0-5,2.2-5,5c0,2.7,2.2,5,5,5c2.7,0,5-2.2,5-5
			C314.1,37.5,311.9,35.3,309.1,35.3z M309.1,41.9c-0.9,0-1.7-0.7-1.7-1.7s0.7-1.7,1.7-1.7c0.9,0,1.7,0.7,1.7,1.7
			S310.1,41.9,309.1,41.9z M350.4,27v-3.3c0-0.9-0.7-1.7-1.7-1.7h-3.3c-0.1,0-0.2,0-0.3,0l-1.3-6.6c0-5.5-4.4-9.9-9.9-9.9h-19.8
			c-5.5,0-9.9,4.4-9.9,9.9l-1.3,6.6c-0.1,0-0.2,0-0.3,0h-3.3c-0.9,0-1.7,0.7-1.7,1.7V27c0,0.9,0.7,1.6,1.7,1.6h2.3l-0.1,0.6
			c-2.3,1-3.8,3.3-3.8,6v16.5h3.3v3.3c0,1.8,1.5,3.3,3.3,3.3h3.3c1.8,0,3.3-1.5,3.3-3.3v-3.3h24.8v3.3c0,1.8,1.5,3.3,3.3,3.3h3.3
			c1.8,0,3.3-1.5,3.3-3.3v-3.3h5V35.3c0-2.7-1.6-4.9-3.8-6l-0.1-0.6h2.3C349.7,28.7,350.4,28,350.4,27z M307.5,15.5
			c0-3.6,3-6.6,6.6-6.6h19.8c3.6,0,6.6,3,6.6,6.6l2.6,13.2h-38.3L307.5,15.5z M307.5,53.5c0,0.9-0.7,1.7-1.7,1.7
			c-0.9,0-1.7-0.7-1.7-1.7v-1.7h3.3V53.5z M342.2,53.5c0,0.9-0.7,1.7-1.7,1.7s-1.7-0.7-1.7-1.7v-1.7h3.3V53.5z M347.1,35.3v9.9
			c0,1.8-1.5,3.3-3.3,3.3h-39.6c-1.8,0-3.3-1.5-3.3-3.3v-9.9c0-1.8,1.5-3.3,3.3-3.3h39.6C345.6,32,347.1,33.5,347.1,35.3z
			 M338.9,35.3c-2.7,0-5,2.2-5,5c0,2.7,2.2,5,5,5c2.7,0,5-2.2,5-5C343.8,37.5,341.6,35.3,338.9,35.3z M338.9,41.9
			c-0.9,0-1.7-0.7-1.7-1.7s0.7-1.7,1.7-1.7s1.7,0.7,1.7,1.7S339.8,41.9,338.9,41.9z"/>
	</g>
</g>
<g id="building_-_house_live_1_">
	<g>
		<path fill-rule="evenodd" clip-rule="evenodd" fill="#3C4042" d="M379.2,42.1h10.1V32h-10.1V42.1z M382.6,35.3h3.4v3.4h-3.4V35.3z
			 M422.4,25.7L397.3,5.6c-0.3-0.3-0.8-0.5-1.3-0.5c-0.5,0-0.9,0.1-1.3,0.5l-25.1,20.1c-0.7,0.7-0.7,1.8,0,2.4
			c0.7,0.7,1.8,0.7,2.4,0l0.5-0.4v27.7c0,1.9,1.5,3.4,3.4,3.4h40.3c1.9,0,3.4-1.5,3.4-3.4V27.7l0.5,0.4c0.7,0.7,1.8,0.7,2.4,0
			C423,27.5,423,26.4,422.4,25.7z M406.1,55.5H396V35.3h10.1V55.5z M416.1,25.3v28.5c0,0.9-0.8,1.7-1.7,1.7h-5V32h-16.8v23.5h-15.1
			c-0.9,0-1.7-0.8-1.7-1.7V25.3h-0.3L396,9l20.4,16.3H416.1z"/>
	</g>
</g>
</svg>
