<?xml version="1.0" encoding="utf-8"?>
<!-- Generator: Adobe Illustrator 18.1.1, SVG Export Plug-In . SVG Version: 6.00 Build 0)  -->
<!DOCTYPE svg PUBLIC "-//W3C//DTD SVG 1.1//EN" "http://www.w3.org/Graphics/SVG/1.1/DTD/svg11.dtd">
<svg version="1.1" id="Layer_1" xmlns="http://www.w3.org/2000/svg" xmlns:xlink="http://www.w3.org/1999/xlink" x="0px" y="0px"
	 viewBox="0 0 144 64" enable-background="new 0 0 144 64" xml:space="preserve">
<g id="fitness_-_heart_blood_pressure">
	<g>
		<path fill-rule="evenodd" clip-rule="evenodd" fill="#FFFFFF" d="M52,3c-6,0-14,6-16,8c-2-2-10-8-16-8C9,3,4,12,4,23
			c0,12,32,38,32,38s32-26,32-38C68,12,63,3,52,3z M36,55.8C23.6,45.4,8,29.5,8,23C8,18.2,9.2,7,20,7c4.2,0,11.1,4.8,13.2,6.8
			l2.8,2.9l2.8-2.9c2-2,8.9-6.8,13.2-6.8c10.8,0,12,11.2,12,16C64,29.5,48.4,45.3,36,55.8z"/>
	</g>
</g>
<g id="communication_-_bubble_help_question_support_1_">
	<g>
		<path fill-rule="evenodd" clip-rule="evenodd" fill="#FFFFFF" d="M126.3,2.7H89.7c-6.1,0-11,4.9-11,11v23.8c0,6.1,4.9,11,11,11
			h20.6l16,12.8V48.5c6.1,0,11-4.9,11-11V13.7C137.3,7.6,132.4,2.7,126.3,2.7z M133.7,37.5c0,4.1-3.3,7.3-7.3,7.3h-3.7V54l-11-9.2
			h-22c-4.1,0-7.3-3.3-7.3-7.3V13.7c0-4.1,3.3-7.3,7.3-7.3h36.7c4.1,0,7.3,3.3,7.3,7.3V37.5z M107.1,34.9c-1.2,0-2.2,1-2.2,2.2
			c0,1.2,1,2.2,2.2,2.2c1.2,0,2.2-1,2.2-2.2C109.3,35.9,108.3,34.9,107.1,34.9z M107.5,11.8c-3.8,0-6.7,1.6-8.7,4.1l2,2.2
			c1.5-2,3.4-3.3,6.4-3.3c3.1,0,4.7,1.7,4.7,3.7c0,4.2-7.2,4.6-7.2,9.7c0,1.2,0.4,2.4,1.5,3.3l2.4-1.1c-0.7-0.5-1-1.3-1-1.9
			c0-3.9,7.7-4.4,7.7-10.5C115.3,14.6,112.4,11.8,107.5,11.8z"/>
	</g>
</g>
</svg>
